<svg width="64" height="64" viewBox="0 0 64 64" fill="none" xmlns="http://www.w3.org/2000/svg">
<path d="M11.698 22.094C10.946 22.99 9.74805 23.7 8.55205 23.596C8.39405 22.388 8.99005 21.094 9.67805 20.292C10.428 19.378 11.74 18.722 12.804 18.668C12.93 19.93 12.438 21.17 11.7 22.094H11.698ZM12.792 23.834C11.054 23.728 9.56205 24.832 8.73805 24.832C7.89605 24.832 6.63405 23.886 5.26005 23.918C3.47805 23.94 1.81205 24.958 0.906048 26.596C-0.979952 29.854 0.416048 34.678 2.22805 37.334C3.11405 38.646 4.17405 40.084 5.57205 40.044C6.89405 39.99 7.42605 39.17 9.02005 39.17C10.634 39.17 11.092 40.044 12.5 40.012C13.946 39.99 14.8621 38.7 15.748 37.388C16.758 35.898 17.174 34.438 17.196 34.366C17.174 34.334 14.394 33.262 14.374 30.032C14.352 27.322 16.56 26.032 16.654 25.958C15.414 24.084 13.456 23.886 12.79 23.836L12.792 23.834ZM22.824 20.166V39.876H25.8541V33.138H30.0441C33.8661 33.138 36.5541 30.482 36.5541 26.648C36.5541 22.806 33.9201 20.168 30.1481 20.168L22.824 20.166ZM25.8541 22.75H29.3441C31.9681 22.75 33.4701 24.166 33.4701 26.656C33.4701 29.146 31.9681 30.574 29.3241 30.574H25.8541V22.75ZM42.0721 40.022C43.9781 40.022 45.7381 39.054 46.5421 37.51H46.6061V39.876H49.4061V30.062C49.4061 27.23 47.1581 25.388 43.6881 25.388C40.4801 25.388 38.1041 27.252 38.0221 29.804H40.7401C40.9701 28.586 42.0741 27.794 43.6061 27.794C45.4601 27.794 46.4921 28.668 46.4921 30.274V31.356L42.7221 31.586C39.2001 31.804 37.3041 33.252 37.3041 35.784C37.3041 38.336 39.2641 40.024 42.0741 40.024L42.0721 40.022ZM42.8961 37.688C41.2801 37.688 40.2501 36.906 40.2501 35.71C40.2501 34.47 41.2401 33.74 43.1241 33.624L46.4901 33.416V34.53C46.4901 36.376 44.9381 37.688 42.8841 37.688H42.8961ZM53.1461 45.24C56.0921 45.24 57.4801 44.094 58.6881 40.646L64.0001 25.584H60.9281L57.3661 37.218H57.3021L53.7401 25.584H50.5741L55.7001 39.928L55.4281 40.802C54.9581 42.272 54.2101 42.842 52.8761 42.842C52.6361 42.842 52.1781 42.812 51.9901 42.792V45.158C52.1661 45.208 52.9181 45.23 53.1361 45.23L53.1461 45.24Z" fill="black"/>
</svg>
