<svg width="166" height="34" viewBox="0 0 166 34" fill="none" xmlns="http://www.w3.org/2000/svg">
<path d="M12.6319 27.3784C5.52238 27.3784 0 21.3659 0 13.6892C0 6.01249 5.52238 0 12.6319 0C18.5342 0 22.8947 3.3662 24.5116 8.73545H19.1361C17.9698 6.35356 15.6394 4.57603 12.6319 4.57603C8.34652 4.57603 4.96241 8.73545 4.96241 13.6859C4.96241 18.6774 8.34652 22.8368 12.6319 22.8368C15.6018 22.8368 17.9698 20.9837 19.1361 18.6018H24.4741C22.8196 23.9367 18.4215 27.3784 12.6319 27.3784Z" fill="white"/>
<path d="M32.7832 22.2737H45.4228V26.9241H27.7832V0.681152H32.7832V22.2737Z" fill="white"/>
<path d="M53.8746 26.9241H48.9121V0.681152H53.8746V26.9241Z" fill="white"/>
<path d="M70.2264 27.3784C63.1214 27.3784 57.5957 21.3659 57.5957 13.6892C57.5957 6.01249 63.1181 0 70.2264 0C76.1287 0 80.4903 3.3662 82.1072 8.73545H76.7307C75.5655 6.35356 73.2339 4.57603 70.2264 4.57603C65.9411 4.57603 62.5581 8.73545 62.5581 13.6859C62.5581 18.6774 65.9411 22.8368 70.2264 22.8368C73.1964 22.8368 75.5655 20.9837 76.7307 18.6018H82.0686C80.4152 23.9367 76.0161 27.3784 70.2264 27.3784Z" fill="white"/>
<path d="M139.357 26.9241H134.395V0.681152H139.357V26.9241Z" fill="white"/>
<path d="M153.902 26.9241H144.242V0.681152H153.904C161.159 0.681152 165.671 5.71044 165.671 13.8026C165.669 21.8193 161.045 26.9241 153.902 26.9241ZM153.902 5.33272H149.202V22.2737H153.902C159.804 22.2737 160.707 16.9411 160.707 13.7649C160.707 9.90763 159.504 5.33272 153.902 5.33272Z" fill="white"/>
<path d="M111.638 16.3978C112.307 15.138 113.131 13.9678 114.09 12.9149C115.26 11.6273 116.466 10.3708 117.658 9.10434C118.306 8.41444 118.971 7.7412 119.607 7.04018C120.03 6.57358 120.059 6.17253 119.776 5.64149C119.403 4.91111 118.781 4.34036 118.024 4.03394C117.733 3.91507 117.421 3.86174 117.141 4.04394C116.953 4.16141 116.78 4.3013 116.626 4.46055C114.324 6.87798 112.025 9.29876 109.729 11.7229C108.602 12.9079 107.474 14.0955 106.346 15.2857C105.531 16.1471 104.717 17.0088 103.905 17.8709C103.832 17.9487 103.751 18.0198 103.658 18.1086L99.4018 13.8792C99.4857 13.7837 99.5509 13.7059 99.6227 13.6315L103.367 9.68981C104.889 8.08856 106.41 6.48767 107.932 4.88715C109.158 3.59622 110.383 2.30344 111.606 1.00881C111.662 0.941819 111.714 0.87091 111.76 0.796614L111.728 0.745511H111.424C108.884 0.745511 107.741 0.745511 105.206 0.739956C105.105 0.73455 105.004 0.752463 104.911 0.792323C104.818 0.832184 104.735 0.892935 104.669 0.969923C103.216 2.52526 101.758 4.0806 100.296 5.63594C98.7236 7.31052 97.1513 8.98473 95.5792 10.6586C95.5344 10.7126 95.4778 10.7554 95.4138 10.7838C95.3498 10.8121 95.2802 10.8252 95.2103 10.8219C94.1456 10.8163 92.5287 10.8219 91.4639 10.8219C91.3866 10.8219 91.3093 10.813 91.2099 10.8063C91.2033 10.6819 91.1923 10.573 91.1923 10.4642C91.1923 7.48235 91.1923 4.50054 91.1923 1.51874C91.1923 1.34209 91.1922 1.16656 91.2044 0.991031C91.2165 0.8155 91.1293 0.74551 90.946 0.746621C89.1103 0.752176 88.1097 0.746621 86.274 0.753287C86.1636 0.753287 86.0531 0.762174 85.9316 0.76884V26.9396C86.0421 26.9452 86.1271 26.953 86.2133 26.953H90.862C90.9095 26.953 90.957 26.953 91.0056 26.953C91.0295 26.9562 91.0538 26.954 91.0767 26.9466C91.0996 26.9391 91.1206 26.9265 91.138 26.9097C91.1554 26.8929 91.1688 26.8724 91.1773 26.8497C91.1857 26.827 91.1889 26.8027 91.1867 26.7785C91.1867 26.6908 91.1867 26.603 91.1867 26.5152V17.0021C91.2894 16.991 91.3436 16.9799 91.3977 16.9799C92.5419 16.9799 93.6861 16.9799 94.8304 16.9799C94.9452 16.9873 95.0538 17.0348 95.1374 17.1143C96.8251 18.7808 98.5083 20.4509 100.187 22.1247C101.744 23.6712 103.299 25.2191 104.853 26.7685C104.913 26.831 104.985 26.8797 105.065 26.9113C105.145 26.943 105.231 26.9568 105.316 26.9518C107.721 26.9518 109.292 26.9518 111.695 26.9518H112.689C112.689 26.9518 111.317 26.1342 110.655 24.0845C110.494 23.5634 110.381 23.0287 110.317 22.4869C110.192 21.2134 110.316 19.9276 110.682 18.7019C110.929 17.9057 111.249 17.1344 111.638 16.3978Z" fill="white"/>
<path d="M129.325 11.3196C129.384 11.2619 129.43 11.1926 129.461 11.1161C129.491 11.0397 129.506 10.9577 129.504 10.8752C129.504 7.61639 129.504 4.35759 129.504 1.09879C129.498 0.990715 129.485 0.88313 129.465 0.776611H123.754L123.722 0.835492C123.762 0.891039 123.798 0.946587 123.839 1.00325C124.121 1.37764 124.422 1.73981 124.682 2.12975C125.312 3.08051 125.712 4.16692 125.849 5.30153C125.91 5.90476 125.918 6.51222 125.872 7.11683C125.827 8.04003 125.522 8.89435 125.083 9.69868C124.708 10.3853 124.199 10.9629 123.667 11.5251C122.107 13.1693 120.549 14.8154 118.992 16.4633C118.281 17.2165 117.613 18.0064 117.089 18.9074C116.723 19.4987 116.515 20.174 116.482 20.8693C116.455 21.787 116.751 22.608 117.241 23.3668C117.324 23.4945 117.424 23.6123 117.525 23.7456C117.615 23.6612 117.676 23.6101 117.73 23.5523C118.514 22.7272 119.298 21.9014 120.08 21.0749L124.364 16.5533C126.018 14.8083 127.671 13.0638 129.325 11.3196Z" fill="white"/>
<path d="M122.92 26.9307H129.504V19.9739C127.311 22.2736 125.051 24.5688 122.877 26.8696L122.92 26.9307Z" fill="white"/>
<path d="M87.9771 30.2767H87.5245C87.5257 30.2011 87.5115 30.126 87.4828 30.0561C87.4542 29.9862 87.4116 29.9229 87.3578 29.8701C87.306 29.8156 87.2436 29.7725 87.1744 29.7434C87.1053 29.7143 87.0309 29.7 86.956 29.7013C86.8817 29.6997 86.8079 29.714 86.7394 29.7431C86.6709 29.7722 86.6093 29.8155 86.5586 29.8701C86.5059 29.9236 86.4643 29.9871 86.4363 30.0569C86.4082 30.1267 86.3943 30.2015 86.3952 30.2767C86.3949 30.3514 86.4093 30.4253 86.4375 30.4943C86.4658 30.5634 86.5073 30.626 86.5597 30.6788C86.6122 30.7316 86.6745 30.7734 86.7431 30.8018C86.8116 30.8303 86.8851 30.8447 86.9593 30.8444C87.2286 30.8459 87.4865 30.9541 87.677 31.1457C87.8675 31.3372 87.9753 31.5966 87.9771 31.8676C87.9788 32.0026 87.9536 32.1365 87.9029 32.2615C87.8523 32.3865 87.7773 32.5 87.6823 32.5953C87.5904 32.6939 87.479 32.7721 87.3552 32.8247C87.2314 32.8773 87.098 32.9033 86.9637 32.9008C86.829 32.9011 86.6956 32.8746 86.5711 32.8227C86.4467 32.7708 86.3337 32.6947 86.2387 32.5986C86.1436 32.5025 86.0684 32.3885 86.0174 32.263C85.9664 32.1376 85.9406 32.0032 85.9415 31.8676H86.393C86.3918 31.9435 86.406 32.0189 86.4349 32.089C86.4638 32.1591 86.5066 32.2225 86.5608 32.2754C86.6129 32.3295 86.6753 32.3723 86.7444 32.4014C86.8135 32.4304 86.8877 32.445 86.9626 32.4442C87.0369 32.4454 87.1106 32.431 87.179 32.4019C87.2474 32.3729 87.3091 32.3298 87.36 32.2754C87.4126 32.2217 87.4541 32.158 87.482 32.088C87.5099 32.018 87.5236 31.943 87.5223 31.8676C87.523 31.793 87.5089 31.719 87.4809 31.6499C87.4529 31.5809 87.4114 31.5181 87.359 31.4653C87.3066 31.4126 87.2442 31.3709 87.1756 31.3427C87.107 31.3145 87.0334 31.3003 86.9593 31.301C86.69 31.299 86.4323 31.1904 86.2418 30.9988C86.0514 30.8071 85.9435 30.5478 85.9415 30.2767C85.94 30.1421 85.9652 30.0085 86.0156 29.8837C86.066 29.759 86.1406 29.6456 86.2351 29.5502C86.3271 29.4513 86.4387 29.3729 86.5627 29.32C86.6866 29.2672 86.8203 29.2412 86.9549 29.2436C87.0894 29.2437 87.2227 29.2706 87.3469 29.3226C87.4711 29.3746 87.584 29.4508 87.6789 29.5468C87.7739 29.6427 87.8491 29.7566 87.9002 29.8819C87.9514 30.0071 87.9775 30.1413 87.9771 30.2767Z" fill="white"/>
<path d="M91.9799 32.7185H91.526V32.2741C91.282 32.5537 90.9591 32.7518 90.6003 32.8421C90.2415 32.9324 89.8639 32.9105 89.5178 32.7794C89.1716 32.6482 88.8735 32.4141 88.663 32.1082C88.4526 31.8023 88.3398 31.4391 88.3398 31.067C88.3398 30.695 88.4526 30.3318 88.663 30.0259C88.8735 29.72 89.1716 29.4858 89.5178 29.3547C89.8639 29.2236 90.2415 29.2017 90.6003 29.292C90.9591 29.3823 91.282 29.5804 91.526 29.86V29.4212H91.9799V32.7185ZM91.526 31.0754C91.5262 30.7576 91.4169 30.4497 91.2167 30.2039C91.0165 29.9582 90.7377 29.7899 90.428 29.7277C90.1182 29.6655 89.7966 29.7133 89.5179 29.863C89.2393 30.0126 89.0209 30.2548 88.8999 30.5483C88.7789 30.8418 88.7628 31.1685 88.8544 31.4725C88.946 31.7766 89.1396 32.0393 89.4023 32.2159C89.6649 32.3925 89.9802 32.472 90.2946 32.4408C90.6089 32.4097 90.9028 32.2699 91.1262 32.0452C91.2552 31.9197 91.3572 31.7688 91.426 31.602C91.4948 31.4352 91.5288 31.2559 91.526 31.0754Z" fill="white"/>
<path d="M95.5694 29.427L94.212 32.7187H93.7117L92.3477 29.427H92.8402L93.9668 32.1211L95.0823 29.427H95.5694Z" fill="white"/>
<path d="M99.185 31.0755H96.003C96.0027 31.3284 96.072 31.5765 96.2032 31.7923C96.3343 32.008 96.5223 32.1831 96.7463 32.2981C96.9702 32.4131 97.2214 32.4635 97.4721 32.4438C97.7228 32.4241 97.9632 32.335 98.1667 32.1864C98.3973 32.0206 98.5694 31.7852 98.6581 31.5143H99.1309C99.0347 31.9122 98.8079 32.2658 98.4873 32.518C98.1666 32.7702 97.7708 32.9062 97.3637 32.9041C97.004 32.9037 96.6525 32.796 96.3536 32.5946C96.0547 32.3932 95.8219 32.1072 95.6846 31.7728C95.5473 31.4383 95.5117 31.0705 95.5822 30.7156C95.6527 30.3608 95.8262 30.035 96.0808 29.7794C96.3354 29.5237 96.6597 29.3498 97.0125 29.2795C97.3654 29.2092 97.7311 29.2457 98.0633 29.3844C98.3955 29.5232 98.6794 29.7579 98.8791 30.0589C99.0787 30.3599 99.1852 30.7136 99.185 31.0755ZM98.6493 30.6189C98.5558 30.3519 98.3822 30.1208 98.1525 29.9572C97.9229 29.7937 97.6484 29.7059 97.367 29.7059C97.0856 29.7059 96.8112 29.7937 96.5815 29.9572C96.3519 30.1208 96.1783 30.3519 96.0847 30.6189H98.6493Z" fill="white"/>
<path d="M104.292 29.427L101.01 33.9986H100.449L101.367 32.7199V29.427H101.822V32.0866L103.731 29.427H104.292Z" fill="white"/>
<path d="M107.642 31.0757C107.642 31.4987 107.496 31.9087 107.229 32.2357C106.962 32.5627 106.591 32.7865 106.178 32.869C105.766 32.9515 105.338 32.8875 104.967 32.6881C104.596 32.4886 104.305 32.1659 104.144 31.7751C103.983 31.3842 103.962 30.9493 104.084 30.5445C104.206 30.1396 104.464 29.7899 104.814 29.5549C105.164 29.3199 105.584 29.2141 106.002 29.2557C106.421 29.2972 106.812 29.4834 107.109 29.7825C107.281 29.9501 107.417 30.1513 107.509 30.3737C107.6 30.5961 107.646 30.835 107.642 31.0757ZM107.187 31.0757C107.187 30.758 107.078 30.45 106.877 30.2042C106.677 29.9585 106.398 29.7902 106.089 29.728C105.779 29.6658 105.457 29.7137 105.179 29.8633C104.9 30.0129 104.682 30.2551 104.561 30.5486C104.44 30.8421 104.424 31.1688 104.515 31.4728C104.607 31.7769 104.8 32.0396 105.063 32.2162C105.326 32.3928 105.641 32.4723 105.955 32.4411C106.27 32.41 106.564 32.2702 106.787 32.0455C106.916 31.92 107.018 31.7691 107.087 31.6023C107.156 31.4355 107.19 31.2563 107.187 31.0757Z" fill="white"/>
<path d="M110.915 32.719H110.46V32.4968C110.254 32.6932 109.995 32.8245 109.715 32.8744C109.435 32.9244 109.147 32.8909 108.886 32.7781C108.625 32.6653 108.403 32.478 108.246 32.2395C108.09 32.001 108.006 31.7216 108.006 31.4359V29.425H108.46V31.4359C108.455 31.5708 108.478 31.7052 108.526 31.8312C108.574 31.9572 108.647 32.0721 108.741 32.1691C108.834 32.2661 108.946 32.3433 109.069 32.396C109.193 32.4487 109.326 32.4758 109.46 32.4758C109.594 32.4758 109.727 32.4487 109.85 32.396C109.974 32.3433 110.086 32.2661 110.179 32.1691C110.272 32.0721 110.345 31.9572 110.394 31.8312C110.442 31.7052 110.464 31.5708 110.46 31.4359V29.425H110.915V32.719Z" fill="white"/>
<path d="M112.47 29.8836H112.289C112.23 29.8833 112.17 29.895 112.115 29.9179C112.06 29.9408 112.009 29.9745 111.967 30.017C111.925 30.0596 111.891 30.1102 111.869 30.1658C111.846 30.2215 111.834 30.2812 111.835 30.3414V32.7188H111.381V29.427H111.835V29.5459C111.973 29.4667 112.13 29.4257 112.289 29.427H112.47V29.8836Z" fill="white"/>
<path d="M115.732 29.8836H115.369V32.7188H114.914V29.8836H114.551V29.427H114.914V28.5127H115.369V29.427H115.732V29.8836Z" fill="white"/>
<path d="M119.003 32.7188H118.548V30.8901C118.548 30.6235 118.443 30.3678 118.255 30.1792C118.068 29.9907 117.813 29.8847 117.548 29.8847C117.283 29.8847 117.029 29.9907 116.842 30.1792C116.654 30.3678 116.549 30.6235 116.549 30.8901V32.7188H116.094V28.5127H116.549V29.8292C116.755 29.6328 117.014 29.5016 117.294 29.4516C117.574 29.4016 117.862 29.4351 118.123 29.5479C118.384 29.6607 118.606 29.848 118.763 30.0865C118.919 30.325 119.002 30.6044 119.003 30.8901V32.7188Z" fill="white"/>
<path d="M119.823 29.0604H119.369V28.5127H119.823V29.0604ZM119.823 32.7188H119.369V29.427H119.823V32.7188Z" fill="white"/>
<path d="M123.096 32.7188H122.642V30.7068C122.646 30.5719 122.624 30.4375 122.575 30.3115C122.527 30.1855 122.454 30.0706 122.361 29.9736C122.267 29.8766 122.156 29.7994 122.032 29.7467C121.909 29.694 121.776 29.6669 121.642 29.6669C121.507 29.6669 121.374 29.694 121.251 29.7467C121.127 29.7994 121.016 29.8766 120.922 29.9736C120.829 30.0706 120.756 30.1855 120.708 30.3115C120.66 30.4375 120.637 30.5719 120.641 30.7068V32.7188H120.188V29.427H120.641V29.6492C120.848 29.4528 121.107 29.3216 121.387 29.2716C121.666 29.2216 121.954 29.2551 122.215 29.3679C122.476 29.4808 122.699 29.668 122.855 29.9065C123.012 30.145 123.095 30.4244 123.096 30.7102V32.7188Z" fill="white"/>
<path d="M127.095 32.2801C127.099 32.5103 127.053 32.7385 126.961 32.9493C126.869 33.1602 126.733 33.3487 126.563 33.5022C126.224 33.8278 125.772 34.0066 125.304 33.9999C124.499 33.9999 123.945 33.634 123.641 32.9023H124.096C124.213 33.1025 124.382 33.2675 124.585 33.38C124.787 33.4925 125.016 33.5485 125.248 33.5422C125.596 33.5454 125.934 33.4201 126.197 33.19C126.458 32.957 126.617 32.6301 126.639 32.2801C126.354 32.6949 125.9 32.9019 125.276 32.9011C124.972 32.9017 124.673 32.8255 124.406 32.6795C124.138 32.5336 123.912 32.3225 123.747 32.0657C123.581 31.8089 123.483 31.5145 123.46 31.2094C123.437 30.9044 123.491 30.5985 123.616 30.3198C123.741 30.041 123.934 29.7983 124.177 29.6138C124.419 29.4294 124.704 29.3091 125.005 29.2639C125.305 29.2188 125.613 29.2502 125.898 29.3554C126.184 29.4606 126.439 29.6362 126.639 29.866V29.4272H127.094L127.095 32.2801ZM126.64 31.0759C126.64 30.7581 126.531 30.4501 126.331 30.2044C126.131 29.9586 125.852 29.7904 125.542 29.7282C125.232 29.666 124.911 29.7138 124.632 29.8635C124.354 30.0131 124.135 30.2553 124.014 30.5488C123.893 30.8423 123.877 31.1689 123.969 31.473C124.06 31.7771 124.254 32.0398 124.516 32.2164C124.779 32.3929 125.094 32.4724 125.409 32.4413C125.723 32.4102 126.017 32.2704 126.24 32.0457C126.37 31.9203 126.472 31.7695 126.541 31.6026C126.609 31.4358 126.643 31.2565 126.64 31.0759Z" fill="white"/>
<path d="M129.502 30.2768H129.051C129.052 30.2011 129.038 30.1259 129.009 30.056C128.98 29.9861 128.937 29.9228 128.883 29.8701C128.831 29.8156 128.769 29.7725 128.7 29.7434C128.631 29.7144 128.556 29.7 128.481 29.7013C128.407 29.6997 128.333 29.714 128.265 29.7431C128.196 29.7722 128.135 29.8155 128.084 29.8701C128.031 29.9237 127.99 29.9872 127.962 30.057C127.934 30.1268 127.921 30.2015 127.922 30.2768C127.921 30.3514 127.935 30.4254 127.963 30.4944C127.991 30.5635 128.033 30.6263 128.085 30.6791C128.138 30.7319 128.2 30.7737 128.268 30.8021C128.337 30.8305 128.411 30.8449 128.485 30.8445C128.754 30.8459 129.012 30.9541 129.202 31.1457C129.393 31.3372 129.501 31.5966 129.502 31.8676C129.504 32.0025 129.479 32.1363 129.428 32.2612C129.378 32.3862 129.303 32.4998 129.209 32.5953C129.117 32.6939 129.005 32.772 128.881 32.8246C128.757 32.8772 128.624 32.9032 128.489 32.9008C128.354 32.901 128.221 32.8743 128.097 32.8224C127.972 32.7705 127.859 32.6943 127.764 32.5983C127.669 32.5023 127.594 32.3883 127.543 32.2629C127.492 32.1375 127.466 32.0032 127.467 31.8676H127.918C127.917 31.9435 127.931 32.0189 127.96 32.089C127.989 32.1591 128.032 32.2225 128.086 32.2754C128.138 32.3295 128.201 32.3723 128.27 32.4014C128.339 32.4304 128.413 32.445 128.488 32.4442C128.562 32.4455 128.636 32.4311 128.704 32.4021C128.773 32.373 128.834 32.3298 128.885 32.2754C128.938 32.2217 128.98 32.158 129.007 32.088C129.035 32.018 129.049 31.9431 129.048 31.8676C129.048 31.793 129.034 31.719 129.006 31.6499C128.978 31.5809 128.937 31.5181 128.884 31.4654C128.832 31.4126 128.77 31.3709 128.701 31.3427C128.632 31.3145 128.559 31.3003 128.485 31.3011C128.215 31.299 127.958 31.1905 127.767 30.9988C127.577 30.8071 127.469 30.5478 127.467 30.2768C127.465 30.142 127.491 30.0083 127.541 29.8835C127.592 29.7587 127.667 29.6454 127.762 29.5502C127.853 29.4512 127.965 29.3727 128.088 29.3199C128.212 29.2671 128.346 29.2411 128.48 29.2436C128.615 29.2437 128.748 29.2706 128.872 29.3226C128.997 29.3746 129.109 29.4508 129.204 29.5468C129.299 29.6427 129.374 29.7566 129.426 29.8819C129.477 30.0071 129.503 30.1413 129.502 30.2768Z" fill="white"/>
</svg>
