<svg width="66" height="64" viewBox="0 0 66 64" fill="none" xmlns="http://www.w3.org/2000/svg">
<path d="M66 26.666L57.646 45.332H55.062L58.166 38.8L52.666 26.664H55.384L59.364 35.966H59.416L63.27 26.664L66 26.666ZM31.292 32.438V40H28.666V21.334H35.614C37.2633 21.2888 38.8694 21.8649 40.114 22.948C41.344 23.958 42.02 25.386 42 26.896C42.0085 27.6559 41.8429 28.4077 41.516 29.0937C41.1891 29.7798 40.7095 30.3819 40.114 30.854C38.906 31.916 37.406 32.438 35.614 32.438H31.292ZM31.282 23.636V30.146H35.678C36.635 30.1803 37.567 29.8361 38.272 29.188C38.95 28.584 39.324 27.76 39.324 26.906C39.324 26.042 38.948 25.218 38.272 24.624C37.9268 24.2954 37.5197 24.0387 37.0744 23.8687C36.6291 23.6988 36.1544 23.619 35.678 23.634L31.282 23.636ZM47.26 26.666C48.926 26.666 50.25 27.134 51.218 28.062C52.186 28.99 52.666 30.26 52.666 31.874V39.592H50.5V37.852H50.406C49.468 39.28 48.228 39.998 46.676 39.998C45.342 39.998 44.238 39.592 43.342 38.768C42.9097 38.3853 42.5656 37.9134 42.3336 37.3847C42.1015 36.856 41.987 36.2833 41.998 35.706C41.998 34.414 42.466 33.384 43.414 32.612C44.352 31.852 45.612 31.466 47.184 31.466C48.528 31.466 49.632 31.726 50.496 32.236V31.694C50.4988 31.3006 50.4175 30.9111 50.2574 30.5516C50.0974 30.1922 49.8623 29.8712 49.568 29.61C48.9753 29.0552 48.1919 28.7494 47.38 28.756C46.12 28.756 45.12 29.308 44.38 30.412L42.39 29.12C43.484 27.484 45.108 26.662 47.254 26.662L47.26 26.666ZM44.334 35.76C44.3296 36.0564 44.3952 36.3496 44.5255 36.6159C44.6558 36.8821 44.8472 37.1138 45.084 37.292C45.584 37.698 46.21 37.918 46.844 37.906C47.792 37.906 48.708 37.51 49.386 36.812C50.104 36.146 50.512 35.208 50.512 34.228C49.804 33.644 48.824 33.352 47.564 33.352C46.636 33.352 45.876 33.582 45.262 34.04C44.648 34.508 44.334 35.074 44.334 35.76Z" fill="#627377"/>
<path d="M23.6229 28.8784H22.7503V28.8334H13.0003V33.1667H19.1228C18.2296 35.6893 15.8294 37.5001 13.0003 37.5001C9.4107 37.5001 6.50033 34.5897 6.50033 31.0001C6.50033 27.4105 9.4107 24.5001 13.0003 24.5001C14.6573 24.5001 16.1647 25.1252 17.3125 26.1462L20.3767 23.082C18.4419 21.2788 15.8538 20.1667 13.0003 20.1667C7.01762 20.1667 2.16699 25.0174 2.16699 31.0001C2.16699 36.9828 7.01762 41.8334 13.0003 41.8334C18.983 41.8334 23.8337 36.9828 23.8337 31.0001C23.8337 30.2737 23.7589 29.5647 23.6229 28.8784Z" fill="#FFC107"/>
<path d="M3.41699 25.9577L6.97628 28.568C7.93937 26.1836 10.2718 24.5001 13.0012 24.5001C14.6582 24.5001 16.1657 25.1252 17.3135 26.1462L20.3777 23.082C18.4428 21.2788 15.8547 20.1667 13.0012 20.1667C8.84016 20.1667 5.23158 22.516 3.41699 25.9577Z" fill="#FF3D00"/>
<path d="M12.9989 41.8332C15.7971 41.8332 18.3397 40.7623 20.2621 39.0209L16.9092 36.1836C15.785 37.0386 14.4112 37.501 12.9989 37.4999C10.1811 37.4999 7.78858 35.7032 6.88724 33.1958L3.35449 35.9177C5.14741 39.426 8.78849 41.8332 12.9989 41.8332Z" fill="#4CAF50"/>
<path d="M23.6226 28.8782H22.75V28.8333H13V33.1666H19.1225C18.6952 34.3671 17.9256 35.4162 16.9087 36.1842L16.9103 36.1831L20.2632 39.0204C20.026 39.236 23.8333 36.4166 23.8333 30.9999C23.8333 30.2735 23.7586 29.5645 23.6226 28.8782Z" fill="#1976D2"/>
</svg>
