<svg width="166" height="34" viewBox="0 0 166 34" fill="none" xmlns="http://www.w3.org/2000/svg">
<path d="M12.7959 27.3784C5.68644 27.3784 0.164062 21.3659 0.164062 13.6892C0.164062 6.01249 5.68644 0 12.7959 0C18.6983 0 23.0587 3.3662 24.6757 8.73545H19.3002C18.1339 6.35356 15.8034 4.57603 12.7959 4.57603C8.51058 4.57603 5.12647 8.73545 5.12647 13.6859C5.12647 18.6774 8.51058 22.8368 12.7959 22.8368C15.7659 22.8368 18.1339 20.9837 19.3002 18.6018H24.6381C22.9836 23.9367 18.5856 27.3784 12.7959 27.3784Z" fill="#0092D2"/>
<path d="M32.9472 22.2735H45.5868V26.924H27.9473V0.68103H32.9472V22.2735Z" fill="#0092D2"/>
<path d="M54.0386 26.924H49.0762V0.68103H54.0386V26.924Z" fill="#0092D2"/>
<path d="M70.3905 27.3784C63.2854 27.3784 57.7598 21.3659 57.7598 13.6892C57.7598 6.01249 63.2821 0 70.3905 0C76.2928 0 80.6544 3.3662 82.2713 8.73545H76.8947C75.7295 6.35356 73.398 4.57603 70.3905 4.57603C66.1052 4.57603 62.7222 8.73545 62.7222 13.6859C62.7222 18.6774 66.1052 22.8368 70.3905 22.8368C73.3604 22.8368 75.7295 20.9837 76.8947 18.6018H82.2326C80.5792 23.9367 76.1801 27.3784 70.3905 27.3784Z" fill="#0092D2"/>
<path d="M139.521 26.924H134.559V0.68103H139.521V26.924Z" fill="#2F2B58"/>
<path d="M154.066 26.924H144.406V0.68103H154.068C161.323 0.68103 165.835 5.71032 165.835 13.8025C165.833 21.8192 161.209 26.924 154.066 26.924ZM154.066 5.3326H149.366V22.2735H154.066C159.968 22.2735 160.871 16.941 160.871 13.7647C160.871 9.90751 159.668 5.3326 154.066 5.3326Z" fill="#2F2B58"/>
<path d="M111.802 16.3978C112.471 15.138 113.295 13.9678 114.254 12.9149C115.424 11.6273 116.63 10.3708 117.822 9.10434C118.47 8.41444 119.135 7.7412 119.771 7.04018C120.194 6.57358 120.223 6.17253 119.94 5.64149C119.567 4.91111 118.946 4.34036 118.188 4.03394C117.897 3.91507 117.585 3.86174 117.305 4.04394C117.117 4.16141 116.944 4.3013 116.79 4.46055C114.488 6.87798 112.189 9.29876 109.893 11.7229C108.766 12.9079 107.638 14.0955 106.51 15.2857C105.695 16.1471 104.881 17.0088 104.069 17.8709C103.996 17.9487 103.915 18.0198 103.823 18.1086L99.5659 13.8792C99.6498 13.7837 99.715 13.7059 99.7868 13.6315L103.531 9.68981C105.053 8.08856 106.574 6.48767 108.096 4.88715C109.322 3.59622 110.547 2.30344 111.77 1.00881C111.826 0.941819 111.878 0.87091 111.924 0.796614L111.892 0.745511H111.588C109.048 0.745511 107.905 0.745511 105.37 0.739956C105.269 0.73455 105.168 0.752463 105.075 0.792323C104.982 0.832184 104.899 0.892935 104.833 0.969923C103.38 2.52526 101.922 4.0806 100.46 5.63594C98.8877 7.31052 97.3153 8.98473 95.7433 10.6586C95.6985 10.7126 95.6419 10.7554 95.5779 10.7838C95.5139 10.8121 95.4442 10.8252 95.3744 10.8219C94.3097 10.8163 92.6927 10.8219 91.628 10.8219C91.5507 10.8219 91.4734 10.813 91.374 10.8063C91.3673 10.6819 91.3563 10.573 91.3563 10.4642C91.3563 7.48235 91.3563 4.50054 91.3563 1.51874C91.3563 1.34209 91.3563 1.16656 91.3685 0.991031C91.3806 0.8155 91.2934 0.74551 91.11 0.746621C89.2744 0.752176 88.2737 0.746621 86.4381 0.753287C86.3276 0.753287 86.2172 0.762174 86.0957 0.76884V26.9396C86.2062 26.9452 86.2912 26.953 86.3773 26.953H91.0261C91.0736 26.953 91.1211 26.953 91.1696 26.953C91.1935 26.9562 91.2178 26.954 91.2408 26.9466C91.2637 26.9391 91.2846 26.9265 91.3021 26.9097C91.3195 26.8929 91.3329 26.8724 91.3413 26.8497C91.3498 26.827 91.353 26.8027 91.3508 26.7785C91.3508 26.6908 91.3508 26.603 91.3508 26.5152V17.0021C91.4535 16.991 91.5076 16.9799 91.5617 16.9799C92.706 16.9799 93.8502 16.9799 94.9944 16.9799C95.1093 16.9873 95.2179 17.0348 95.3015 17.1143C96.9891 18.7808 98.6723 20.4509 100.351 22.1247C101.908 23.6712 103.463 25.2191 105.018 26.7685C105.077 26.831 105.149 26.8797 105.229 26.9113C105.309 26.943 105.395 26.9568 105.48 26.9518C107.885 26.9518 109.456 26.9518 111.859 26.9518H112.853C112.853 26.9518 111.481 26.1342 110.819 24.0845C110.659 23.5634 110.545 23.0287 110.481 22.4869C110.356 21.2134 110.48 19.9276 110.846 18.7019C111.093 17.9057 111.413 17.1344 111.802 16.3978Z" fill="#0092D2"/>
<path d="M129.489 11.3196C129.548 11.2619 129.594 11.1926 129.625 11.1161C129.655 11.0397 129.67 10.9577 129.668 10.8752C129.668 7.61639 129.668 4.35759 129.668 1.09879C129.662 0.990715 129.649 0.88313 129.629 0.776611H123.918L123.886 0.835492C123.926 0.891039 123.962 0.946587 124.003 1.00325C124.285 1.37764 124.586 1.73981 124.846 2.12975C125.477 3.08051 125.876 4.16692 126.013 5.30153C126.074 5.90476 126.082 6.51222 126.037 7.11683C125.991 8.04003 125.686 8.89435 125.247 9.69868C124.872 10.3853 124.363 10.9629 123.831 11.5251C122.271 13.1693 120.713 14.8154 119.156 16.4633C118.445 17.2165 117.777 18.0064 117.253 18.9074C116.888 19.4987 116.679 20.174 116.646 20.8693C116.619 21.787 116.915 22.608 117.405 23.3668C117.488 23.4945 117.588 23.6123 117.689 23.7456C117.779 23.6612 117.84 23.6101 117.894 23.5523C118.679 22.7272 119.462 21.9014 120.244 21.0749L124.528 16.5533C126.182 14.8083 127.835 13.0638 129.489 11.3196Z" fill="#FCB319"/>
<path d="M123.084 26.9307H129.668V19.9739C127.475 22.2736 125.215 24.5688 123.041 26.8696L123.084 26.9307Z" fill="#FCB319"/>
<path d="M88.1411 30.2769H87.6885C87.6897 30.2012 87.6756 30.1262 87.6469 30.0563C87.6182 29.9863 87.5757 29.923 87.5219 29.8703C87.4701 29.8157 87.4076 29.7726 87.3385 29.7435C87.2693 29.7145 87.195 29.7001 87.12 29.7014C87.0457 29.6998 86.9719 29.7141 86.9034 29.7432C86.835 29.7723 86.7733 29.8156 86.7226 29.8703C86.6699 29.9237 86.6284 29.9872 86.6003 30.057C86.5723 30.1269 86.5583 30.2016 86.5592 30.2769C86.5589 30.3515 86.5733 30.4255 86.6016 30.4945C86.6298 30.5635 86.6714 30.6262 86.7238 30.6789C86.7762 30.7317 86.8386 30.7735 86.9071 30.802C86.9757 30.8304 87.0492 30.8449 87.1233 30.8446C87.3926 30.846 87.6505 30.9543 87.841 31.1458C88.0316 31.3373 88.1394 31.5967 88.1411 31.8678C88.1428 32.0027 88.1176 32.1366 88.067 32.2616C88.0164 32.3866 87.9414 32.5001 87.8464 32.5954C87.7545 32.6941 87.643 32.7722 87.5193 32.8248C87.3955 32.8775 87.2621 32.9034 87.1278 32.9009C86.9931 32.9012 86.8596 32.8747 86.7352 32.8228C86.6108 32.7709 86.4978 32.6948 86.4027 32.5987C86.3077 32.5027 86.2325 32.3886 86.1815 32.2632C86.1305 32.1377 86.1047 32.0033 86.1055 31.8678H86.557C86.5558 31.9437 86.5701 32.019 86.599 32.0891C86.6278 32.1592 86.6707 32.2227 86.7248 32.2755C86.7769 32.3296 86.8394 32.3724 86.9085 32.4015C86.9776 32.4305 87.0518 32.4451 87.1267 32.4443C87.2009 32.4455 87.2746 32.4311 87.343 32.4021C87.4115 32.373 87.4731 32.3299 87.5241 32.2755C87.5767 32.2218 87.6182 32.1581 87.6461 32.0881C87.6739 32.0181 87.6876 31.9432 87.6863 31.8678C87.6871 31.7931 87.673 31.7191 87.645 31.6501C87.6169 31.581 87.5755 31.5182 87.5231 31.4655C87.4707 31.4127 87.4083 31.371 87.3397 31.3428C87.271 31.3146 87.1975 31.3004 87.1233 31.3012C86.854 31.2991 86.5963 31.1906 86.4059 30.9989C86.2154 30.8073 86.1076 30.5479 86.1055 30.2769C86.104 30.1422 86.1292 30.0086 86.1797 29.8838C86.2301 29.7591 86.3047 29.6457 86.3992 29.5503C86.4912 29.4514 86.6028 29.373 86.7267 29.3202C86.8507 29.2674 86.9843 29.2413 87.1189 29.2437C87.2535 29.2438 87.3867 29.2707 87.511 29.3227C87.6352 29.3747 87.748 29.4509 87.843 29.5469C87.9379 29.6429 88.0131 29.7567 88.0643 29.882C88.1155 30.0073 88.1416 30.1414 88.1411 30.2769Z" fill="#A3A5A8"/>
<path d="M92.144 32.7186H91.6901V32.2742C91.4461 32.5538 91.1232 32.752 90.7644 32.8422C90.4056 32.9325 90.0279 32.9106 89.6818 32.7795C89.3357 32.6484 89.0375 32.4142 88.8271 32.1083C88.6166 31.8024 88.5039 31.4392 88.5039 31.0672C88.5039 30.6951 88.6166 30.332 88.8271 30.026C89.0375 29.7201 89.3357 29.486 89.6818 29.3548C90.0279 29.2237 90.4056 29.2018 90.7644 29.2921C91.1232 29.3824 91.4461 29.5805 91.6901 29.8601V29.4213H92.144V32.7186ZM91.6901 31.0755C91.6903 30.7578 91.581 30.4498 91.3808 30.204C91.1806 29.9583 90.9018 29.79 90.592 29.7278C90.2823 29.6657 89.9607 29.7135 89.682 29.8631C89.4034 30.0128 89.1849 30.255 89.0639 30.5485C88.9429 30.842 88.9269 31.1686 89.0185 31.4727C89.1101 31.7767 89.3037 32.0394 89.5663 32.216C89.8289 32.3926 90.1443 32.4721 90.4586 32.441C90.773 32.4098 91.0669 32.27 91.2902 32.0454C91.4193 31.9198 91.5213 31.7689 91.5901 31.6021C91.6588 31.4353 91.6929 31.2561 91.6901 31.0755Z" fill="#A3A5A8"/>
<path d="M95.7335 29.427L94.3761 32.7187H93.8757L92.5117 29.427H93.0043L94.1309 32.1211L95.2464 29.427H95.7335Z" fill="#A3A5A8"/>
<path d="M99.349 31.0756H96.1671C96.1668 31.3285 96.2361 31.5766 96.3672 31.7924C96.4984 32.0082 96.6864 32.1832 96.9103 32.2982C97.1343 32.4132 97.3855 32.4637 97.6362 32.444C97.8869 32.4242 98.1272 32.3352 98.3307 32.1866C98.5613 32.0207 98.7335 31.7853 98.8222 31.5144H99.2949C99.1988 31.9123 98.972 32.2659 98.6513 32.5181C98.3307 32.7703 97.9348 32.9063 97.5278 32.9042C97.1681 32.9038 96.8165 32.7961 96.5177 32.5947C96.2188 32.3933 95.986 32.1074 95.8487 31.7729C95.7114 31.4385 95.6757 31.0706 95.7462 30.7158C95.8168 30.3609 95.9903 30.0351 96.2449 29.7795C96.4995 29.5239 96.8237 29.3499 97.1766 29.2796C97.5295 29.2093 97.8951 29.2458 98.2274 29.3846C98.5596 29.5233 98.8435 29.758 99.0432 30.059C99.2428 30.36 99.3493 30.7138 99.349 31.0756ZM98.8134 30.619C98.7198 30.3521 98.5463 30.1209 98.3166 29.9574C98.0869 29.7938 97.8125 29.706 97.5311 29.706C97.2497 29.706 96.9753 29.7938 96.7456 29.9574C96.5159 30.1209 96.3423 30.3521 96.2488 30.619H98.8134Z" fill="#A3A5A8"/>
<path d="M104.456 29.427L101.174 33.9986H100.613L101.531 32.7199V29.427H101.986V32.0866L103.895 29.427H104.456Z" fill="#A3A5A8"/>
<path d="M107.806 31.0757C107.806 31.4987 107.66 31.9087 107.393 32.2357C107.126 32.5627 106.755 32.7865 106.342 32.869C105.93 32.9515 105.502 32.8875 105.131 32.6881C104.76 32.4886 104.469 32.1659 104.308 31.7751C104.147 31.3842 104.126 30.9493 104.248 30.5445C104.37 30.1396 104.628 29.7899 104.978 29.5549C105.328 29.3199 105.748 29.2141 106.166 29.2557C106.585 29.2972 106.976 29.4834 107.273 29.7825C107.445 29.9501 107.581 30.1513 107.673 30.3737C107.764 30.5961 107.81 30.835 107.806 31.0757ZM107.351 31.0757C107.351 30.758 107.242 30.45 107.042 30.2042C106.841 29.9585 106.563 29.7902 106.253 29.728C105.943 29.6658 105.621 29.7137 105.343 29.8633C105.064 30.0129 104.846 30.2551 104.725 30.5486C104.604 30.8421 104.588 31.1688 104.679 31.4728C104.771 31.7769 104.964 32.0396 105.227 32.2162C105.49 32.3928 105.805 32.4723 106.119 32.4411C106.434 32.41 106.728 32.2702 106.951 32.0455C107.08 31.92 107.182 31.7691 107.251 31.6023C107.32 31.4355 107.354 31.2563 107.351 31.0757Z" fill="#A3A5A8"/>
<path d="M111.079 32.7189H110.624V32.4967C110.418 32.6931 110.159 32.8243 109.879 32.8743C109.599 32.9243 109.311 32.8908 109.05 32.778C108.789 32.6651 108.567 32.4779 108.41 32.2394C108.254 32.0009 108.17 31.7215 108.17 31.4357V29.4249H108.624V31.4357C108.619 31.5707 108.642 31.7051 108.69 31.8311C108.738 31.957 108.811 32.072 108.905 32.169C108.998 32.266 109.11 32.3432 109.233 32.3959C109.357 32.4486 109.49 32.4757 109.624 32.4757C109.758 32.4757 109.891 32.4486 110.015 32.3959C110.138 32.3432 110.25 32.266 110.343 32.169C110.436 32.072 110.509 31.957 110.558 31.8311C110.606 31.7051 110.628 31.5707 110.624 31.4357V29.4249H111.079V32.7189Z" fill="#A3A5A8"/>
<path d="M112.634 29.8836H112.453C112.394 29.8833 112.334 29.895 112.279 29.9179C112.224 29.9408 112.173 29.9745 112.131 30.017C112.089 30.0596 112.055 30.1102 112.033 30.1658C112.01 30.2215 111.998 30.2812 111.999 30.3414V32.7188H111.545V29.427H111.999V29.5459C112.137 29.4667 112.294 29.4257 112.453 29.427H112.634V29.8836Z" fill="#A3A5A8"/>
<path d="M115.896 29.8836H115.533V32.7188H115.078V29.8836H114.715V29.427H115.078V28.5127H115.533V29.427H115.896V29.8836Z" fill="#A3A5A8"/>
<path d="M119.167 32.7188H118.712V30.8901C118.712 30.6235 118.607 30.3678 118.419 30.1792C118.232 29.9907 117.977 29.8847 117.712 29.8847C117.447 29.8847 117.193 29.9907 117.006 30.1792C116.818 30.3678 116.713 30.6235 116.713 30.8901V32.7188H116.258V28.5127H116.713V29.8292C116.919 29.6328 117.178 29.5016 117.458 29.4516C117.738 29.4016 118.026 29.4351 118.287 29.5479C118.548 29.6607 118.77 29.848 118.927 30.0865C119.083 30.325 119.167 30.6044 119.167 30.8901V32.7188Z" fill="#A3A5A8"/>
<path d="M119.987 29.0604H119.533V28.5127H119.987V29.0604ZM119.987 32.7188H119.533V29.427H119.987V32.7188Z" fill="#A3A5A8"/>
<path d="M123.26 32.7188H122.806V30.7068C122.81 30.5719 122.788 30.4375 122.739 30.3115C122.691 30.1855 122.618 30.0706 122.525 29.9736C122.432 29.8766 122.32 29.7994 122.196 29.7467C122.073 29.694 121.94 29.6669 121.806 29.6669C121.671 29.6669 121.539 29.694 121.415 29.7467C121.291 29.7994 121.18 29.8766 121.086 29.9736C120.993 30.0706 120.92 30.1855 120.872 30.3115C120.824 30.4375 120.801 30.5719 120.805 30.7068V32.7188H120.352V29.427H120.805V29.6492C121.012 29.4528 121.271 29.3216 121.551 29.2716C121.83 29.2216 122.118 29.2551 122.379 29.3679C122.64 29.4808 122.863 29.668 123.019 29.9065C123.176 30.145 123.259 30.4244 123.26 30.7102V32.7188Z" fill="#A3A5A8"/>
<path d="M127.259 32.28C127.263 32.5102 127.217 32.7384 127.125 32.9492C127.033 33.16 126.898 33.3486 126.727 33.502C126.388 33.8277 125.936 34.0065 125.468 33.9998C124.663 33.9998 124.109 33.6339 123.805 32.9021H124.26C124.377 33.1024 124.546 33.2673 124.749 33.3798C124.952 33.4924 125.18 33.5484 125.412 33.542C125.76 33.5453 126.098 33.42 126.361 33.1899C126.622 32.9568 126.781 32.6299 126.803 32.28C126.518 32.6948 126.064 32.9018 125.44 32.901C125.136 32.9016 124.837 32.8254 124.57 32.6794C124.302 32.5335 124.076 32.3224 123.911 32.0656C123.745 31.8087 123.647 31.5143 123.624 31.2093C123.601 30.9043 123.655 30.5984 123.78 30.3197C123.905 30.0409 124.098 29.7982 124.341 29.6137C124.583 29.4293 124.868 29.3089 125.169 29.2638C125.47 29.2187 125.777 29.2501 126.062 29.3553C126.348 29.4605 126.603 29.6361 126.803 29.8659V29.4271H127.258L127.259 32.28ZM126.804 31.0757C126.805 30.758 126.695 30.45 126.495 30.2043C126.295 29.9585 126.016 29.7902 125.706 29.7281C125.397 29.6659 125.075 29.7137 124.796 29.8633C124.518 30.013 124.299 30.2552 124.178 30.5487C124.057 30.8422 124.041 31.1688 124.133 31.4729C124.224 31.777 124.418 32.0397 124.681 32.2162C124.943 32.3928 125.259 32.4723 125.573 32.4412C125.887 32.4101 126.181 32.2703 126.404 32.0456C126.534 31.9202 126.636 31.7693 126.705 31.6025C126.773 31.4356 126.807 31.2563 126.804 31.0757Z" fill="#A3A5A8"/>
<path d="M129.667 30.2769H129.215C129.216 30.2012 129.202 30.1261 129.173 30.0561C129.144 29.9862 129.101 29.923 129.047 29.8703C128.995 29.8157 128.933 29.7726 128.864 29.7435C128.795 29.7145 128.72 29.7001 128.645 29.7014C128.571 29.6999 128.497 29.7141 128.429 29.7432C128.36 29.7723 128.299 29.8156 128.248 29.8703C128.195 29.9238 128.154 29.9873 128.126 30.0572C128.098 30.127 128.085 30.2017 128.086 30.2769C128.085 30.3515 128.099 30.4255 128.127 30.4946C128.155 30.5636 128.197 30.6264 128.249 30.6792C128.302 30.732 128.364 30.7739 128.433 30.8022C128.501 30.8306 128.575 30.845 128.649 30.8446C128.918 30.846 129.176 30.9543 129.366 31.1458C129.557 31.3373 129.665 31.5967 129.667 31.8678C129.668 32.0026 129.643 32.1364 129.593 32.2614C129.542 32.3863 129.467 32.4999 129.373 32.5954C129.281 32.694 129.169 32.7721 129.045 32.8247C128.921 32.8773 128.788 32.9033 128.653 32.901C128.518 32.9011 128.385 32.8744 128.261 32.8225C128.136 32.7706 128.023 32.6944 127.928 32.5984C127.833 32.5024 127.758 32.3884 127.707 32.263C127.656 32.1376 127.63 32.0033 127.631 31.8678H128.082C128.081 31.9437 128.096 32.019 128.124 32.0891C128.153 32.1592 128.196 32.2227 128.25 32.2755C128.302 32.3296 128.365 32.3725 128.434 32.4015C128.503 32.4305 128.577 32.4451 128.652 32.4444C128.726 32.4456 128.8 32.4313 128.868 32.4022C128.937 32.3731 128.999 32.3299 129.049 32.2755C129.102 32.2218 129.144 32.1581 129.171 32.0881C129.199 32.0181 129.213 31.9432 129.212 31.8678C129.212 31.7932 129.198 31.7191 129.17 31.6501C129.142 31.581 129.101 31.5182 129.048 31.4655C128.996 31.4127 128.934 31.371 128.865 31.3428C128.796 31.3146 128.723 31.3004 128.649 31.3012C128.379 31.2991 128.122 31.1906 127.931 30.9989C127.741 30.8073 127.633 30.5479 127.631 30.2769C127.629 30.1421 127.655 30.0084 127.705 29.8836C127.756 29.7588 127.831 29.6455 127.926 29.5503C128.017 29.4513 128.129 29.3729 128.253 29.32C128.376 29.2672 128.51 29.2412 128.644 29.2437C128.779 29.2438 128.912 29.2707 129.036 29.3227C129.161 29.3748 129.273 29.4509 129.368 29.5469C129.463 29.6429 129.539 29.7567 129.59 29.882C129.641 30.0073 129.667 30.1415 129.667 30.2769Z" fill="#A3A5A8"/>
</svg>
