<svg width="97" height="34" viewBox="0 0 97 34" fill="none" xmlns="http://www.w3.org/2000/svg">
<path d="M31.1971 0V0.00640484L28.2031 3.00814V0H25.2081L20.2178 5.00325V18.0125H22.2141V6.00454L26.2068 2.00151V18.0125H28.2031V6.00454L32.1948 2.00151V18.0125H34.1911V0H31.1971Z" fill="#2F444E"/>
<path d="M6.16513 2.00246V16.0111H2.16513V6.00418L6.16513 2.00246ZM0.164062 18.0125H8.16406V0H5.1646L0.164062 5.00402V18.0125Z" fill="#2F444E"/>
<path d="M12.1904 2.00246H16.1894V16.0111H12.1894L12.1904 2.00246ZM18.1904 0H10.1904V18.0125H18.1904V0Z" fill="#2F444E"/>
<path d="M34.1907 20.0376H0.164062V21.9561H34.1907V20.0376Z" fill="#2F444E"/>
<path d="M12.1414 29.9925H2.16117V25.985H12.1414V29.9925ZM0.164062 23.9812V34H2.16117V31.9963H14.1374V23.9812H0.164062Z" fill="#2F444E"/>
<path d="M32.1878 29.9925H26.1799V25.985H32.1878V29.9925ZM18.167 25.985H24.1759V29.9925H18.1681L18.167 25.985ZM16.1641 23.9812V31.9963H24.1759V34H26.1789V31.9963H34.1907V23.9812H16.1641Z" fill="#2F444E"/>
<path d="M65.7514 18.4636H63.9983V20.9289H65.7514C66.5325 20.9289 66.9998 20.4375 66.9998 19.6957C66.9998 18.9539 66.5325 18.4636 65.7514 18.4636ZM65.8389 22.4869H62.2441V13.536H68.1853V15.095H63.9983V16.9056H65.8379C67.6422 16.9056 68.7508 18.0634 68.7508 19.6978C68.7508 21.3322 67.6518 22.489 65.8379 22.489" fill="#2F444E"/>
<path d="M74.1733 16.1775L73.0281 19.4336H75.2807L74.1733 16.1775ZM76.288 22.489L75.7493 20.9056H72.5282L71.9799 22.489H70.1377L73.4353 13.536H74.8272L78.1377 22.489H76.288Z" fill="#2F444E"/>
<path d="M84.715 22.489V18.7416H81.694V22.489H79.9512V13.536H81.694V17.1943H84.715V13.536H86.4578V22.489H84.715Z" fill="#2F444E"/>
<path d="M89.2305 22.489V13.536H90.9801V17.7865L93.8772 13.536H95.9689L92.9588 17.7366L96.2704 22.489H94.1298L90.9801 17.8109V22.489H89.2305Z" fill="#2F444E"/>
<path d="M50.1904 0H48.2705V34H50.1904V0Z" fill="#8BC540"/>
</svg>
