<svg width="100" height="100" viewBox="0 0 100 100" fill="none" xmlns="http://www.w3.org/2000/svg">
<path d="M69.7984 42.0834H29.1992V65.0975H43.1554L61.0754 67.7862L65.042 75.3595L69.7984 73.8968V42.0834Z" fill="#8BC540"/>
<path d="M16.1499 86.5826C17.7514 86.5826 19.0498 85.2545 19.0498 83.6161C19.0498 81.9777 17.7514 80.6495 16.1499 80.6495C14.5483 80.6495 13.25 81.9777 13.25 83.6161C13.25 85.2545 14.5483 86.5826 16.1499 86.5826Z" fill="#8BC540"/>
<path d="M20.4988 83.6161C20.4988 81.1581 18.5515 79.1661 16.1488 79.1661C13.7461 79.1661 11.7988 81.1581 11.7988 83.6161C11.7988 86.0738 13.7461 88.066 16.1488 88.066C18.5515 88.066 20.4988 86.0738 20.4988 83.6161ZM14.6989 83.6161C14.6989 82.7973 15.3485 82.1328 16.1488 82.1328C16.9492 82.1328 17.5988 82.7973 17.5988 83.6161C17.5988 84.4348 16.9492 85.0993 16.1488 85.0993C15.3485 85.0993 14.6989 84.4364 14.6989 83.6161Z" fill="#627377"/>
<path d="M91.5484 5.00186H59.649C59.1922 5.00186 58.763 5.22141 58.4889 5.59514L50.2241 16.8682H45.1492C39.5437 16.8682 34.9995 21.5169 34.9995 27.2513C34.9995 32.9857 39.5437 37.6344 45.1492 37.6344H76.3237C79.1266 37.6344 81.3986 39.9588 81.3986 42.8259C81.3986 45.693 79.1264 48.0175 76.3237 48.0175H71.2489V42.0842C71.2489 41.2655 70.5992 40.6009 69.7989 40.6009H29.1996C28.3992 40.6009 27.7496 41.2655 27.7496 42.0842V64.3338C26.6259 64.7359 25.5355 65.2313 24.4915 65.8171H6V68.7836H23.3996V91.0336H6V94.0001H60.9424C62.2561 94.0001 63.5466 93.6337 64.6732 92.9425L89.5968 77.6452C92.9144 75.61 93.9917 71.2076 92.0009 67.8138C90.7351 65.6556 88.4543 64.334 85.9936 64.334H85.6878C84.5379 64.334 83.4069 64.6248 82.392 65.1765L71.2489 71.2567V50.9842H76.3237C80.7288 50.9842 84.2987 47.3322 84.2987 42.8259C84.2987 38.3196 80.7288 34.6677 76.3237 34.6677H45.1492C41.1459 34.6677 37.8994 31.3465 37.8994 27.2511C37.8994 23.1557 41.1459 19.8346 45.1492 19.8346H50.2241L58.4889 31.1077C58.763 31.4814 59.1922 31.7009 59.649 31.7009H91.5484C92.3487 31.7009 92.9983 31.0364 92.9983 30.2177V6.48513C92.9983 5.66623 92.3489 5.00186 91.5484 5.00186ZM46.5992 43.5678H52.3991V49.5009H46.5992V43.5678ZM30.6495 43.5678H43.6993V50.9843C43.6993 51.8031 44.3489 52.4676 45.1492 52.4676H53.8491C54.6494 52.4676 55.299 51.8031 55.299 50.9843V43.5678H68.3488V72.8378L65.9738 74.1326C66.8598 70.5594 64.7456 66.9282 61.2527 66.022C60.7292 65.8869 60.1898 65.8172 59.649 65.8172H45.5277C40.9863 63.2853 35.7186 62.4695 30.6495 63.5151V43.5678ZM83.7563 67.7945C84.3508 67.4712 85.0134 67.3005 85.6876 67.3005H85.9935C88.2612 67.3005 90.0983 69.1813 90.0983 71.4997C90.0983 72.9756 89.3414 74.3431 88.1046 75.1012L63.181 90.3986C62.5054 90.8139 61.731 91.0334 60.9423 91.0334H26.2997V68.1905C32.0228 65.1956 38.8346 65.3484 44.4244 68.5955C44.6463 68.7231 44.8956 68.7869 45.1494 68.784H59.6492C61.6515 68.784 63.2741 70.4438 63.2741 72.4922C63.2741 74.5406 61.6515 76.2005 59.6492 76.2005H46.5994C45.799 76.2005 45.1494 76.865 45.1494 77.6838C45.1494 78.5025 45.799 79.167 46.5994 79.167H62.549C62.7868 79.167 63.0218 79.1078 63.232 78.9936L83.7563 67.7945ZM90.0984 28.7347H60.374L53.8492 19.8349H57.0159C57.8162 22.1519 60.3015 23.3668 62.5664 22.5465C64.8313 21.7277 66.0188 19.1853 65.217 16.8684C64.4166 14.5514 61.9314 13.3366 59.6665 14.1568C58.4283 14.6048 57.4538 15.6015 57.0159 16.8684H53.8492L60.374 7.96858H90.0984V28.7347ZM59.649 18.3515C59.649 17.5328 60.2986 16.8682 61.0989 16.8682C61.8993 16.8682 62.5489 17.5328 62.5489 18.3515C62.5489 19.1702 61.8993 19.8348 61.0989 19.8348C60.2986 19.8348 59.649 19.1718 59.649 18.3515Z" fill="#627377"/>
</svg>
