<svg width="100" height="100" viewBox="0 0 100 100" fill="none" xmlns="http://www.w3.org/2000/svg">
<g clip-path="url(#clip0_1197:3151)">
<path d="M23.4275 32.839H4.12246C3.28359 32.839 2.60352 32.1589 2.60352 31.3201V27.0586C2.60352 20.8886 7.60526 15.8869 13.7752 15.8869C19.9451 15.8869 24.9468 20.8886 24.9468 27.0586V31.3201C24.9464 32.1591 24.2666 32.839 23.4275 32.839Z" fill="white"/>
<path d="M34.7574 70.6651C32.5932 69.2362 31.2029 67.5983 30.6248 65.7966C26.9822 64.2499 24.6309 60.6304 24.6309 56.5628C24.6309 51.0579 28.9689 46.5792 34.3015 46.5792H46.6093C51.9418 46.5792 56.28 51.0579 56.28 56.5628C56.28 62.0677 51.9419 66.5462 46.6093 66.5462H37.0652C36.9832 67.37 37.0164 68.2276 37.1638 69.0968L37.6062 71.7057C37.6672 72.0651 37.2701 72.3239 36.966 72.1231L34.7574 70.6651Z" fill="#8BC540"/>
<path d="M56.2806 56.563C56.2806 51.0581 51.9425 46.5794 46.6099 46.5794H34.3021C32.9141 46.5794 31.5947 46.8853 30.4004 47.4314C30.9143 55.6962 37.9349 62.152 46.3029 62.152H54.6191C55.6675 60.5561 56.2806 58.6319 56.2806 56.563Z" fill="#8BC540"/>
<path d="M60.1323 63.5517C60.4403 62.2257 60.5301 60.9241 60.4 59.6819H48.4506C41.7309 59.6819 36.1233 54.3458 36.021 47.6267C35.9167 40.788 41.4495 35.1913 48.2647 35.1913H63.7116C70.4455 35.1913 76.0485 40.556 76.1274 47.2896C76.1867 52.3431 73.1916 56.8544 68.5266 58.7677C67.5223 61.8087 64.6655 63.9767 62.4401 65.2618L60.1475 66.5856C59.8319 66.7681 59.4508 66.4856 59.5333 66.1306L60.1323 63.5517Z" fill="#8BC540"/>
<path d="M46.0298 50.953C45.9255 44.1142 51.4583 38.5177 58.2735 38.5177H72.2014C69.9694 36.4533 66.9744 35.1913 63.7116 35.1913H48.2647C41.4495 35.1913 35.9167 40.788 36.021 47.6267C36.1235 54.3456 41.7309 59.6819 48.4506 59.6819H49.9604C47.5936 57.4956 46.0827 54.4083 46.0298 50.953Z" fill="#8BC540"/>
<path d="M95.7869 32.839H76.4818C75.643 32.839 74.9629 32.1589 74.9629 31.3201V27.0586C74.9629 20.8886 79.9646 15.8869 86.1346 15.8869C92.3045 15.8869 97.3062 20.8886 97.3062 27.0586V31.3201C97.3058 32.1591 96.6258 32.839 95.7869 32.839Z" fill="white"/>
<path d="M23.4275 92.5125H4.12246C3.28359 92.5125 2.60352 91.8324 2.60352 90.9933V86.7318C2.60352 80.5619 7.60526 75.5602 13.7752 75.5602C19.9451 75.5602 24.9468 80.5619 24.9468 86.7318V90.9933C24.9464 91.8322 24.2666 92.5125 23.4275 92.5125Z" fill="white"/>
<path d="M95.7869 92.5125H76.4818C75.643 92.5125 74.9629 91.8324 74.9629 90.9933V86.7318C74.9629 80.5619 79.9646 75.5602 86.1346 75.5602C92.3045 75.5602 97.3062 80.5619 97.3062 86.7318V90.9933C97.3058 91.8322 96.6258 92.5125 95.7869 92.5125Z" fill="white"/>
<path d="M13.6769 22.247C9.68515 22.247 6.4375 18.9994 6.4375 15.0074C6.4375 11.0154 9.68515 7.76776 13.6769 7.76776C17.6689 7.76776 20.9166 11.0154 20.9166 15.0074C20.9166 18.9994 17.6689 22.247 13.6769 22.247Z" fill="white"/>
<path d="M86.0363 22.247C82.0445 22.247 78.7969 18.9994 78.7969 15.0074C78.7969 11.0154 82.0445 7.76776 86.0363 7.76776C90.0283 7.76776 93.276 11.0154 93.276 15.0074C93.276 18.9994 90.0283 22.247 86.0363 22.247Z" fill="white"/>
<path d="M13.6769 81.9206C9.68515 81.9206 6.4375 78.6727 6.4375 74.6809C6.4375 70.6891 9.68515 67.4413 13.6769 67.4413C17.6689 67.4413 20.9166 70.6889 20.9166 74.6809C20.9166 78.6729 17.6689 81.9206 13.6769 81.9206Z" fill="white"/>
<path d="M86.0363 81.9206C82.0445 81.9206 78.7969 78.6727 78.7969 74.6809C78.7969 70.6891 82.0445 67.4413 86.0363 67.4413C90.0283 67.4413 93.276 70.6889 93.276 74.6809C93.276 78.6729 90.0283 81.9206 86.0363 81.9206Z" fill="white"/>
<path d="M25.7557 9.79921C26.033 9.79921 26.3139 9.72811 26.5709 9.57909C28.1332 8.67226 29.7644 7.84882 31.4191 7.13124C32.2435 6.77363 32.6221 5.81582 32.2644 4.9914C31.907 4.16719 30.949 3.78867 30.1248 4.14609C28.3543 4.91386 26.609 5.79492 24.9375 6.76503C24.1602 7.2162 23.8961 8.21151 24.3471 8.98866C24.649 9.50878 25.1947 9.79921 25.7557 9.79921Z" fill="#627377"/>
<path d="M58.0443 3.98263C59.8244 4.29122 61.6041 4.70821 63.3343 5.22208C63.489 5.26798 63.6449 5.28985 63.7984 5.28985C64.5 5.28985 65.1472 4.83243 65.3574 4.1256C65.6134 3.26427 65.1224 2.35861 64.2611 2.10295C62.4093 1.55314 60.505 1.10666 58.6004 0.776582C57.7158 0.623262 56.8728 1.21623 56.7195 2.10158C56.566 2.98712 57.1591 3.82912 58.0443 3.98263Z" fill="#627377"/>
<path d="M47.1095 3.37834C47.1417 3.37834 47.1742 3.37756 47.2068 3.37541C48.1302 3.32092 49.0683 3.29338 49.9951 3.29338C49.9968 3.29338 49.9984 3.29338 49.9999 3.29338C50.8806 3.29338 51.7702 3.31818 52.6443 3.36701C53.546 3.41838 54.3093 2.73049 54.3593 1.83342C54.4091 0.936351 53.7228 0.168384 52.8257 0.118384C51.8915 0.0662353 50.9408 0.0396729 50.0003 0.0396729C49.9984 0.0396729 49.9968 0.0396729 49.9949 0.0396729C49.0048 0.0396729 48.0023 0.0689697 47.0156 0.127368C46.1187 0.180298 45.4343 0.950218 45.4872 1.84709C45.5378 2.71154 46.2548 3.37834 47.1095 3.37834Z" fill="#627377"/>
<path d="M96.6798 37.2034C95.8058 37.4116 95.2661 38.2892 95.4743 39.1632C95.8925 40.9181 96.2115 42.7182 96.423 44.5138C96.5204 45.3415 97.2232 45.9507 98.0365 45.9507C98.1001 45.9507 98.1642 45.947 98.2288 45.9393C99.121 45.8343 99.7593 45.0259 99.6542 44.1335C99.4282 42.2128 99.0868 40.2868 98.6396 38.4093C98.431 37.5349 97.554 36.9946 96.6798 37.2034Z" fill="#627377"/>
<path d="M93.9403 66.0282C93.6331 66.8725 94.0684 67.8061 94.913 68.1133C95.0965 68.1803 95.2842 68.2118 95.4692 68.2118C96.1338 68.2118 96.7577 67.8014 96.9981 67.1407C97.6596 65.3235 98.2198 63.4481 98.6641 61.5665C98.8704 60.6921 98.3288 59.8157 97.4544 59.6095C96.5811 59.4034 95.7036 59.9442 95.4971 60.8192C95.0819 62.5776 94.5583 64.3302 93.9403 66.0282Z" fill="#627377"/>
<path d="M68.4458 7.07323C70.1042 7.78612 71.7392 8.60545 73.306 9.50818C73.5622 9.65564 73.8411 9.72576 74.1169 9.72576C74.6796 9.72576 75.2269 9.43338 75.5279 8.91092C75.9765 8.1324 75.7093 7.13768 74.9306 6.68905C73.2544 5.72303 71.505 4.84667 69.7306 4.08397C68.9046 3.72812 67.9482 4.11054 67.5935 4.93612C67.2388 5.76151 67.6204 6.71815 68.4458 7.07323Z" fill="#627377"/>
<path d="M2.55459 59.6603C1.68037 59.8677 1.13974 60.7444 1.34697 61.6187C1.79306 63.4995 2.35498 65.3733 3.01767 67.1882C3.25849 67.8481 3.88212 68.2575 4.54599 68.2575C4.73114 68.2575 4.91982 68.2257 5.1038 68.1583C5.94774 67.8503 6.38231 66.9163 6.07411 66.0722C5.45517 64.3765 4.92978 62.6257 4.51298 60.8681C4.30556 59.9937 3.43056 59.453 2.55459 59.6603Z" fill="#627377"/>
<path d="M36.0544 5.33433C36.2095 5.33433 36.3673 5.31207 36.5236 5.265C38.2515 4.74566 40.03 4.32281 41.8095 4.00836C42.6945 3.85192 43.2851 3.00797 43.1286 2.12321C42.9722 1.23825 42.129 0.648015 41.2435 0.804069C39.3394 1.1404 37.4363 1.59293 35.5867 2.14879C34.7261 2.40758 34.2384 3.31481 34.497 4.17516C34.7087 4.87984 35.355 5.33433 36.0544 5.33433Z" fill="#627377"/>
<path d="M98.373 48.3099C97.4744 48.3099 96.7463 49.0382 96.7463 49.9366V50.0396C96.7463 51.8517 96.6414 53.6776 96.4347 55.4669C96.3316 56.3595 96.9714 57.1667 97.8638 57.2698C97.9275 57.2772 97.9902 57.2808 98.0529 57.2808C98.8677 57.2808 99.5711 56.6696 99.667 55.8407C99.8881 53.928 100 51.9761 100 50.0398V49.9368C99.9998 49.0382 99.2715 48.3099 98.373 48.3099Z" fill="#627377"/>
<path d="M58.1426 96.0793C56.3678 96.3908 54.5514 96.602 52.7438 96.7065C51.8469 96.7584 51.1618 97.5275 51.2137 98.4244C51.2635 99.2895 51.9809 99.9572 52.8364 99.9572C52.8678 99.9572 52.9 99.9564 52.9319 99.9545C54.8643 99.8428 56.8071 99.6172 58.7053 99.2836C59.5903 99.1281 60.1819 98.285 60.0262 97.3998C59.8711 96.5152 59.0272 95.9236 58.1426 96.0793Z" fill="#627377"/>
<path d="M47.3059 96.7094C45.4981 96.6066 43.6817 96.3975 41.9071 96.0879C41.0204 95.933 40.1792 96.5258 40.0245 97.4107C39.87 98.2959 40.4624 99.1387 41.3473 99.2931C43.2458 99.6244 45.1884 99.8482 47.1216 99.958C47.1528 99.9597 47.1841 99.9605 47.2153 99.9605C48.0716 99.9605 48.7891 99.2914 48.8382 98.426C48.8889 97.5287 48.203 96.7603 47.3059 96.7094Z" fill="#627377"/>
<path d="M36.6189 94.8426C34.8884 94.3266 33.1694 93.702 31.5097 92.9862C30.6849 92.6307 29.7273 93.0108 29.3718 93.836C29.0157 94.661 29.3964 95.6182 30.2214 95.9739C31.9978 96.7397 33.8372 97.4079 35.6892 97.9602C35.8442 98.0065 36.0007 98.0286 36.1548 98.0286C36.8556 98.0286 37.5026 97.5719 37.7134 96.8662C37.9698 96.0055 37.48 95.0995 36.6189 94.8426Z" fill="#627377"/>
<path d="M1.75858 46.0929C1.82167 46.1001 1.88397 46.1036 1.94589 46.1036C2.76151 46.1036 3.46522 45.4915 3.55995 44.6618C3.76561 42.8655 4.07889 41.0644 4.49139 39.3083C4.69666 38.4335 4.15428 37.5579 3.27948 37.3524C2.40487 37.1464 1.5289 37.6894 1.32343 38.5644C0.882413 40.4431 0.547062 42.37 0.32714 44.2915C0.224797 45.1843 0.865811 45.9907 1.75858 46.0929Z" fill="#627377"/>
<path d="M68.5352 92.9678C66.8766 93.6848 65.159 94.3108 63.4301 94.8285C62.5693 95.0863 62.0807 95.993 62.3383 96.8537C62.5492 97.559 63.1961 98.0145 63.8963 98.0145C64.0508 98.0145 64.2078 97.9922 64.3637 97.9457C66.2141 97.3916 68.052 96.7217 69.8268 95.9543C70.6514 95.5977 71.0311 94.6401 70.6742 93.8154C70.3176 92.9906 69.3604 92.6112 68.5352 92.9678Z" fill="#627377"/>
<path d="M2.14336 57.3208C3.03593 57.2167 3.6748 56.4089 3.5707 55.5163C3.3621 53.7275 3.25546 51.9015 3.25371 50.0892C3.25292 49.1911 2.52461 48.464 1.62695 48.464C1.62656 48.464 1.62597 48.464 1.62519 48.464C0.726757 48.465 -0.00078062 49.1939 6.28605e-07 50.0925C0.00195375 52.029 0.116016 53.9808 0.339062 55.8933C0.435742 56.7218 1.13867 57.3317 1.95273 57.3317C2.01562 57.3317 2.07949 57.3282 2.14336 57.3208Z" fill="#627377"/>
<path d="M4.37558 34.1366H23.172C25.0787 34.1366 26.6298 32.5855 26.6298 30.6788V26.7587C26.6298 25.457 26.4185 24.1773 26.0013 22.9552C25.7394 22.188 24.9041 21.7785 24.1382 22.0402C23.3709 22.3021 22.9613 23.1361 23.2232 23.9034C23.5359 24.8195 23.6943 25.7804 23.6943 26.7589V30.679C23.6943 30.9671 23.4601 31.2013 23.172 31.2013H4.37538C4.0873 31.2013 3.85312 30.9671 3.85312 30.679V26.7589C3.85312 24.2343 4.9373 21.8425 6.79589 20.1757C8.36835 22.264 10.8674 23.6171 13.6769 23.6171C18.4242 23.6171 22.2865 19.7548 22.2865 15.0076C22.2865 10.2603 18.4244 6.39801 13.6773 6.39801C8.93026 6.39801 5.06777 10.2603 5.06777 15.0076C5.06777 15.871 5.19687 16.7044 5.43456 17.4913C2.59629 19.7163 0.917969 23.1341 0.917969 26.7591V30.6792C0.917773 32.5855 2.46894 34.1366 4.37558 34.1366ZM13.6773 9.33336C16.806 9.33336 19.3515 11.8787 19.3515 15.0076C19.3515 18.1365 16.8062 20.6818 13.6773 20.6818C10.5488 20.6818 8.00331 18.1365 8.00331 15.0076C8.00331 11.8787 10.5484 9.33336 13.6773 9.33336Z" fill="#627377"/>
<path d="M73.3691 26.7589V30.679C73.3691 32.5856 74.9201 34.1368 76.8269 34.1368H95.6234C97.53 34.1368 99.0812 32.5856 99.0812 30.679V26.7589C99.0812 25.4571 98.8699 24.1775 98.4527 22.9554C98.1908 22.1882 97.3558 21.7786 96.5896 22.0404C95.8222 22.3023 95.4126 23.1362 95.6746 23.9036C95.9871 24.8196 96.1457 25.7806 96.1457 26.7591V30.6792C96.1457 30.9673 95.9115 31.2015 95.6234 31.2015H76.8269C76.5389 31.2015 76.3047 30.9673 76.3047 30.6792V26.7591C76.3047 24.2345 77.3889 21.8427 79.2474 20.1759C80.8199 22.2642 83.3189 23.6173 86.1285 23.6173C90.8757 23.6173 94.738 19.755 94.738 15.0077C94.738 10.2605 90.8757 6.39819 86.1285 6.39819C81.3812 6.39819 77.5191 10.2605 77.5191 15.0077C77.5191 15.8712 77.6482 16.7046 77.8859 17.4915C75.0473 19.7163 73.3691 23.1339 73.3691 26.7589ZM86.1283 9.33334C89.257 9.33334 91.8025 11.8787 91.8025 15.0076C91.8025 18.1365 89.2572 20.6818 86.1283 20.6818C82.9998 20.6818 80.4543 18.1365 80.4543 15.0076C80.4543 11.8787 82.9998 9.33334 86.1283 9.33334Z" fill="#627377"/>
<path d="M96.5894 81.5848C95.822 81.8467 95.4125 82.6807 95.6744 83.4481C95.9869 84.3641 96.1455 85.3248 96.1455 86.3035V90.2236C96.1455 90.5117 95.9113 90.7459 95.6232 90.7459H76.8268C76.5387 90.7459 76.3045 90.5117 76.3045 90.2236V86.3035C76.3045 83.7789 77.3887 81.3871 79.2473 79.7203C80.8197 81.8086 83.3187 83.1617 86.1283 83.1617C90.8756 83.1617 94.7378 79.2994 94.7378 74.5522C94.7378 69.8049 90.8756 65.9426 86.1283 65.9426C81.381 65.9426 77.5189 69.8049 77.5189 74.5522C77.5189 75.4157 77.648 76.249 77.8857 77.036C75.0475 79.261 73.3691 82.6787 73.3691 86.3037V90.2238C73.3691 92.1305 74.9201 93.6816 76.8269 93.6816H95.6234C97.53 93.6816 99.0812 92.1306 99.0812 90.2238V86.3037C99.0812 85.002 98.8699 83.7223 98.4527 82.5002C98.1906 81.7324 97.3554 81.3227 96.5894 81.5848ZM86.1283 68.8778C89.257 68.8778 91.8025 71.4231 91.8025 74.552C91.8025 77.6809 89.2572 80.2262 86.1283 80.2262C82.9998 80.2262 80.4543 77.6809 80.4543 74.552C80.4543 71.4231 82.9998 68.8778 86.1283 68.8778Z" fill="#627377"/>
<path d="M24.1382 81.5848C23.3709 81.8467 22.9613 82.6807 23.2232 83.4481C23.5359 84.3641 23.6943 85.3248 23.6943 86.3035V90.2236C23.6943 90.5117 23.4601 90.7459 23.172 90.7459H4.37558C4.08749 90.7459 3.85331 90.5117 3.85331 90.2236V86.3035C3.85331 83.7789 4.93749 81.3871 6.79608 79.7203C8.36854 81.8086 10.8676 83.1617 13.6771 83.1617C18.4244 83.1617 22.2867 79.2994 22.2867 74.5522C22.2867 69.8049 18.4244 65.9426 13.6771 65.9426C8.92987 65.9426 5.06777 69.8049 5.06777 74.5522C5.06777 75.4157 5.19687 76.249 5.43456 77.036C2.59629 79.261 0.917969 82.6787 0.917969 86.3037V90.2238C0.917969 92.1305 2.46914 93.6816 4.37577 93.6816H23.1722C25.0789 93.6816 26.63 92.1306 26.63 90.2238V86.3037C26.63 85.002 26.4187 83.7223 26.0015 82.5002C25.7392 81.7324 24.9039 81.3227 24.1382 81.5848ZM13.6773 68.8778C16.806 68.8778 19.3515 71.4231 19.3515 74.552C19.3515 77.6809 16.8062 80.2262 13.6773 80.2262C10.5488 80.2262 8.00331 77.6809 8.00331 74.552C8.00331 71.4231 10.5484 68.8778 13.6773 68.8778Z" fill="#627377"/>
<path d="M63.8831 33.8212H48.2648C41.516 33.8212 35.9011 38.7579 34.8349 45.2095H34.3021C28.2144 45.2095 23.2617 50.3026 23.2617 56.563C23.2617 60.9733 25.7037 64.9231 29.5371 66.8047C31.4213 71.3688 37.3 73.5579 37.5603 73.6526C37.7244 73.7125 37.8943 73.7415 38.0627 73.7415C38.464 73.7415 38.8568 73.5764 39.1398 73.271C39.5414 72.8374 39.6437 72.2051 39.3994 71.667C38.8086 70.3659 38.4763 69.1092 38.406 67.9163H46.6099C51.1476 67.9163 55.0531 65.0856 56.7484 61.0518H59.0853C59.0441 62.6591 58.6079 64.3579 57.7822 66.1196C57.5312 66.6551 57.6261 67.2893 58.023 67.7276C58.3064 68.0405 58.704 68.2102 59.1113 68.2102C59.2749 68.2102 59.4398 68.1829 59.5995 68.1264C59.9255 68.0114 67.3347 65.3395 69.6085 59.7899C74.4233 57.5628 77.4985 52.7839 77.4985 47.4366C77.4985 39.929 71.3907 33.8212 63.8831 33.8212ZM67.8962 57.3339C67.4987 57.4954 67.1878 57.8169 67.0569 58.2255C66.2333 60.797 63.7261 62.7112 61.6575 63.9057C62.013 62.3757 62.1107 60.879 61.9476 59.4296C61.8636 58.6837 61.2386 58.1163 60.488 58.1163H48.265C46.8595 58.1163 45.5177 57.8417 44.2879 57.3454C43.7433 57.1257 43.1213 57.2454 42.706 57.6606L42.6851 57.6815C41.947 58.4196 42.205 59.669 43.1726 60.0614C44.7462 60.6993 46.465 61.0516 48.2648 61.0516H53.4609C52.0236 63.4104 49.4904 64.9805 46.6095 64.9805H36.9773C36.2332 64.9805 35.6015 65.5378 35.5195 66.2774C35.4084 67.2801 35.4424 68.309 35.6203 69.3585C34.1955 68.4178 32.6746 67.0587 32.1156 65.3182C31.9801 64.896 31.6808 64.5417 31.2719 64.3704C28.1887 63.078 26.1967 60.0132 26.1967 56.563C26.1967 51.9214 29.8324 48.145 34.3017 48.145H34.6681C34.7472 49.6792 35.0822 51.1466 35.6304 52.5062C36.0219 53.477 37.2722 53.7397 38.0125 52.9995C38.0197 52.9923 38.0269 52.9851 38.034 52.978C38.4474 52.5645 38.5695 51.945 38.3513 51.4024C37.8302 50.1065 37.5549 48.6864 37.5875 47.1987C37.7158 41.3693 42.5849 36.757 48.4158 36.757H63.7034C69.597 36.757 74.5813 41.578 74.5628 47.4714C74.5491 51.8255 71.9353 55.6942 67.8962 57.3339Z" fill="#627377"/>
</g>
<defs>
<clipPath id="clip0_1197:3151">
<rect width="100" height="100" fill="white"/>
</clipPath>
</defs>
</svg>
