<svg width="100" height="100" viewBox="0 0 100 100" fill="none" xmlns="http://www.w3.org/2000/svg">
<mask id="mask0_1197:3109" style="mask-type:alpha" maskUnits="userSpaceOnUse" x="1" y="33" width="13" height="36">
<rect x="1" y="33" width="13" height="36" fill="#C4C4C4"/>
</mask>
<g mask="url(#mask0_1197:3109)">
<path fill-rule="evenodd" clip-rule="evenodd" d="M47.0087 3.11579C48.1111 3.03902 49.2237 3 50.3451 3C51.4666 3 52.5792 3.03902 53.6815 3.11579C54.4129 3.16673 54.9645 3.80089 54.9135 4.53224C54.8626 5.26359 54.2284 5.81518 53.4971 5.76424C52.4561 5.69174 51.405 5.65487 50.3451 5.65487C49.2853 5.65487 48.2342 5.69174 47.1932 5.76424C46.4618 5.81518 45.8277 5.26359 45.7767 4.53224C45.7258 3.80089 46.2774 3.16673 47.0087 3.11579ZM42.8946 4.90802C43.0332 5.62791 42.562 6.32389 41.8421 6.46253C39.7601 6.8635 37.7297 7.40895 35.7616 8.08804C35.0686 8.32717 34.313 7.95921 34.0738 7.26618C33.8347 6.57316 34.2027 5.8175 34.8957 5.57837C36.9817 4.8586 39.1337 4.2805 41.34 3.85557C42.0599 3.71693 42.7559 4.18812 42.8946 4.90802ZM57.7957 4.90802C57.9344 4.18813 58.6303 3.71693 59.3502 3.85558C61.5566 4.2805 63.7086 4.8586 65.7946 5.57837C66.4876 5.8175 66.8556 6.57316 66.6164 7.26618C66.3773 7.95921 65.6216 8.32717 64.9286 8.08804C62.9605 7.40896 60.9301 6.8635 58.8482 6.46254C58.1283 6.32389 57.6571 5.62791 57.7957 4.90802ZM31.3889 8.37965C31.7103 9.03856 31.4367 9.83326 30.7778 10.1547C28.8827 11.0791 27.0625 12.1338 25.3289 13.307C24.7217 13.718 23.8964 13.5589 23.4855 12.9517C23.0746 12.3446 23.2337 11.5193 23.8409 11.1084C25.6772 9.86557 27.6057 8.74817 29.6139 7.76857C30.2728 7.44715 31.0675 7.72074 31.3889 8.37965ZM69.3014 8.37965C69.6228 7.72074 70.4175 7.44715 71.0764 7.76857C73.0846 8.74817 75.013 9.86557 76.8494 11.1084C77.4565 11.5193 77.6156 12.3446 77.2047 12.9517C76.7938 13.5589 75.9685 13.718 75.3614 13.307C73.6278 12.1338 71.8076 11.0791 69.9125 10.1547C69.2535 9.83327 68.98 9.03856 69.3014 8.37965ZM79.5104 14.7236C79.9912 14.1701 80.8296 14.1113 81.383 14.5921C83.0628 16.0516 84.6387 17.6275 86.0981 19.3072C86.5789 19.8606 86.5201 20.6991 85.9667 21.1799C85.4133 21.6607 84.5749 21.6019 84.094 21.0485C82.7159 19.4624 81.2279 17.9743 79.6418 16.5962C79.0884 16.1154 79.0295 15.277 79.5104 14.7236ZM21.1799 14.7236C21.6607 15.277 21.6019 16.1154 21.0485 16.5962C19.4624 17.9743 17.9743 19.4624 16.5962 21.0485C16.1154 21.6019 15.277 21.6607 14.7236 21.1799C14.1701 20.6991 14.1113 19.8606 14.5921 19.3072C16.0516 17.6275 17.6275 16.0516 19.3072 14.5921C19.8606 14.1113 20.6991 14.1701 21.1799 14.7236ZM87.7385 23.4855C88.3457 23.0746 89.171 23.2337 89.5819 23.8409C90.8247 25.6772 91.9421 27.6057 92.9217 29.6139C93.2431 30.2728 92.9695 31.0675 92.3106 31.3889C91.6517 31.7103 90.857 31.4367 90.5356 30.7778C89.6111 28.8827 88.5565 27.0625 87.3832 25.3289C86.9723 24.7217 87.1314 23.8964 87.7385 23.4855ZM12.9517 23.4855C13.5589 23.8964 13.718 24.7217 13.307 25.3289C12.1338 27.0625 11.0791 28.8827 10.1547 30.7778C9.83327 31.4367 9.03856 31.7103 8.37965 31.3889C7.72074 31.0675 7.44715 30.2728 7.76857 29.6139C8.74817 27.6057 9.86557 25.6772 11.1084 23.8409C11.5193 23.2337 12.3446 23.0746 12.9517 23.4855ZM7.26618 34.0738C7.95921 34.313 8.32717 35.0686 8.08804 35.7616C7.40896 37.7297 6.8635 39.7601 6.46253 41.8421C6.32389 42.562 5.62791 43.0332 4.90802 42.8946C4.18813 42.7559 3.71693 42.0599 3.85558 41.34C4.2805 39.1337 4.8586 36.9817 5.57837 34.8957C5.8175 34.2027 6.57316 33.8347 7.26618 34.0738ZM93.4241 34.0738C94.1171 33.8347 94.8728 34.2027 95.1119 34.8957C95.8317 36.9817 96.4098 39.1337 96.8347 41.34C96.9733 42.0599 96.5021 42.7559 95.7822 42.8946C95.0624 43.0332 94.3664 42.562 94.2277 41.8421C93.8268 39.7601 93.2813 37.7297 92.6022 35.7616C92.3631 35.0686 92.7311 34.313 93.4241 34.0738ZM4.53224 45.7767C5.26359 45.8277 5.81518 46.4618 5.76424 47.1932C5.69174 48.2342 5.65487 49.2853 5.65487 50.3451C5.65487 51.405 5.69174 52.4561 5.76424 53.4971C5.81518 54.2284 5.26359 54.8626 4.53224 54.9135C3.80089 54.9645 3.16673 54.4129 3.11579 53.6815C3.03902 52.5792 3 51.4666 3 50.3451C3 49.2237 3.03902 48.1111 3.11579 47.0087C3.16673 46.2774 3.80089 45.7258 4.53224 45.7767ZM96.158 45.7767C96.8894 45.7258 97.5235 46.2774 97.5745 47.0087C97.6512 48.1111 97.6903 49.2237 97.6903 50.3451C97.6903 51.4666 97.6512 52.5792 97.5745 53.6815C97.5235 54.4129 96.8894 54.9645 96.158 54.9135C95.4267 54.8626 94.8751 54.2284 94.926 53.4971C94.9985 52.4561 95.0354 51.405 95.0354 50.3451C95.0354 49.2853 94.9985 48.2342 94.926 47.1932C94.8751 46.4618 95.4267 45.8277 96.158 45.7767ZM4.90802 57.7957C5.62791 57.6571 6.32389 58.1283 6.46253 58.8482C6.8635 60.9301 7.40895 62.9605 8.08804 64.9286C8.32717 65.6216 7.95921 66.3773 7.26618 66.6164C6.57316 66.8556 5.8175 66.4876 5.57837 65.7946C4.85859 63.7086 4.2805 61.5566 3.85557 59.3502C3.71693 58.6303 4.18812 57.9344 4.90802 57.7957ZM95.7822 57.7957C96.5021 57.9344 96.9733 58.6303 96.8347 59.3502C96.4098 61.5566 95.8317 63.7086 95.1119 65.7946C94.8728 66.4876 94.1171 66.8556 93.4241 66.6164C92.7311 66.3773 92.3631 65.6217 92.6022 64.9286C93.2813 62.9605 93.8268 60.9301 94.2277 58.8482C94.3664 58.1283 95.0624 57.6571 95.7822 57.7957ZM8.37965 69.3014C9.03856 68.98 9.83326 69.2535 10.1547 69.9125C11.0791 71.8076 12.1338 73.6278 13.307 75.3614C13.718 75.9685 13.5589 76.7938 12.9517 77.2047C12.3446 77.6156 11.5193 77.4565 11.1084 76.8494C9.86557 75.013 8.74817 73.0846 7.76857 71.0764C7.44715 70.4175 7.72074 69.6228 8.37965 69.3014ZM92.3106 69.3014C92.9695 69.6228 93.2431 70.4175 92.9217 71.0764C91.9421 73.0846 90.8247 75.013 89.5819 76.8494C89.171 77.4565 88.3457 77.6156 87.7385 77.2047C87.1314 76.7938 86.9723 75.9685 87.3832 75.3614C88.5565 73.6278 89.6111 71.8076 90.5356 69.9125C90.857 69.2536 91.6517 68.98 92.3106 69.3014ZM14.7236 79.5104C15.277 79.0295 16.1154 79.0884 16.5962 79.6418C17.9743 81.2279 19.4624 82.716 21.0485 84.094C21.6019 84.5749 21.6607 85.4133 21.1799 85.9667C20.6991 86.5201 19.8606 86.579 19.3072 86.0981C17.6275 84.6387 16.0516 83.0628 14.5921 81.383C14.1113 80.8296 14.1701 79.9912 14.7236 79.5104ZM85.9667 79.5104C86.5201 79.9912 86.5789 80.8296 86.0981 81.383C84.6387 83.0628 83.0628 84.6387 81.383 86.0981C80.8296 86.579 79.9912 86.5201 79.5104 85.9667C79.0295 85.4133 79.0884 84.5749 79.6418 84.094C81.2279 82.7159 82.716 81.2279 84.094 79.6418C84.5749 79.0884 85.4133 79.0295 85.9667 79.5104ZM23.4855 87.7385C23.8964 87.1314 24.7217 86.9723 25.3289 87.3832C27.0625 88.5565 28.8827 89.6111 30.7778 90.5356C31.4367 90.857 31.7103 91.6517 31.3889 92.3106C31.0675 92.9695 30.2728 93.2431 29.6139 92.9217C27.6057 91.9421 25.6772 90.8247 23.8409 89.5819C23.2337 89.171 23.0746 88.3457 23.4855 87.7385ZM77.2047 87.7385C77.6156 88.3457 77.4565 89.171 76.8494 89.5819C75.013 90.8247 73.0846 91.9421 71.0764 92.9217C70.4175 93.2431 69.6228 92.9695 69.3014 92.3106C68.98 91.6517 69.2535 90.857 69.9125 90.5356C71.8076 89.6111 73.6278 88.5565 75.3614 87.3832C75.9685 86.9723 76.7938 87.1314 77.2047 87.7385ZM34.0738 93.4241C34.313 92.7311 35.0686 92.3631 35.7616 92.6022C37.7297 93.2813 39.7601 93.8268 41.8421 94.2277C42.562 94.3664 43.0332 95.0624 42.8945 95.7822C42.7559 96.5021 42.0599 96.9733 41.34 96.8347C39.1337 96.4098 36.9817 95.8317 34.8957 95.1119C34.2027 94.8728 33.8347 94.1171 34.0738 93.4241ZM66.6164 93.4241C66.8556 94.1171 66.4876 94.8728 65.7946 95.1119C63.7086 95.8317 61.5566 96.4098 59.3502 96.8347C58.6303 96.9733 57.9344 96.5021 57.7957 95.7822C57.6571 95.0624 58.1283 94.3664 58.8482 94.2277C60.9301 93.8268 62.9605 93.2813 64.9286 92.6022C65.6216 92.3631 66.3773 92.7311 66.6164 93.4241ZM45.7767 96.158C45.8277 95.4267 46.4618 94.8751 47.1932 94.926C48.2342 94.9985 49.2853 95.0354 50.3451 95.0354C51.405 95.0354 52.4561 94.9985 53.4971 94.926C54.2284 94.8751 54.8626 95.4267 54.9135 96.158C54.9645 96.8894 54.4129 97.5235 53.6815 97.5745C52.5792 97.6512 51.4666 97.6903 50.3451 97.6903C49.2237 97.6903 48.1111 97.6512 47.0087 97.5745C46.2774 97.5235 45.7258 96.8894 45.7767 96.158Z" fill="#627377"/>
</g>
<mask id="mask1_1197:3109" style="mask-type:alpha" maskUnits="userSpaceOnUse" x="33" y="1" width="35" height="12">
<rect x="33" y="1" width="35" height="12" fill="#C4C4C4"/>
</mask>
<g mask="url(#mask1_1197:3109)">
<path fill-rule="evenodd" clip-rule="evenodd" d="M34.8616 5.60167C35.9063 5.24132 36.9705 4.91478 38.0536 4.62361C39.1366 4.33243 40.2211 4.08125 41.3056 3.86918C42.0251 3.72848 42.7224 4.19769 42.8631 4.91719C43.0038 5.63668 42.5346 6.334 41.8151 6.4747C40.791 6.67497 39.7664 6.91225 38.7428 7.18743C37.7193 7.46261 36.7139 7.77111 35.7274 8.11141C35.0343 8.35048 34.2787 7.98247 34.0396 7.28942C33.8006 6.59638 34.1686 5.84075 34.8616 5.60167ZM31.3539 8.40062C31.6747 9.05983 31.4003 9.85428 30.7411 10.1751C28.8346 11.1029 27.0155 12.1568 25.2912 13.3235C24.684 13.7344 23.8588 13.5753 23.4479 12.9681C23.037 12.3609 23.1962 11.5356 23.8034 11.1248C25.6309 9.88808 27.559 8.77108 29.5794 7.78788C30.2386 7.46708 31.0331 7.74141 31.3539 8.40062ZM45.744 4.53176C45.691 3.80056 46.2408 3.16483 46.972 3.11181C49.213 2.94931 51.4413 2.94885 53.6426 3.10235C54.374 3.15334 54.9255 3.78755 54.8745 4.5189C54.8235 5.25024 54.1893 5.80178 53.458 5.75078C51.3811 5.60597 49.2787 5.60639 47.164 5.75972C46.4328 5.81274 45.797 5.26296 45.744 4.53176ZM21.1441 14.7405C21.6256 15.2933 21.5677 16.1318 21.0149 16.6133C19.4247 17.9981 17.9408 19.4891 16.5713 21.0723C16.0916 21.6267 15.2533 21.6874 14.6989 21.2077C14.1444 20.7281 14.0838 19.8898 14.5634 19.3354C16.0141 17.6584 17.5863 16.0786 19.2713 14.6112C19.8242 14.1297 20.6627 14.1876 21.1441 14.7405ZM57.7565 4.89707C57.8958 4.17731 58.5922 3.70677 59.312 3.84609C61.5056 4.2707 63.6581 4.84909 65.7541 5.5725C66.4471 5.81168 66.815 6.56736 66.5759 7.26037C66.3367 7.95338 65.581 8.32129 64.888 8.08211C62.9092 7.39918 60.8776 6.85328 58.8075 6.45258C58.0877 6.31326 57.6171 5.61684 57.7565 4.89707ZM69.2625 8.37282C69.5831 7.71355 70.3775 7.43904 71.0368 7.7597C73.0379 8.73298 74.9689 9.84566 76.8144 11.0889C77.4224 11.4985 77.5833 12.3234 77.1737 12.9315C76.7641 13.5395 75.9391 13.7004 75.3311 13.2908C73.5885 12.1168 71.7651 11.0662 69.8756 10.1472C69.2163 9.8265 68.9418 9.0321 69.2625 8.37282ZM12.9323 23.5174C13.5404 23.927 13.7012 24.752 13.2916 25.36C12.1177 27.1026 11.067 28.926 10.148 30.8155C9.82736 31.4748 9.03297 31.7493 8.37369 31.4287C7.71441 31.108 7.43991 30.3136 7.76056 29.6543C8.73384 27.6532 9.84652 25.7223 11.0898 23.8767C11.4994 23.2687 12.3243 23.1078 12.9323 23.5174ZM79.4834 14.698C79.963 14.1436 80.8013 14.0829 81.3558 14.5626C83.0327 16.0133 84.6125 17.5854 86.0799 19.2704C86.5614 19.8233 86.5035 20.6618 85.9506 21.1433C85.3978 21.6247 84.5593 21.5669 84.0778 21.014C82.693 19.4239 81.202 17.9399 79.6188 16.5704C79.0644 16.0908 79.0037 15.2525 79.4834 14.698ZM7.26124 34.1153C7.95425 34.3544 8.32215 35.1101 8.08297 35.8031C7.40004 37.7819 6.85414 39.8135 6.45344 41.8837C6.31412 42.6034 5.6177 43.074 4.89794 42.9346C4.17818 42.7953 3.70763 42.0989 3.84695 41.3791C4.27156 39.1855 4.84995 37.0331 5.57336 34.937C5.81254 34.244 6.56823 33.8761 7.26124 34.1153ZM4.51976 45.8166C5.2511 45.8676 5.80264 46.5018 5.75164 47.2332C5.60683 49.3101 5.60725 51.4125 5.76058 53.5271C5.8136 54.2583 5.26383 54.8941 4.53263 54.9471C3.80142 55.0001 3.16569 54.4503 3.11267 53.7191C2.95017 51.4781 2.94972 49.2498 3.10321 47.0485C3.1542 46.3171 3.78841 45.7656 4.51976 45.8166ZM87.723 23.447C88.3302 23.0362 89.1555 23.1953 89.5663 23.8025C90.803 25.6301 91.92 27.5582 92.9032 29.5785C93.224 30.2377 92.9497 31.0322 92.2905 31.353C91.6313 31.6738 90.8368 31.3995 90.516 30.7403C89.5883 28.8338 88.5344 27.0146 87.3676 25.2903C86.9567 24.6832 87.1159 23.8579 87.723 23.447ZM4.91805 57.828C5.63754 57.6873 6.33487 58.1565 6.47556 58.876C6.67583 59.9002 6.91311 60.9247 7.18829 61.9483C7.46347 62.9718 7.77197 63.9772 8.11227 64.9637C8.35135 65.6568 7.98333 66.4124 7.29028 66.6515C6.59724 66.8906 5.84161 66.5225 5.60254 65.8295C5.24218 64.7849 4.91564 63.7206 4.62447 62.6376C4.3333 61.5546 4.08211 60.47 3.87004 59.3855C3.72935 58.666 4.19856 57.9687 4.91805 57.828ZM93.4017 34.0388C94.0947 33.7997 94.8504 34.1677 95.0894 34.8608C95.4498 35.9054 95.7763 36.9697 96.0675 38.0527C96.3587 39.1357 96.6099 40.2203 96.8219 41.3048C96.9626 42.0242 96.4934 42.7216 95.7739 42.8623C95.0544 43.003 94.3571 42.5337 94.2164 41.8143C94.0161 40.7901 93.7789 39.7655 93.5037 38.742C93.2285 37.7185 92.92 36.713 92.5797 35.7265C92.3406 35.0335 92.7086 34.2778 93.4017 34.0388ZM8.40148 69.3373C9.06069 69.0165 9.85515 69.2908 10.1759 69.95C11.1037 71.8565 12.1576 73.6756 13.3244 75.3999C13.7353 76.0071 13.5761 76.8324 12.9689 77.2432C12.3618 77.6541 11.5365 77.4949 11.1256 76.8878C9.88894 75.0602 8.77194 73.1321 7.78874 71.1117C7.46794 70.4525 7.74228 69.6581 8.40148 69.3373ZM96.1594 45.7432C96.8906 45.6901 97.5263 46.2399 97.5793 46.9711C97.7418 49.2121 97.7423 51.4404 97.5888 53.6418C97.5378 54.3731 96.9036 54.9246 96.1722 54.8736C95.4409 54.8227 94.8893 54.1884 94.9403 53.4571C95.0852 51.3802 95.0847 49.2778 94.9314 47.1631C94.8784 46.4319 95.4282 45.7962 96.1594 45.7432ZM14.7413 79.547C15.2942 79.0655 16.1327 79.1234 16.6142 79.6763C17.9989 81.2664 19.49 82.7503 21.0731 84.1199C21.6276 84.5995 21.6882 85.4378 21.2086 85.9922C20.729 86.5467 19.8907 86.6073 19.3362 86.1277C17.6592 84.677 16.0795 83.1048 14.6121 81.4198C14.1306 80.867 14.1885 80.0285 14.7413 79.547ZM95.794 57.7556C96.5138 57.8949 96.9843 58.5914 96.845 59.3111C96.4204 61.5048 95.842 63.6572 95.1186 65.7533C94.8794 66.4463 94.1237 66.8142 93.4307 66.575C92.7377 66.3358 92.3698 65.5801 92.609 64.8871C93.2919 62.9084 93.8378 60.8768 94.2385 58.8066C94.3779 58.0868 95.0743 57.6163 95.794 57.7556ZM23.5183 87.7588C23.9279 87.1508 24.7528 86.9899 25.3609 87.3995C27.1035 88.5734 28.9269 89.6241 30.8164 90.5431C31.4757 90.8638 31.7502 91.6581 31.4295 92.3174C31.1089 92.9767 30.3145 93.2512 29.6552 92.9306C27.6541 91.9573 25.7231 90.8446 23.8776 89.6014C23.2696 89.1918 23.1087 88.3668 23.5183 87.7588ZM92.3183 69.2616C92.9776 69.5823 93.2521 70.3767 92.9314 71.0359C91.9581 73.037 90.8455 74.968 89.6022 76.8135C89.1926 77.4215 88.3677 77.5824 87.7597 77.1728C87.1516 76.7632 86.9908 75.9383 87.4004 75.3303C88.5743 73.5876 89.625 71.7642 90.544 69.8747C90.8646 69.2155 91.659 68.9409 92.3183 69.2616ZM34.1161 93.4299C34.3553 92.7369 35.111 92.369 35.804 92.6081C37.7828 93.2911 39.8144 93.837 41.8845 94.2377C42.6043 94.377 43.0748 95.0734 42.9355 95.7932C42.7962 96.5129 42.0998 96.9835 41.38 96.8442C39.1863 96.4196 37.0339 95.8412 34.9379 95.1178C34.2449 94.8786 33.8769 94.1229 34.1161 93.4299ZM85.9931 79.4825C86.5476 79.9622 86.6082 80.8005 86.1286 81.3549C84.6779 83.0319 83.1057 84.6116 81.4207 86.0791C80.8678 86.5605 80.0293 86.5027 79.5479 85.9498C79.0664 85.3969 79.1243 84.5584 79.6771 84.077C81.2672 82.6922 82.7512 81.2011 84.1207 79.618C84.6004 79.0635 85.4387 79.0029 85.9931 79.4825ZM45.8175 96.1714C45.8685 95.44 46.5027 94.8885 47.234 94.9395C49.3109 95.0843 51.4133 95.0839 53.528 94.9305C54.2592 94.8775 54.8949 95.4273 54.948 96.1585C55.001 96.8897 54.4512 97.5254 53.72 97.5785C51.479 97.7409 49.2507 97.7414 47.0494 97.5879C46.318 97.5369 45.7665 96.9027 45.8175 96.1714ZM77.2441 87.7222C77.6549 88.3293 77.4958 89.1546 76.8886 89.5655C75.061 90.8022 73.133 91.9192 71.1126 92.9024C70.4534 93.2232 69.6589 92.9488 69.3381 92.2896C69.0173 91.6304 69.2917 90.836 69.9509 90.5152C71.8573 89.5874 73.6765 88.5335 75.4008 87.3667C76.0079 86.9559 76.8332 87.115 77.2441 87.7222ZM57.8289 95.7731C57.6882 95.0536 58.1574 94.3563 58.8769 94.2156C59.901 94.0153 60.9256 93.778 61.9491 93.5028C62.9727 93.2276 63.9781 92.9192 64.9646 92.5788C65.6576 92.3398 66.4133 92.7078 66.6523 93.4008C66.8914 94.0939 66.5234 94.8495 65.8304 95.0886C64.7857 95.4489 63.7214 95.7755 62.6384 96.0667C61.5554 96.3578 60.4709 96.609 59.3864 96.8211C58.6669 96.9618 57.9695 96.4926 57.8289 95.7731Z" fill="#627377"/>
</g>
<mask id="mask2_1197:3109" style="mask-type:alpha" maskUnits="userSpaceOnUse" x="39" y="85" width="23" height="16">
<rect x="39" y="85" width="23" height="16" fill="#C4C4C4"/>
</mask>
<g mask="url(#mask2_1197:3109)">
<path fill-rule="evenodd" clip-rule="evenodd" d="M53.6807 3.11561C54.7829 3.19452 55.8899 3.31224 57.0003 3.46985C58.1106 3.62745 59.2067 3.82243 60.2873 4.05337C61.0042 4.20658 61.4612 4.91197 61.308 5.6289C61.1548 6.34584 60.4494 6.80282 59.7325 6.64962C58.712 6.43153 57.6765 6.24731 56.6272 6.09837C55.5778 5.94942 54.532 5.83821 53.4911 5.7637C52.7599 5.71135 52.2095 5.07611 52.2619 4.34486C52.3142 3.61361 52.9495 3.06326 53.6807 3.11561ZM49.3555 4.31186C49.3916 5.0441 48.8273 5.66695 48.095 5.70305C45.9774 5.80745 43.8904 6.06215 41.8465 6.45791C41.1267 6.59727 40.4303 6.12677 40.2909 5.40701C40.1515 4.68726 40.622 3.99081 41.3418 3.85145C43.5083 3.43197 45.7201 3.16204 47.9643 3.0514C48.6965 3.0153 49.3194 3.57963 49.3555 4.31186ZM64.1088 6.40599C64.3472 5.71273 65.1025 5.34402 65.7958 5.58246C67.9205 6.31323 69.9699 7.18802 71.934 8.19381C72.5866 8.52796 72.8447 9.32783 72.5105 9.98037C72.1764 10.6329 71.3765 10.891 70.724 10.5569C68.8709 9.60795 66.9373 8.78257 64.9323 8.09299C64.239 7.85455 63.8703 7.09926 64.1088 6.40599ZM37.4761 6.1321C37.7018 6.82964 37.3192 7.57801 36.6217 7.80364C34.6154 8.45258 32.6651 9.24097 30.7838 10.159C30.1249 10.4805 29.3302 10.207 29.0087 9.54811C28.6872 8.88924 28.9607 8.0945 29.6195 7.773C31.6123 6.80059 33.6786 5.96529 35.8046 5.27763C36.5021 5.052 37.2505 5.43456 37.4761 6.1321ZM75.0124 11.4601C75.4232 10.8529 76.2485 10.6937 76.8557 11.1045C78.7063 12.3567 80.4585 13.734 82.102 15.2225C82.6454 15.7147 82.6869 16.5541 82.1947 17.0975C81.7026 17.6409 80.8631 17.6824 80.3198 17.1902C78.7682 15.785 77.1143 14.485 75.3679 13.3034C74.7607 12.8926 74.6015 12.0673 75.0124 11.4601ZM84.2285 19.1758C84.7823 18.6954 85.6207 18.755 86.101 19.3088C87.559 20.9899 88.8978 22.7716 90.1067 24.6398C90.505 25.2553 90.3289 26.0771 89.7134 26.4754C89.0979 26.8737 88.2761 26.6976 87.8778 26.0821C86.7363 24.318 85.4721 22.6356 84.0954 21.0483C83.6151 20.4945 83.6747 19.6561 84.2285 19.1758ZM26.4769 10.9783C26.8752 11.5938 26.6991 12.4157 26.0836 12.814C24.3196 13.9555 22.6372 15.2196 21.0499 16.5963C20.496 17.0767 19.6577 17.0171 19.1773 16.4633C18.697 15.9094 18.7565 15.0711 19.3104 14.5907C20.9914 13.1327 22.7731 11.794 24.6413 10.585C25.2568 10.1868 26.0786 10.3628 26.4769 10.9783ZM91.1437 29.0071C91.8025 28.6856 92.5973 28.9591 92.9188 29.618C93.8912 31.6108 94.7265 33.6771 95.4141 35.8031C95.6397 36.5006 95.2572 37.249 94.5597 37.4746C93.8621 37.7002 93.1137 37.3177 92.8881 36.6201C92.2392 34.6139 91.4508 32.6635 90.5328 30.7823C90.2113 30.1234 90.4848 29.3286 91.1437 29.0071ZM17.099 18.497C17.6424 18.9892 17.6839 19.8286 17.1918 20.372C15.7865 21.9235 14.4865 23.5774 13.3049 25.3238C12.8941 25.931 12.0688 26.0902 11.4616 25.6794C10.8544 25.2686 10.6953 24.4433 11.1061 23.8361C12.3582 21.9855 13.7355 20.2332 15.2241 18.5898C15.7162 18.0464 16.5557 18.0049 17.099 18.497ZM9.9819 28.1812C10.6344 28.5154 10.8926 29.3152 10.5584 29.9678C9.60948 31.8209 8.7841 33.7545 8.09452 35.7595C7.85608 36.4527 7.10079 36.8214 6.40752 36.583C5.71426 36.3446 5.34555 35.5893 5.58399 34.896C6.31477 32.7712 7.18955 30.7219 8.19534 28.7577C8.52949 28.1052 9.32936 27.8471 9.9819 28.1812ZM95.2847 40.2894C96.0045 40.15 96.7009 40.6205 96.8403 41.3403C97.2598 43.5067 97.5297 45.7186 97.6404 47.9628C97.6765 48.695 97.1121 49.3179 96.3799 49.354C95.6477 49.3901 95.0248 48.8257 94.9887 48.0935C94.8843 45.9758 94.6296 43.8889 94.2339 41.8449C94.0945 41.1252 94.565 40.4287 95.2847 40.2894ZM5.63043 39.3837C6.34737 39.537 6.80436 40.2424 6.65115 40.9593C6.43306 41.9798 6.24885 43.0152 6.0999 44.0646C5.95095 45.1139 5.83974 46.1597 5.76523 47.2006C5.71288 47.9319 5.07764 48.4822 4.34639 48.4299C3.61514 48.3775 3.06479 47.7423 3.11714 47.0111C3.19605 45.9088 3.31377 44.8018 3.47138 43.6915C3.62898 42.5812 3.82397 41.4851 4.0549 40.4045C4.20811 39.6875 4.9135 39.2305 5.63043 39.3837ZM96.3469 52.2603C97.0781 52.3127 97.6285 52.9479 97.5761 53.6792C97.4972 54.7814 97.3795 55.8884 97.2219 56.9987C97.0643 58.1091 96.8693 59.2051 96.6384 60.2858C96.4852 61.0027 95.7798 61.4597 95.0628 61.3065C94.3459 61.1533 93.8889 60.4479 94.0421 59.7309C94.2602 58.7104 94.4444 57.675 94.5934 56.6256C94.7423 55.5763 94.8535 54.5305 94.9281 53.4896C94.9804 52.7583 95.6156 52.208 96.3469 52.2603ZM4.31339 51.3363C5.04563 51.3002 5.66848 51.8645 5.70458 52.5967C5.80898 54.7144 6.06368 56.8013 6.45944 58.8453C6.5988 59.565 6.1283 60.2615 5.40854 60.4009C4.68879 60.5402 3.99234 60.0697 3.85298 59.35C3.4335 57.1835 3.16357 54.9716 3.05293 52.7275C3.01683 51.9952 3.58116 51.3724 4.31339 51.3363ZM94.2858 64.1072C94.979 64.3457 95.3477 65.101 95.1093 65.7942C94.3785 67.919 93.5037 69.9684 92.4979 71.9325C92.1638 72.5851 91.3639 72.8432 90.7114 72.509C90.0588 72.1749 89.8007 71.375 90.1349 70.7225C91.0838 68.8693 91.9092 66.9357 92.5988 64.9308C92.8372 64.2375 93.5925 63.8688 94.2858 64.1072ZM6.13363 63.2156C6.83117 62.99 7.57954 63.3726 7.80517 64.0701C8.45411 66.0764 9.2425 68.0267 10.1605 69.908C10.482 70.5668 10.2085 71.3616 9.54964 71.6831C8.89077 72.0046 8.09603 71.7311 7.77453 71.0722C6.80212 69.0794 5.96682 67.0131 5.27916 64.8872C5.05353 64.1896 5.43609 63.4413 6.13363 63.2156ZM89.2316 75.0108C89.8388 75.4217 89.998 76.2469 89.5872 76.8541C88.3351 78.7047 86.9578 80.457 85.4692 82.1005C84.9771 82.6438 84.1376 82.6854 83.5943 82.1932C83.0509 81.7011 83.0094 80.8616 83.5015 80.3182C84.9068 78.7667 86.2067 77.1128 87.3883 75.3664C87.7992 74.7592 88.6244 74.6 89.2316 75.0108ZM10.9799 74.2148C11.5954 73.8166 12.4172 73.9926 12.8155 74.6081C13.957 76.3722 15.2211 78.0546 16.5978 79.6419C17.0782 80.1957 17.0186 81.0341 16.4648 81.5144C15.911 81.9948 15.0726 81.9352 14.5922 81.3814C13.1343 79.7004 11.7955 77.9187 10.5866 76.0505C10.1883 75.435 10.3644 74.6131 10.9799 74.2148ZM81.516 84.227C81.9963 84.7808 81.9367 85.6192 81.3829 86.0995C79.7019 87.5575 77.9202 88.8963 76.052 90.1052C75.4365 90.5035 74.6147 90.3274 74.2164 89.7119C73.8181 89.0964 73.9942 88.2746 74.6097 87.8763C76.3737 86.7348 78.0561 85.4706 79.6434 84.0939C80.1973 83.6136 81.0356 83.6731 81.516 84.227ZM18.4985 83.5927C18.9907 83.0494 19.8302 83.0078 20.3735 83.5C21.925 84.9052 23.579 86.2052 25.3254 87.3868C25.9326 87.7977 26.0918 88.6229 25.6809 89.2301C25.2701 89.8373 24.4448 89.9965 23.8376 89.5857C21.987 88.3336 20.2348 86.9563 18.5913 85.4677C18.0479 84.9756 18.0064 84.1361 18.4985 83.5927ZM71.6846 91.1421C72.0061 91.801 71.7326 92.5957 71.0738 92.9172C69.081 93.8896 67.0146 94.7249 64.8887 95.4126C64.1912 95.6382 63.4428 95.2557 63.2172 94.5581C62.9915 93.8606 63.3741 93.1122 64.0716 92.8866C66.0779 92.2376 68.0282 91.4493 69.9095 90.5313C70.5684 90.2098 71.3631 90.4833 71.6846 91.1421ZM28.1827 90.7099C28.5169 90.0573 29.3168 89.7992 29.9693 90.1334C31.8224 91.0823 33.756 91.9077 35.761 92.5972C36.4542 92.8357 36.823 93.591 36.5845 94.2842C36.3461 94.9775 35.5908 95.3462 34.8975 95.1078C32.7728 94.377 30.7234 93.5022 28.7592 92.4964C28.1067 92.1623 27.8486 91.3624 28.1827 90.7099ZM60.4024 95.2832C60.5417 96.003 60.0712 96.6994 59.3515 96.8388C57.185 97.2583 54.9732 97.5282 52.729 97.6388C51.9968 97.6749 51.3739 97.1106 51.3378 96.3784C51.3017 95.6461 51.866 95.0233 52.5983 94.9872C54.7159 94.8828 56.8028 94.6281 58.8468 94.2323C59.5666 94.093 60.263 94.5635 60.4024 95.2832ZM39.3853 95.0613C39.5385 94.3444 40.2439 93.8874 40.9608 94.0406C41.9813 94.2587 43.0168 94.4429 44.0661 94.5919C45.1155 94.7408 46.1613 94.852 47.2022 94.9265C47.9334 94.9789 48.4838 95.6141 48.4314 96.3454C48.3791 97.0766 47.7438 97.627 47.0126 97.5746C45.9104 97.4957 44.8034 97.378 43.693 97.2204C42.5827 97.0628 41.4866 96.8678 40.406 96.6369C39.6891 96.4837 39.2321 95.7783 39.3853 95.0613Z" fill="#627377"/>
</g>
<mask id="mask3_1197:3109" style="mask-type:alpha" maskUnits="userSpaceOnUse" x="89" y="36" width="13" height="36">
<rect x="89" y="36" width="13" height="36" fill="#C4C4C4"/>
</mask>
<g mask="url(#mask3_1197:3109)">
<path fill-rule="evenodd" clip-rule="evenodd" d="M52.0106 3.02738C53.1149 3.06734 54.2254 3.14593 55.3406 3.26426C56.4558 3.38258 57.5581 3.53877 58.6462 3.73143C59.3681 3.85924 59.8497 4.54807 59.7219 5.26996C59.5941 5.99186 58.9052 6.47345 58.1833 6.34563C57.1558 6.1637 56.1145 6.01613 55.0605 5.90431C54.0066 5.79248 52.9575 5.71825 51.9146 5.68051C51.182 5.654 50.6095 5.03858 50.6361 4.30594C50.6626 3.5733 51.278 3.00087 52.0106 3.02738ZM47.7303 4.37552C47.7922 5.10602 47.2502 5.7484 46.5197 5.81032C44.4071 5.98938 42.3304 6.31756 40.3017 6.7852C39.5873 6.94987 38.8747 6.50424 38.71 5.78985C38.5454 5.07546 38.991 4.36284 39.7054 4.19817C41.8557 3.70251 44.0566 3.35469 46.2955 3.16493C47.026 3.10302 47.6684 3.64502 47.7303 4.37552ZM62.5483 5.94773C62.7621 5.24649 63.5039 4.85136 64.2052 5.06518C66.3544 5.72053 68.4334 6.52245 70.4318 7.4583C71.0957 7.76922 71.3819 8.55948 71.071 9.22341C70.7601 9.88734 69.9698 10.1735 69.3059 9.8626C67.4204 8.97965 65.4589 8.22302 63.4309 7.60462C62.7296 7.39079 62.3345 6.64898 62.5483 5.94773ZM35.9226 6.61381C36.1727 7.30296 35.8168 8.06436 35.1276 8.31446C33.1455 9.0338 31.2242 9.89051 29.3765 10.8743C28.7294 11.2189 27.9255 10.9736 27.581 10.3265C27.2364 9.67938 27.4817 8.87548 28.1288 8.53093C30.086 7.4888 32.1216 6.58111 34.2219 5.81886C34.9111 5.56876 35.6725 5.92467 35.9226 6.61381ZM73.6235 10.6139C74.0126 9.99263 74.8317 9.80442 75.4531 10.1936C77.3467 11.3796 79.1465 12.6942 80.8414 14.1238C81.4018 14.5965 81.473 15.434 81.0003 15.9944C80.5276 16.5548 79.6902 16.6259 79.1298 16.1532C77.5296 14.8036 75.8309 13.5628 74.0438 12.4435C73.4225 12.0544 73.2343 11.2353 73.6235 10.6139ZM83.1061 17.9996C83.6427 17.5 84.4826 17.53 84.9822 18.0665C86.4986 19.695 87.8994 21.4284 89.1735 23.2528C89.5932 23.8538 89.4463 24.6813 88.8452 25.1011C88.2442 25.5209 87.4166 25.3739 86.9969 24.7728C85.7938 23.0502 84.4711 21.4134 83.0392 19.8757C82.5396 19.3391 82.5696 18.4992 83.1061 17.9996ZM25.1012 11.8452C25.521 12.4462 25.374 13.2738 24.773 13.6935C23.0503 14.8966 21.4136 16.2193 19.8758 17.6512C19.3393 18.1508 18.4993 18.1208 17.9997 17.5843C17.5001 17.0477 17.5301 16.2078 18.0666 15.7082C19.6952 14.1918 21.4285 12.791 23.2529 11.5169C23.8539 11.0971 24.6815 11.2441 25.1012 11.8452ZM90.3639 27.5808C91.011 27.2363 91.8149 27.4815 92.1595 28.1287C93.2016 30.0859 94.1093 32.1215 94.8715 34.2218C95.1216 34.9109 94.7657 35.6724 94.0766 35.9225C93.3874 36.1726 92.626 35.8166 92.3759 35.1275C91.6566 33.1454 90.7999 31.2241 89.8161 29.3764C89.4715 28.7293 89.7168 27.9254 90.3639 27.5808ZM15.9945 19.6901C16.5549 20.1628 16.626 21.0002 16.1534 21.5606C14.8037 23.1608 13.5629 24.8595 12.4437 26.6465C12.0545 27.2679 11.2354 27.4561 10.6141 27.0669C9.99277 26.6778 9.80456 25.8586 10.1937 25.2373C11.3797 23.3437 12.6943 21.5439 14.124 19.8489C14.5966 19.2885 15.4341 19.2174 15.9945 19.6901ZM9.22355 29.6194C9.88748 29.9303 10.1736 30.7206 9.86274 31.3845C8.97979 33.2699 8.22316 35.2315 7.60476 37.2595C7.39093 37.9608 6.64912 38.3559 5.94787 38.1421C5.24663 37.9282 4.8515 37.1864 5.06532 36.4852C5.72067 34.336 6.52259 32.257 7.45844 30.2586C7.76936 29.5947 8.55962 29.3085 9.22355 29.6194ZM94.9005 38.7099C95.6149 38.5452 96.3275 38.9909 96.4922 39.7052C96.9879 41.8555 97.3357 44.0565 97.5255 46.2954C97.5874 47.0259 97.0454 47.6683 96.3149 47.7302C95.5844 47.7921 94.942 47.2501 94.8801 46.5196C94.701 44.4069 94.3728 42.3303 93.9052 40.3016C93.7405 39.5872 94.1862 38.8746 94.9005 38.7099ZM5.2701 40.9685C5.99199 41.0963 6.47359 41.7852 6.34577 42.507C6.16384 43.5346 6.01627 44.5759 5.90445 45.6299C5.79262 46.6838 5.71839 47.7329 5.68065 48.7758C5.65414 49.5084 5.03872 50.0808 4.30608 50.0543C3.57344 50.0278 3.00101 49.4124 3.02752 48.6798C3.06748 47.5754 3.14607 46.465 3.2644 45.3498C3.38272 44.2345 3.53891 43.1323 3.73157 42.0442C3.85938 41.3223 4.54821 40.8407 5.2701 40.9685ZM96.3844 50.6359C97.1171 50.6624 97.6895 51.2779 97.663 52.0105C97.623 53.1148 97.5445 54.2253 97.4261 55.3405C97.3078 56.4557 97.1516 57.558 96.959 58.6461C96.8311 59.368 96.1423 59.8496 95.4204 59.7217C94.6985 59.5939 94.2169 58.9051 94.3448 58.1832C94.5267 57.1556 94.6743 56.1143 94.7861 55.0604C94.8979 54.0064 94.9721 52.9573 95.0099 51.9145C95.0364 51.1818 95.6518 50.6094 96.3844 50.6359ZM4.37566 52.9601C5.10616 52.8981 5.74854 53.4402 5.81045 54.1707C5.98952 56.2833 6.3177 58.3599 6.78534 60.3887C6.95001 61.1031 6.50438 61.8157 5.78999 61.9804C5.0756 62.145 4.36298 61.6994 4.19831 60.985C3.70265 58.8347 3.35483 56.6337 3.16507 54.3949C3.10316 53.6644 3.64515 53.022 4.37566 52.9601ZM94.7427 62.5482C95.4439 62.762 95.839 63.5038 95.6252 64.2051C94.9699 66.3543 94.1679 68.4333 93.2321 70.4317C92.9212 71.0956 92.1309 71.3818 91.467 71.0709C90.8031 70.7599 90.5169 69.9697 90.8278 69.3058C91.7107 67.4203 92.4674 65.4588 93.0858 63.4307C93.2996 62.7295 94.0414 62.3344 94.7427 62.5482ZM6.61395 64.7678C7.30309 64.5177 8.0645 64.8736 8.3146 65.5628C9.03393 67.5448 9.89065 69.4662 10.8745 71.3139C11.219 71.961 10.9737 72.7649 10.3266 73.1094C9.67952 73.454 8.87562 73.2087 8.53107 72.5616C7.48894 70.6044 6.58125 68.5688 5.819 66.4684C5.5689 65.7793 5.92481 65.0179 6.61395 64.7678ZM90.0764 73.6233C90.6978 74.0125 90.886 74.8316 90.4968 75.4529C89.3108 77.3466 87.9962 79.1463 86.5665 80.8413C86.0939 81.4017 85.2564 81.4728 84.696 81.0002C84.1356 80.5275 84.0645 79.69 84.5372 79.1296C85.8868 77.5295 87.1276 75.8307 88.2468 74.0437C88.636 73.4224 89.4551 73.2342 90.0764 73.6233ZM11.8453 75.5892C12.4464 75.1694 13.2739 75.3164 13.6937 75.9174C14.8967 77.6401 16.2194 79.2768 17.6513 80.8146C18.1509 81.3511 18.1209 82.1911 17.5844 82.6907C17.0479 83.1902 16.2079 83.1603 15.7083 82.6238C14.1919 80.9952 12.7911 79.2619 11.517 77.4375C11.0973 76.8364 11.2443 76.0089 11.8453 75.5892ZM82.6908 83.106C83.1904 83.6425 83.1604 84.4825 82.6239 84.9821C80.9954 86.4985 79.262 87.8993 77.4376 89.1734C76.8366 89.5931 76.009 89.4461 75.5893 88.8451C75.1695 88.244 75.3165 87.4165 75.9176 86.9967C77.6402 85.7937 79.277 84.471 80.8147 83.0391C81.3512 82.5395 82.1912 82.5694 82.6908 83.106ZM19.6902 84.6959C20.1629 84.1355 21.0004 84.0644 21.5608 84.537C23.1609 85.8866 24.8597 87.1275 26.6467 88.2467C27.268 88.6359 27.4562 89.455 27.0671 90.0763C26.6779 90.6976 25.8588 90.8858 25.2375 90.4967C23.3438 89.3107 21.5441 87.996 19.8491 86.5664C19.2887 86.0937 19.2176 85.2563 19.6902 84.6959ZM73.1096 90.3638C73.4541 91.0109 73.2088 91.8148 72.5617 92.1593C70.6045 93.2015 68.5689 94.1091 66.4686 94.8714C65.7794 95.1215 65.018 94.7656 64.7679 94.0764C64.5178 93.3873 64.8737 92.6259 65.5629 92.3758C67.545 91.6565 69.4663 90.7997 71.314 89.8159C71.9611 89.4714 72.765 89.7167 73.1096 90.3638ZM29.6195 91.4668C29.9304 90.8029 30.7207 90.5167 31.3846 90.8277C33.2701 91.7106 35.2316 92.4672 37.2597 93.0856C37.9609 93.2995 38.356 94.0413 38.1422 94.7425C37.9284 95.4438 37.1866 95.8389 36.4853 95.6251C34.3361 94.9697 32.2571 94.1678 30.2587 93.2319C29.5948 92.921 29.3086 92.1308 29.6195 91.4668ZM61.9805 94.9004C62.1452 95.6148 61.6995 96.3274 60.9851 96.4921C58.8348 96.9877 56.6339 97.3356 54.395 97.5253C53.6645 97.5872 53.0221 97.0452 52.9602 96.3147C52.8983 95.5842 53.4403 94.9419 54.1708 94.8799C56.2834 94.7009 58.3601 94.3727 60.3888 93.9051C61.1032 93.7404 61.8158 94.186 61.9805 94.9004ZM40.9686 95.4203C41.0965 94.6984 41.7853 94.2168 42.5072 94.3446C43.5348 94.5266 44.576 94.6741 45.63 94.7859C46.684 94.8978 47.733 94.972 48.7759 95.0097C49.5085 95.0363 50.081 95.6517 50.0545 96.3843C50.028 97.117 49.4125 97.6894 48.6799 97.6629C47.5756 97.6229 46.4651 97.5443 45.3499 97.426C44.2347 97.3077 43.1324 97.1515 42.0443 96.9588C41.3224 96.831 40.8408 96.1422 40.9686 95.4203Z" fill="#627377"/>
</g>
<path d="M96.9742 82.161C97.0785 80.8268 96.8659 79.4866 96.3547 78.2559C95.8435 77.0252 95.0491 75.941 94.0401 75.0969C93.0311 74.2528 91.8377 73.6742 90.5629 73.4109C89.2881 73.1476 87.9702 73.2076 86.723 73.5857L78.7376 65.363C78.5124 65.1309 78.2069 65.0003 77.8882 65L72.1586 65C71.8398 65 71.5341 65.1304 71.3086 65.3624C71.0832 65.5945 70.9566 65.9092 70.9566 66.2374L70.9566 72.0121C70.9566 72.3402 71.0832 72.655 71.3086 72.8871C71.5341 73.1191 71.8398 73.2495 72.1586 73.2495L74.9633 73.2495L74.9633 77.168C74.9633 77.4962 75.0899 77.8109 75.3154 78.043C75.5408 78.275 75.8465 78.4054 76.1653 78.4054L79.557 78.4054L81.0295 79.9213C81.558 79.477 82.1253 79.0842 82.7243 78.7478L80.739 76.706C80.5138 76.4739 80.2082 76.3433 79.8895 76.343L76.9666 76.343L76.9666 72.4266C76.9666 72.0984 76.84 71.7837 76.6146 71.5516C76.3892 71.3195 76.0834 71.1892 75.7646 71.1892L72.9599 71.1892L72.9599 67.0644L77.5536 67.0644L86.2081 75.9739L86.8151 75.7305C87.5921 75.4208 88.4231 75.2808 89.2554 75.3192C90.0877 75.3577 90.9032 75.5738 91.6501 75.9539C92.3969 76.334 93.0589 76.8697 93.594 77.5271C94.1291 78.1845 94.5257 78.9492 94.7585 79.7728C95.6059 80.4533 96.3531 81.2577 96.9742 82.1589L96.9742 82.161ZM88.4859 88.7193C88.4859 88.9225 88.5248 89.1236 88.6003 89.3113C88.6758 89.4989 88.7865 89.6694 88.926 89.8131C89.0655 89.9567 89.2312 90.0706 89.4135 90.1484C89.5958 90.2261 89.7912 90.2661 89.9885 90.2661C90.1858 90.2661 90.3812 90.2261 90.5635 90.1484C90.7457 90.0706 90.9114 89.9567 91.0509 89.8131C91.1904 89.6694 91.3011 89.4989 91.3766 89.3113C91.4521 89.1236 91.491 88.9225 91.491 88.7193C91.491 88.3091 91.3327 87.9157 91.0509 87.6256C90.7691 87.3355 90.387 87.1725 89.9885 87.1725C89.59 87.1725 89.2078 87.3355 88.926 87.6256C88.6442 87.9157 88.4859 88.3091 88.4859 88.7193ZM87.9851 79.4387C89.5426 79.4388 91.0734 79.8543 92.4285 80.6447C93.7836 81.435 94.9166 82.5733 95.7172 83.9486C96.5178 85.3239 96.9587 86.8892 96.9968 88.4921C97.035 90.0949 96.6691 91.6806 95.9348 93.0946C95.2006 94.5086 94.123 95.7026 92.8072 96.5603C91.4913 97.4181 89.9821 97.9102 88.4265 97.9888C86.8709 98.0675 85.3221 97.7299 83.9309 97.0089C82.5398 96.288 81.3538 95.2084 80.4886 93.8753L76.3817 93.8753L74.811 95.4901C74.5857 95.7218 74.2801 95.852 73.9616 95.852C73.6431 95.852 73.3376 95.7218 73.1122 95.4901L70.9566 93.271L68.819 95.4736C68.6994 95.5967 68.5559 95.6924 68.3979 95.7544C68.2399 95.8165 68.071 95.8436 67.9021 95.8338C67.7333 95.8241 67.5683 95.7778 67.418 95.698C67.2677 95.6181 67.1355 95.5065 67.03 95.3705L63.2637 90.5239C63.093 90.3044 63 90.0317 63 89.7505C63 89.4694 63.093 89.1966 63.2637 88.9771L67.1101 84.0274C67.2227 83.8827 67.3653 83.7659 67.5276 83.6856C67.6899 83.6053 67.8676 83.5635 68.0477 83.5634L80.4885 83.5634C81.3118 82.2937 82.4267 81.253 83.7345 80.5334C85.0422 79.8139 86.5023 79.4378 87.9851 79.4387ZM94.9969 88.7193C94.9976 87.1297 94.4885 85.5844 93.5488 84.323C92.6091 83.0617 91.2912 82.155 89.7996 81.7437C88.3081 81.3323 86.7264 81.4393 85.3 82.048C83.8736 82.6567 82.6823 83.7331 81.9109 85.1102C81.823 85.2669 81.6966 85.3971 81.5443 85.4876C81.392 85.5781 81.2193 85.6258 81.0435 85.6258L68.4323 85.6258L65.227 89.7505L68.0337 93.3617L70.1072 91.2292C70.3325 90.9975 70.638 90.8673 70.9566 90.8673C71.2751 90.8673 71.5806 90.9975 71.806 91.2292L73.9616 93.4483L75.1977 92.1759C75.4229 91.9437 75.7284 91.8132 76.0471 91.8129L81.0435 91.8129C81.2193 91.8129 81.392 91.8605 81.5443 91.951C81.6966 92.0415 81.823 92.1717 81.9109 92.3285C82.6823 93.7055 83.8736 94.7819 85.3 95.3907C86.7264 95.9994 88.3081 96.1064 89.7997 95.695C91.2912 95.2836 92.6091 94.3769 93.5488 93.1156C94.4885 91.8543 94.9976 90.3089 94.9969 88.7193Z" fill="#627377"/>
<path d="M65.5312 38.3333C65.8379 38.3333 66.132 38.4562 66.3488 38.675C66.5657 38.8938 66.6875 39.1906 66.6875 39.5V60.5C66.6875 60.8094 66.5657 61.1062 66.3488 61.325C66.132 61.5438 65.8379 61.6667 65.5312 61.6667H35.4688C35.1621 61.6667 34.868 61.5438 34.6512 61.325C34.4343 61.1062 34.3125 60.8094 34.3125 60.5V39.5C34.3125 39.1906 34.4343 38.8938 34.6512 38.675C34.868 38.4562 35.1621 38.3333 35.4688 38.3333H65.5312ZM35.4688 36C34.5488 36 33.6665 36.3687 33.016 37.0251C32.3655 37.6815 32 38.5717 32 39.5V60.5C32 61.4283 32.3655 62.3185 33.016 62.9749C33.6665 63.6313 34.5488 64 35.4688 64H65.5312C66.4512 64 67.3335 63.6313 67.984 62.9749C68.6345 62.3185 69 61.4283 69 60.5V39.5C69 38.5717 68.6345 37.6815 67.984 37.0251C67.3335 36.3687 66.4512 36 65.5312 36H35.4688Z" fill="#627377"/>
<path d="M39 51.1667C39 50.8572 39.1212 50.5605 39.3368 50.3417C39.5525 50.1229 39.845 50 40.15 50H60.85C61.155 50 61.4475 50.1229 61.6632 50.3417C61.8788 50.5605 62 50.8572 62 51.1667C62 51.4761 61.8788 51.7728 61.6632 51.9916C61.4475 52.2104 61.155 52.3333 60.85 52.3333H40.15C39.845 52.3333 39.5525 52.2104 39.3368 51.9916C39.1212 51.7728 39 51.4761 39 51.1667ZM39 55.8333C39 55.5239 39.1212 55.2272 39.3368 55.0084C39.5525 54.7896 39.845 54.6667 40.15 54.6667H53.95C54.255 54.6667 54.5475 54.7896 54.7632 55.0084C54.9788 55.2272 55.1 55.5239 55.1 55.8333C55.1 56.1428 54.9788 56.4395 54.7632 56.6583C54.5475 56.8771 54.255 57 53.95 57H40.15C39.845 57 39.5525 56.8771 39.3368 56.6583C39.1212 56.4395 39 56.1428 39 55.8333ZM39 44.1667C39 43.8572 39.1212 43.5605 39.3368 43.3417C39.5525 43.1229 39.845 43 40.15 43H60.85C61.155 43 61.4475 43.1229 61.6632 43.3417C61.8788 43.5605 62 43.8572 62 44.1667V46.5C62 46.8094 61.8788 47.1062 61.6632 47.325C61.4475 47.5437 61.155 47.6667 60.85 47.6667H40.15C39.845 47.6667 39.5525 47.5437 39.3368 47.325C39.1212 47.1062 39 46.8094 39 46.5V44.1667Z" fill="#8BC540"/>
<path d="M20.9622 2.21429C20.6664 2.21429 20.3827 2.33093 20.1736 2.53856C19.9644 2.74619 19.8469 3.0278 19.8469 3.32143V5.53571C19.8469 5.82935 19.9644 6.11095 20.1736 6.31858C20.3827 6.52621 20.6664 6.64286 20.9622 6.64286C21.258 6.64286 21.5417 6.52621 21.7509 6.31858C21.96 6.11095 22.0775 5.82935 22.0775 5.53571C22.0775 5.24208 22.195 4.96048 22.4042 4.75285C22.6133 4.54522 22.897 4.42857 23.1928 4.42857C23.4886 4.42857 23.7723 4.54522 23.9815 4.75285C24.1906 4.96048 24.3081 5.24208 24.3081 5.53571C24.3084 6.08326 24.1723 6.62238 23.9119 7.10509C23.6515 7.58779 23.2749 7.99911 22.8157 8.30243C22.3565 8.60575 21.8289 8.79167 21.2798 8.84363C20.7307 8.8956 20.1771 8.812 19.6684 8.60028C19.4714 10.353 19.0136 12.0671 18.31 13.6865C17.3932 15.7657 16.1887 17.2493 15.1024 18.4516C14.3261 19.313 13.8242 20.5486 13.5276 22.0189C13.2309 23.4803 13.155 25.0768 13.155 26.5714C13.155 27.2424 12.9097 28.0528 12.4635 28.7857H21.8879C21.6558 28.1388 21.2279 27.5788 20.663 27.1824C20.098 26.7861 19.4234 26.5727 18.7316 26.5714H17.6163C17.3205 26.5714 17.0368 26.4548 16.8276 26.2472C16.6185 26.0395 16.501 25.7579 16.501 25.4643C16.501 25.1707 16.6185 24.889 16.8276 24.6814C17.0368 24.4738 17.3205 24.3571 17.6163 24.3571H18.7316C19.113 24.3571 19.4855 24.3948 19.8469 24.4679V21.0357C19.8469 20.7421 19.9644 20.4605 20.1736 20.2528C20.3827 20.0452 20.6664 19.9286 20.9622 19.9286C21.258 19.9286 21.5417 20.0452 21.7509 20.2528C21.96 20.4605 22.0775 20.7421 22.0775 21.0357V25.4643C23.1482 26.2614 23.92 27.435 24.1966 28.7857H28.5798C28.349 28.1379 27.9216 27.577 27.3563 27.1804C26.791 26.7838 26.1157 26.5711 25.4234 26.5714C25.1277 26.5714 24.844 26.4548 24.6348 26.2472C24.4256 26.0395 24.3081 25.7579 24.3081 25.4643V9.96428C24.3081 9.67065 24.4256 9.38905 24.6348 9.18142C24.844 8.97379 25.1277 8.85714 25.4234 8.85714H27.6541C27.9499 8.85714 28.2336 8.7405 28.4427 8.53287C28.6519 8.32524 28.7694 8.04363 28.7694 7.75V5.68186C28.7694 5.49052 28.7195 5.30244 28.6245 5.13596C28.5295 4.96948 28.3927 4.83028 28.2273 4.73193L24.2635 2.3715C24.0903 2.26855 23.8922 2.21422 23.6903 2.21429H20.9622ZM8.6938 28.7857C9.39421 28.7857 9.93402 28.4491 10.3333 27.9554C10.7571 27.4261 10.9244 26.8327 10.9244 26.5714C10.9244 25.0214 11.0025 23.2566 11.3393 21.5826C11.6761 19.9219 12.2918 18.2501 13.4383 16.9769C14.4577 15.8476 15.486 14.5634 16.2712 12.7941C17.0497 11.0294 17.6163 8.71986 17.6163 5.53571V3.32143C17.6163 2.44053 17.9688 1.59571 18.5963 0.972824C19.2238 0.349935 20.0748 0 20.9622 0H23.6903C24.2969 5.7206e-05 24.8922 0.163851 25.4123 0.473857L29.3761 2.83429C29.8714 3.1294 30.2812 3.54678 30.5658 4.04579C30.8504 4.5448 31 5.10844 31 5.68186V7.75C31 8.6309 30.6475 9.47572 30.02 10.0986C29.3925 10.7215 28.5415 11.0714 27.6541 11.0714H26.5388V24.4679C27.7984 24.7231 28.9304 25.4025 29.7434 26.3911C30.5563 27.3797 31.0003 28.6167 31 29.8929C31 30.1865 30.8825 30.4681 30.6733 30.6757C30.4642 30.8834 30.1805 31 29.8847 31H8.13614C6.81982 31.0004 5.53827 30.5805 4.48086 29.8023C3.42345 29.024 2.64627 27.9288 2.26415 26.6784C1.88203 25.428 1.91525 24.0887 2.35888 22.8585C2.80252 21.6282 3.63305 20.5723 4.72776 19.8466C4.84939 19.7628 4.98664 19.7038 5.13148 19.6731C5.27632 19.6425 5.42587 19.6408 5.57138 19.6681C5.7169 19.6955 5.85547 19.7513 5.97902 19.8324C6.10257 19.9134 6.20861 20.0181 6.29097 20.1403C6.37332 20.2625 6.43034 20.3997 6.45869 20.544C6.48704 20.6883 6.48615 20.8368 6.45609 20.9807C6.42602 21.1247 6.36738 21.2612 6.28357 21.3825C6.19977 21.5037 6.09248 21.6071 5.96798 21.6867C5.27077 22.1482 4.74167 22.8202 4.45892 23.6032C4.17618 24.3863 4.15479 25.2389 4.39792 26.035C4.64106 26.8311 5.13581 27.5284 5.80902 28.0237C6.48222 28.5191 7.29815 28.7863 8.13614 28.7857H8.6938Z" fill="#627377"/>
<rect x="74.3906" y="7.98499" width="18.5298" height="22.2357" fill="#8BC540"/>
<path d="M75.3185 4.27887C74.5814 4.27887 73.8744 4.58147 73.3531 5.12009C72.8319 5.65872 72.5391 6.38925 72.5391 7.15098V30.1279C72.5391 30.8896 72.8319 31.6202 73.3531 32.1588C73.8744 32.6974 74.5814 33 75.3185 33H91.9953C92.7325 33 93.4394 32.6974 93.9607 32.1588C94.4819 31.6202 94.7748 30.8896 94.7748 30.1279V7.15098C94.7748 6.38925 94.4819 5.65872 93.9607 5.12009C93.4394 4.58147 92.7325 4.27887 91.9953 4.27887L75.3185 4.27887ZM83.6569 8.58704C85.4998 8.58704 87.2672 9.34353 88.5704 10.6901C89.8735 12.0367 90.6056 13.863 90.6056 15.7673C90.6056 17.6717 89.8735 19.498 88.5704 20.8445C87.2672 22.1911 85.4998 22.9476 83.6569 22.9476C81.814 22.9476 80.0466 22.1911 78.7435 20.8445C77.4403 19.498 76.7083 17.6717 76.7083 15.7673C76.7083 13.863 77.4403 12.0367 78.7435 10.6901C80.0466 9.34353 81.814 8.58704 83.6569 8.58704ZM83.6569 10.0231C83.0871 10.9135 82.6146 11.8756 82.3228 12.8952H84.9911C84.692 11.8726 84.242 10.9038 83.6569 10.0231ZM81.8503 10.339C80.5717 10.7842 79.4877 11.7033 78.8484 12.8952H80.8775C81.1276 12.0049 81.4333 11.1432 81.8503 10.339ZM85.4497 10.339C85.8666 11.1432 86.1862 12.0049 86.4364 12.8952H88.4654C87.8261 11.7033 86.7282 10.7986 85.4497 10.339ZM78.2787 14.3313C78.1675 14.7908 78.098 15.2647 78.098 15.7673C78.098 16.2699 78.1675 16.7438 78.2787 17.2034H80.6273C80.5717 16.7295 80.53 16.2556 80.53 15.7673C80.53 15.2791 80.5717 14.8052 80.6273 14.3313H78.2787ZM82.0309 14.3313C81.9614 14.7908 81.9198 15.2791 81.9198 15.7673C81.9198 16.2556 81.9614 16.7295 82.0309 17.2034H85.2829C85.3385 16.7295 85.3941 16.2556 85.3941 15.7673C85.3941 15.2791 85.3385 14.7908 85.2829 14.3313H82.0309ZM86.6865 14.3313C86.7421 14.8052 86.7838 15.2791 86.7838 15.7673C86.7838 16.2556 86.7421 16.7295 86.6865 17.2034H89.0352C89.1464 16.7438 89.2158 16.2699 89.2158 15.7673C89.2158 15.2647 89.1464 14.7908 89.0352 14.3313H86.6865ZM78.8484 18.6394C79.4877 19.8314 80.5717 20.7361 81.8503 21.1956C81.4333 20.3914 81.1276 19.5442 80.8775 18.6394H78.8484ZM82.3228 18.6394C82.6146 19.6734 83.0871 20.6212 83.6569 21.5115C84.2406 20.6212 84.6992 19.6734 84.9911 18.6394H82.3228ZM86.4364 18.6394C86.1862 19.5442 85.8666 20.3914 85.4497 21.1956C86.7282 20.7361 87.8261 19.8314 88.4654 18.6394H86.4364ZM76.7083 25.8197H90.6056V28.6918H76.7083V25.8197Z" fill="#627377"/>
<rect x="9.5332" y="76.9752" width="22.3795" height="12.207" fill="#8BC540"/>
<path d="M31.8029 77.7381V77.2381H31.3029H11.3657H10.8657V77.7381V86.7005L11.8272 86.8931L13.3666 83.2037L13.3669 83.203C13.5149 82.8468 13.8513 82.625 14.2139 82.625H31.3029H31.8029V82.125V77.7381Z" fill="#627377" stroke="#627377"/>
</svg>
