<svg width="120" height="25" viewBox="0 0 120 25" fill="none" xmlns="http://www.w3.org/2000/svg">
<path d="M9.14952 19.9678C3.99996 19.9678 0 15.6128 0 10.0524C0 4.49205 3.99996 0.137085 9.14952 0.137085C13.4247 0.137085 16.5831 2.57529 17.7542 6.46434H13.8607C13.0159 4.73909 11.3279 3.45159 9.14952 3.45159C6.04555 3.45159 3.59437 6.46434 3.59437 10.05C3.59437 13.6655 6.04555 16.6782 9.14952 16.6782C11.3007 16.6782 13.0159 15.336 13.8607 13.6108H17.727C16.5287 17.4749 13.3431 19.9678 9.14952 19.9678Z" fill="#0092D2"/>
<path d="M23.7446 16.2703H32.8997V19.6387H20.123V0.630371H23.7446V16.2703Z" fill="#0092D2"/>
<path d="M39.0221 19.6387H35.4277V0.630371H39.0221V19.6387Z" fill="#0092D2"/>
<path d="M50.8655 19.9678C45.7192 19.9678 41.7168 15.6128 41.7168 10.0524C41.7168 4.49205 45.7168 0.137085 50.8655 0.137085C55.1406 0.137085 58.2998 2.57529 59.471 6.46434H55.5766C54.7326 4.73909 53.0439 3.45159 50.8655 3.45159C47.7615 3.45159 45.3112 6.46434 45.3112 10.05C45.3112 13.6655 47.7615 16.6782 50.8655 16.6782C53.0167 16.6782 54.7326 15.336 55.5766 13.6108H59.443C58.2454 17.4749 55.059 19.9678 50.8655 19.9678Z" fill="#0092D2"/>
<path d="M100.938 19.6387H97.3438V0.630371H100.938V19.6387Z" fill="#2F2B58"/>
<path d="M111.475 19.6387H104.479V0.630371H111.477C116.732 0.630371 120 4.27319 120 10.1345C119.998 15.9411 116.649 19.6387 111.475 19.6387ZM111.475 3.99959H108.071V16.2703H111.475C115.75 16.2703 116.404 12.4078 116.404 10.1072C116.404 7.31329 115.533 3.99959 111.475 3.99959Z" fill="#2F2B58"/>
<path d="M80.862 12.0143C81.3465 11.1018 81.9431 10.2543 82.638 9.49161C83.4852 8.55898 84.3588 7.64888 85.222 6.73153C85.6916 6.23182 86.1731 5.74418 86.6339 5.23642C86.9403 4.89846 86.9611 4.60796 86.7563 4.22332C86.4864 3.69429 86.036 3.28089 85.4875 3.05894C85.2764 2.97284 85.0508 2.93422 84.8476 3.06618C84.7116 3.15127 84.5865 3.25259 84.4748 3.36794C82.8076 5.11894 81.1423 6.87235 79.4788 8.62818C78.6628 9.48651 77.846 10.3467 77.0284 11.2088C76.438 11.8327 75.8487 12.4569 75.2605 13.0813C75.2077 13.1376 75.1493 13.1891 75.0821 13.2535L71.9989 10.1901C72.0597 10.1209 72.1069 10.0645 72.1589 10.0106L74.8709 7.1556C75.9732 5.99578 77.0754 4.83623 78.1772 3.67694C79.0657 2.7419 79.9529 1.80551 80.8388 0.86778C80.8794 0.819259 80.9166 0.767898 80.95 0.714084L80.9268 0.677069H80.7068C78.8668 0.677069 78.0388 0.677069 76.2028 0.673046C76.1297 0.66913 76.0566 0.682105 75.9892 0.710977C75.9219 0.739849 75.8619 0.783851 75.8141 0.839615C74.7613 1.96618 73.7055 3.09274 72.6469 4.2193C71.5077 5.43223 70.3688 6.6449 69.2301 7.85729C69.1977 7.89642 69.1567 7.92746 69.1103 7.94799C69.064 7.96851 69.0135 7.97795 68.9629 7.97558C68.1917 7.97156 67.0205 7.97558 66.2493 7.97558C66.1933 7.97558 66.1373 7.96914 66.0653 7.96431C66.0605 7.87419 66.0525 7.79533 66.0525 7.71647C66.0525 5.55669 66.0525 3.39691 66.0525 1.23713C66.0525 1.10919 66.0525 0.982045 66.0613 0.854905C66.0701 0.727764 66.007 0.677069 65.8742 0.677874C64.5446 0.681897 63.8198 0.677873 62.4902 0.682702C62.4102 0.682702 62.3302 0.689139 62.2422 0.693967V19.65C62.3222 19.654 62.3838 19.6596 62.4462 19.6596H65.8134C65.8478 19.6596 65.8821 19.6596 65.9173 19.6596C65.9346 19.662 65.9523 19.6604 65.9689 19.655C65.9855 19.6496 66.0006 19.6405 66.0133 19.6283C66.0259 19.6162 66.0356 19.6013 66.0417 19.5849C66.0478 19.5684 66.0502 19.5508 66.0485 19.5333C66.0485 19.4697 66.0485 19.4062 66.0485 19.3426V12.4521C66.1229 12.444 66.1621 12.436 66.2013 12.436C67.0301 12.436 67.8589 12.436 68.6877 12.436C68.7709 12.4413 68.8496 12.4757 68.9101 12.5333C70.1325 13.7404 71.3517 14.9501 72.5677 16.1625C73.6951 17.2826 74.8218 18.4038 75.9476 19.5261C75.9906 19.5713 76.0429 19.6066 76.1007 19.6295C76.1586 19.6524 76.2207 19.6624 76.2828 19.6588C78.0244 19.6588 79.1628 19.6588 80.9028 19.6588H81.6228C81.6228 19.6588 80.6292 19.0666 80.15 17.5819C80.0335 17.2045 79.9516 16.8172 79.9052 16.4248C79.8146 15.5024 79.9043 14.571 80.1692 13.6832C80.3483 13.1065 80.5802 12.5478 80.862 12.0143Z" fill="#0092D2"/>
<path d="M93.6728 8.33612C93.7152 8.29431 93.7486 8.24415 93.7709 8.18877C93.7932 8.13338 93.8039 8.07397 93.8023 8.01424C93.8023 5.65383 93.8023 3.29342 93.8023 0.933004C93.7977 0.854725 93.7883 0.776799 93.7743 0.699646H89.6376L89.6144 0.742294C89.6432 0.782529 89.6696 0.822762 89.6992 0.863801C89.9032 1.13498 90.1216 1.39731 90.3096 1.67975C90.7663 2.3684 91.056 3.15531 91.1552 3.97713C91.1992 4.41407 91.2048 4.85406 91.172 5.29199C91.1392 5.96068 90.9184 6.57948 90.6 7.16208C90.3288 7.65937 89.96 8.07781 89.5744 8.48498C88.4448 9.67592 87.316 10.8682 86.188 12.0618C85.6736 12.6074 85.1896 13.1795 84.8096 13.8321C84.5452 14.2604 84.394 14.7496 84.3704 15.2532C84.3504 15.9179 84.5648 16.5125 84.92 17.0621C84.98 17.1547 85.0528 17.24 85.1256 17.3365C85.1912 17.2754 85.2352 17.2384 85.2744 17.1965C85.8424 16.5989 86.4096 16.0007 86.976 15.4021L90.0792 12.127C91.277 10.8631 92.4749 9.59947 93.6728 8.33612Z" fill="#FCB319"/>
<path d="M89.0351 19.6435H93.8038V14.6046C92.2158 16.2703 90.5783 17.9327 89.0039 19.5992L89.0351 19.6435Z" fill="#FCB319"/>
<path d="M63.7225 22.0672H63.3947C63.3955 22.0124 63.3853 21.958 63.3645 21.9074C63.3438 21.8568 63.3129 21.8109 63.274 21.7727C63.2365 21.7332 63.1912 21.7019 63.1411 21.6809C63.0911 21.6598 63.0372 21.6494 62.9829 21.6504C62.9291 21.6492 62.8756 21.6596 62.826 21.6806C62.7764 21.7017 62.7318 21.7331 62.6951 21.7727C62.6569 21.8114 62.6268 21.8574 62.6065 21.908C62.5862 21.9585 62.5761 22.0127 62.5767 22.0672C62.5765 22.1213 62.5869 22.1748 62.6074 22.2248C62.6279 22.2748 62.6579 22.3202 62.6959 22.3584C62.7339 22.3967 62.779 22.4269 62.8287 22.4475C62.8784 22.4681 62.9316 22.4786 62.9853 22.4784C63.1804 22.4794 63.3672 22.5578 63.5052 22.6966C63.6432 22.8353 63.7213 23.0232 63.7225 23.2195C63.7237 23.3173 63.7055 23.4143 63.6688 23.5048C63.6321 23.5953 63.5778 23.6775 63.509 23.7466C63.4425 23.818 63.3617 23.8746 63.2721 23.9127C63.1824 23.9509 63.0858 23.9696 62.9885 23.9679C62.8909 23.9681 62.7943 23.9488 62.7042 23.9113C62.614 23.8737 62.5322 23.8185 62.4633 23.749C62.3945 23.6794 62.34 23.5968 62.3031 23.5059C62.2662 23.415 62.2475 23.3177 62.2481 23.2195H62.5751C62.5743 23.2745 62.5846 23.329 62.6055 23.3798C62.6264 23.4306 62.6574 23.4766 62.6967 23.5148C62.7344 23.554 62.7797 23.5851 62.8297 23.6061C62.8797 23.6271 62.9335 23.6377 62.9877 23.6371C63.0415 23.638 63.0949 23.6276 63.1444 23.6065C63.194 23.5855 63.2387 23.5542 63.2756 23.5148C63.3137 23.476 63.3437 23.4298 63.3639 23.3791C63.3841 23.3284 63.394 23.2741 63.3931 23.2195C63.3936 23.1655 63.3834 23.1119 63.3631 23.0618C63.3428 23.0118 63.3128 22.9663 63.2748 22.9281C63.2369 22.8899 63.1917 22.8597 63.142 22.8393C63.0923 22.8188 63.039 22.8086 62.9853 22.8091C62.7902 22.8076 62.6036 22.729 62.4656 22.5902C62.3277 22.4514 62.2496 22.2635 62.2481 22.0672C62.247 21.9696 62.2653 21.8729 62.3018 21.7825C62.3383 21.6921 62.3924 21.61 62.4608 21.5409C62.5274 21.4693 62.6082 21.4125 62.698 21.3742C62.7878 21.336 62.8846 21.3171 62.9821 21.3188C63.0796 21.3189 63.1761 21.3384 63.2661 21.3761C63.3561 21.4138 63.4378 21.4689 63.5066 21.5385C63.5753 21.608 63.6298 21.6904 63.6669 21.7812C63.7039 21.8719 63.7228 21.9691 63.7225 22.0672Z" fill="#A3A5A8"/>
<path d="M66.6229 23.8358H66.2941V23.5139C66.1174 23.7165 65.8835 23.86 65.6236 23.9254C65.3637 23.9907 65.0902 23.9749 64.8395 23.8799C64.5888 23.7849 64.3729 23.6154 64.2204 23.3938C64.068 23.1722 63.9863 22.9091 63.9863 22.6396C63.9863 22.3702 64.068 22.1071 64.2204 21.8855C64.3729 21.6639 64.5888 21.4944 64.8395 21.3994C65.0902 21.3044 65.3637 21.2886 65.6236 21.3539C65.8835 21.4193 66.1174 21.5628 66.2941 21.7654V21.4475H66.6229V23.8358ZM66.2941 22.6457C66.2943 22.4155 66.2151 22.1925 66.0701 22.0145C65.9251 21.8365 65.7232 21.7146 65.4988 21.6695C65.2744 21.6245 65.0415 21.6591 64.8397 21.7675C64.6378 21.8759 64.4796 22.0514 64.392 22.2639C64.3043 22.4765 64.2927 22.7131 64.3591 22.9334C64.4254 23.1536 64.5656 23.3439 64.7559 23.4718C64.9461 23.5997 65.1745 23.6573 65.4022 23.6347C65.6299 23.6122 65.8428 23.5109 66.0045 23.3482C66.098 23.2572 66.1719 23.1479 66.2217 23.0271C66.2715 22.9063 66.2962 22.7765 66.2941 22.6457Z" fill="#A3A5A8"/>
<path d="M69.2222 21.4517L68.2391 23.8359H67.8767L66.8887 21.4517H67.2455L68.0615 23.403L68.8694 21.4517H69.2222Z" fill="#A3A5A8"/>
<path d="M71.8422 22.6457H69.5374C69.5372 22.8289 69.5874 23.0086 69.6824 23.1649C69.7774 23.3212 69.9136 23.448 70.0758 23.5313C70.238 23.6146 70.42 23.6511 70.6015 23.6368C70.7831 23.6225 70.9572 23.558 71.1046 23.4504C71.2716 23.3302 71.3963 23.1597 71.4606 22.9636H71.803C71.7333 23.2517 71.5691 23.5079 71.3368 23.6905C71.1046 23.8732 70.8178 23.9717 70.523 23.9702C70.2624 23.9699 70.0078 23.8919 69.7914 23.746C69.5749 23.6002 69.4062 23.393 69.3068 23.1508C69.2073 22.9085 69.1815 22.6421 69.2326 22.3851C69.2837 22.1281 69.4094 21.8921 69.5938 21.7069C69.7782 21.5217 70.013 21.3957 70.2686 21.3448C70.5242 21.2939 70.7891 21.3204 71.0297 21.4208C71.2704 21.5213 71.476 21.6913 71.6206 21.9093C71.7652 22.1274 71.8423 22.3836 71.8422 22.6457ZM71.4542 22.315C71.3864 22.1216 71.2607 21.9542 71.0944 21.8357C70.928 21.7173 70.7292 21.6537 70.5254 21.6537C70.3216 21.6537 70.1228 21.7173 69.9564 21.8357C69.7901 21.9542 69.6644 22.1216 69.5966 22.315H71.4542Z" fill="#A3A5A8"/>
<path d="M75.541 21.4517L73.1642 24.763H72.7578L73.4226 23.8368V21.4517H73.7522V23.3781L75.1346 21.4517H75.541Z" fill="#A3A5A8"/>
<path d="M77.9676 22.6458C77.9675 22.9523 77.8619 23.2492 77.6686 23.4861C77.4753 23.7229 77.2063 23.885 76.9075 23.9448C76.6087 24.0045 76.2986 23.9582 76.0299 23.8137C75.7613 23.6692 75.5507 23.4355 75.4342 23.1524C75.3176 22.8693 75.3023 22.5543 75.3907 22.2611C75.4792 21.9678 75.666 21.7145 75.9193 21.5443C76.1726 21.3741 76.4768 21.2975 76.78 21.3276C77.0831 21.3576 77.3666 21.4925 77.582 21.7092C77.7064 21.8306 77.8048 21.9763 77.8711 22.1374C77.9374 22.2985 77.9703 22.4715 77.9676 22.6458ZM77.638 22.6458C77.6381 22.4157 77.559 22.1926 77.414 22.0146C77.2689 21.8366 77.067 21.7147 76.8426 21.6697C76.6183 21.6247 76.3853 21.6593 76.1835 21.7677C75.9817 21.8761 75.8234 22.0515 75.7358 22.2641C75.6482 22.4767 75.6365 22.7133 75.7029 22.9335C75.7692 23.1538 75.9095 23.344 76.0997 23.4719C76.2899 23.5998 76.5183 23.6574 76.746 23.6349C76.9737 23.6123 77.1866 23.5111 77.3484 23.3483C77.4418 23.2574 77.5157 23.1481 77.5655 23.0273C77.6153 22.9064 77.64 22.7766 77.638 22.6458Z" fill="#A3A5A8"/>
<path d="M80.3376 23.8361H80.008V23.6751C79.8585 23.8174 79.6709 23.9125 79.4683 23.9487C79.2657 23.9849 79.057 23.9606 78.868 23.8789C78.679 23.7972 78.5179 23.6615 78.4046 23.4888C78.2913 23.316 78.2307 23.1136 78.2305 22.9067V21.4502H78.5593V22.9067C78.556 23.0044 78.5724 23.1018 78.6073 23.193C78.6423 23.2843 78.6951 23.3675 78.7627 23.4378C78.8303 23.508 78.9112 23.5639 79.0007 23.6021C79.0902 23.6403 79.1864 23.6599 79.2836 23.6599C79.3808 23.6599 79.477 23.6403 79.5665 23.6021C79.656 23.5639 79.737 23.508 79.8046 23.4378C79.8721 23.3675 79.925 23.2843 79.9599 23.193C79.9949 23.1018 80.0112 23.0044 80.008 22.9067V21.4502H80.3376V23.8361Z" fill="#A3A5A8"/>
<path d="M81.465 21.7824H81.3338C81.2905 21.7822 81.2476 21.7906 81.2075 21.8072C81.1675 21.8238 81.1311 21.8482 81.1004 21.879C81.0698 21.9099 81.0455 21.9465 81.029 21.9868C81.0126 22.0271 81.0042 22.0703 81.0044 22.1139V23.836H80.6758V21.4517H81.0044V21.5378C81.1048 21.4804 81.2184 21.4507 81.3338 21.4517H81.465V21.7824Z" fill="#A3A5A8"/>
<path d="M83.8262 21.7824H83.5632V23.836H83.2338V21.7824H82.9707V21.4517H83.2338V20.7894H83.5632V21.4517H83.8262V21.7824Z" fill="#A3A5A8"/>
<path d="M86.197 23.836H85.8674V22.5115C85.8674 22.3183 85.7911 22.1331 85.6553 21.9965C85.5196 21.8599 85.3354 21.7832 85.1434 21.7832C84.9514 21.7832 84.7673 21.8599 84.6315 21.9965C84.4957 22.1331 84.4194 22.3183 84.4194 22.5115V23.836H84.0898V20.7894H84.4194V21.743C84.5689 21.6008 84.7565 21.5057 84.9591 21.4695C85.1617 21.4333 85.3704 21.4575 85.5594 21.5393C85.7485 21.621 85.9096 21.7566 86.0229 21.9294C86.1362 22.1021 86.1967 22.3045 86.197 22.5115V23.836Z" fill="#A3A5A8"/>
<path d="M86.7896 21.1861H86.4609V20.7894H86.7896V21.1861ZM86.7896 23.836H86.4609V21.4517H86.7896V23.836Z" fill="#A3A5A8"/>
<path d="M89.1591 23.836H88.8303V22.3787C88.8335 22.2809 88.8172 22.1836 88.7822 22.0923C88.7473 22.0011 88.6945 21.9178 88.6269 21.8476C88.5593 21.7773 88.4783 21.7214 88.3888 21.6832C88.2993 21.6451 88.2031 21.6254 88.1059 21.6254C88.0087 21.6254 87.9125 21.6451 87.823 21.6832C87.7335 21.7214 87.6526 21.7773 87.585 21.8476C87.5174 21.9178 87.4645 22.0011 87.4296 22.0923C87.3946 22.1836 87.3783 22.2809 87.3815 22.3787V23.836H87.0527V21.4517H87.3815V21.6126C87.531 21.4704 87.7186 21.3753 87.9212 21.3391C88.1238 21.3029 88.3325 21.3271 88.5215 21.4089C88.7106 21.4906 88.8717 21.6262 88.985 21.799C89.0983 21.9718 89.1588 22.1741 89.1591 22.3811V23.836Z" fill="#A3A5A8"/>
<path d="M92.0585 23.5182C92.061 23.6849 92.0279 23.8502 91.9614 24.0029C91.8948 24.1556 91.7965 24.2921 91.673 24.4033C91.4278 24.6392 91.1002 24.7687 90.761 24.7638C90.178 24.7638 89.7764 24.4988 89.5562 23.9688H89.8858C89.9712 24.1139 90.0935 24.2333 90.2402 24.3148C90.3869 24.3963 90.5526 24.4369 90.7202 24.4323C90.9728 24.4346 91.2175 24.3439 91.4082 24.1772C91.5968 24.0084 91.7118 23.7716 91.7281 23.5182C91.5218 23.8186 91.1927 23.9685 90.741 23.968C90.5207 23.9684 90.3039 23.9132 90.1103 23.8075C89.9168 23.7017 89.7526 23.5489 89.633 23.3628C89.5134 23.1768 89.4421 22.9636 89.4256 22.7427C89.4091 22.5217 89.4479 22.3002 89.5386 22.0983C89.6293 21.8963 89.7688 21.7205 89.9445 21.5869C90.1202 21.4533 90.3265 21.3662 90.5443 21.3335C90.7621 21.3008 90.9847 21.3236 91.1915 21.3998C91.3983 21.4759 91.5828 21.6031 91.7281 21.7696V21.4517H92.0577L92.0585 23.5182ZM91.7289 22.6459C91.7291 22.4158 91.65 22.1927 91.5049 22.0147C91.3599 21.8367 91.158 21.7148 90.9336 21.6697C90.7093 21.6247 90.4763 21.6593 90.2745 21.7677C90.0727 21.8761 89.9144 22.0516 89.8268 22.2641C89.7392 22.4767 89.7275 22.7133 89.7939 22.9336C89.8602 23.1538 90.0005 23.3441 90.1907 23.472C90.3809 23.5999 90.6093 23.6575 90.837 23.6349C91.0647 23.6124 91.2776 23.5111 91.4394 23.3484C91.533 23.2575 91.607 23.1483 91.6568 23.0274C91.7066 22.9066 91.7312 22.7767 91.7289 22.6459Z" fill="#A3A5A8"/>
<path d="M93.8007 22.0672H93.4736C93.4744 22.0124 93.464 21.958 93.4431 21.9073C93.4222 21.8567 93.3912 21.8109 93.3521 21.7727C93.3146 21.7332 93.2694 21.7019 93.2193 21.6809C93.1692 21.6598 93.1153 21.6495 93.061 21.6504C93.0072 21.6493 92.9538 21.6596 92.9042 21.6806C92.8546 21.7017 92.8099 21.7331 92.7732 21.7727C92.7351 21.8115 92.7052 21.8575 92.685 21.908C92.6648 21.9586 92.6548 22.0127 92.6556 22.0672C92.6552 22.1213 92.6655 22.1748 92.6858 22.2249C92.7061 22.2749 92.7362 22.3204 92.7741 22.3586C92.812 22.3969 92.8572 22.4272 92.9068 22.4477C92.9565 22.4683 93.0097 22.4787 93.0634 22.4784C93.2585 22.4795 93.4453 22.5578 93.5833 22.6966C93.7213 22.8353 93.7994 23.0232 93.8007 23.2195C93.8018 23.3172 93.7836 23.4141 93.7471 23.5046C93.7105 23.5951 93.6565 23.6774 93.588 23.7466C93.5212 23.818 93.4403 23.8745 93.3505 23.9126C93.2607 23.9507 93.1641 23.9695 93.0666 23.9679C92.9691 23.968 92.8725 23.9487 92.7824 23.9111C92.6923 23.8735 92.6105 23.8183 92.5417 23.7487C92.4729 23.6792 92.4184 23.5966 92.3814 23.5058C92.3445 23.415 92.3257 23.3177 92.3262 23.2195H92.6532C92.6524 23.2745 92.6627 23.329 92.6836 23.3798C92.7045 23.4306 92.7356 23.4766 92.7748 23.5148C92.8125 23.554 92.8578 23.5851 92.9078 23.6061C92.9579 23.6271 93.0116 23.6377 93.0658 23.6371C93.1196 23.6381 93.173 23.6277 93.2226 23.6066C93.2722 23.5855 93.3168 23.5543 93.3537 23.5148C93.3918 23.476 93.4219 23.4298 93.442 23.3791C93.4622 23.3284 93.4722 23.2741 93.4712 23.2195C93.4718 23.1655 93.4616 23.1119 93.4413 23.0618C93.421 23.0118 93.391 22.9663 93.353 22.9281C93.315 22.8899 93.2698 22.8597 93.2201 22.8393C93.1704 22.8188 93.1171 22.8086 93.0634 22.8091C92.8684 22.8076 92.6817 22.729 92.5438 22.5902C92.4058 22.4514 92.3277 22.2635 92.3262 22.0672C92.3251 21.9696 92.3434 21.8727 92.3801 21.7823C92.4168 21.692 92.471 21.6099 92.5397 21.5409C92.6061 21.4692 92.6868 21.4124 92.7765 21.3741C92.8662 21.3359 92.9629 21.317 93.0602 21.3188C93.1577 21.319 93.2542 21.3384 93.3442 21.3761C93.4342 21.4138 93.5159 21.469 93.5847 21.5385C93.6535 21.608 93.7079 21.6905 93.745 21.7812C93.7821 21.8719 93.801 21.9691 93.8007 22.0672Z" fill="#A3A5A8"/>
</svg>
