<svg width="100" height="100" viewBox="0 0 100 100" fill="none" xmlns="http://www.w3.org/2000/svg">
<path d="M67.359 68.8464C70.7949 68.8464 73.5813 71.6328 73.5813 75.0687C73.5813 78.5046 70.7949 81.291 67.359 81.291C63.9231 81.291 61.1367 78.5046 61.1367 75.0687C61.1538 71.6328 63.9231 68.8464 67.359 68.8464Z" fill="#8BC540"/>
<path d="M40.7946 68.8464C44.2305 68.8464 47.0168 71.6328 47.0168 75.0687C47.0168 78.5046 44.2305 81.291 40.7946 81.291C37.3586 81.291 34.5723 78.5046 34.5723 75.0687C34.5723 71.6328 37.3586 68.8464 40.7946 68.8464Z" fill="#8BC540"/>
<path d="M67.3594 67.137C62.9833 67.137 59.4277 70.6926 59.4277 75.0687C59.4277 79.4448 62.9833 83.0004 67.3594 83.0004C71.7355 83.0004 75.2911 79.4448 75.2911 75.0687C75.3082 70.6926 71.7355 67.137 67.3594 67.137ZM67.3594 79.5815C64.8637 79.5815 62.8466 77.5644 62.8466 75.0687C62.8466 72.5729 64.8637 70.5558 67.3594 70.5558C69.8552 70.5558 71.8723 72.5729 71.8723 75.0687C71.8894 77.5644 69.8552 79.5815 67.3594 79.5815Z" fill="#627377"/>
<path d="M81.3084 28.5725H28.1625L27.7181 26.3673C26.8976 22.0938 23.1027 18.9998 18.6924 18.9998H14.7094C13.7692 18.9998 13 19.769 13 20.7092C13 21.6494 13.7692 22.4186 14.7094 22.4186H18.6753C21.4958 22.4186 23.8206 24.2819 24.3505 26.9998L30.7438 59.1198C31.3762 62.3164 34.1968 64.6412 37.4447 64.6412H70.5732C73.8211 64.6412 76.6416 62.2822 77.2741 59.1027L82.9665 30.5896C83.0691 30.0939 82.9323 29.5811 82.6075 29.1879C82.2998 28.7947 81.8041 28.5725 81.3084 28.5725ZM78.2143 36.9486H69.8211L70.4365 31.9913H79.2058L78.2143 36.9486ZM56.0432 36.9486V31.9913H67.0005L66.3851 36.9486H56.0432ZM65.9578 40.3675L65.3766 44.9829H56.0432V40.3675H65.9578ZM52.6243 36.9486H42.2994L41.684 31.9913H52.6243V36.9486ZM52.6243 40.3675V44.9829H43.308L42.7268 40.3675H52.6243ZM39.8721 44.9829H31.4446L30.5215 40.3675H39.2909L39.8721 44.9829ZM32.1113 48.4018H40.2823L40.8464 53.0172H33.0173L32.1113 48.4018ZM43.7353 48.4018H52.6243V53.0172H44.2995L43.7353 48.4018ZM52.6243 56.436V61.2224H45.308L44.7268 56.436H52.6243ZM56.0432 56.436H63.9578L63.3766 61.2224H56.0432V56.436ZM56.0432 53.0172V48.4018H64.9492L64.3851 53.0172H56.0432ZM68.4023 48.4018H75.9237L75.0006 53.0172H67.8381L68.4023 48.4018ZM68.8296 44.9829L69.4108 40.3675H77.5476L76.6075 44.9829H68.8296ZM38.2481 31.9913L38.8635 36.9486H29.8378L28.8463 31.9913H38.2481ZM34.0942 58.4189L33.7182 56.436H41.2909L41.8721 61.2224H37.4447C35.8207 61.2224 34.419 60.0087 34.0942 58.4189ZM70.5732 61.2224H66.8125L67.3937 56.436H74.2997L73.9066 58.4189C73.5989 60.0087 72.1972 61.2224 70.5732 61.2224Z" fill="#627377"/>
<path d="M40.795 67.137C36.4189 67.137 32.8633 70.6926 32.8633 75.0687C32.8633 79.4448 36.4189 83.0004 40.795 83.0004C45.1711 83.0004 48.7267 79.4448 48.7267 75.0687C48.7267 70.6926 45.1711 67.137 40.795 67.137ZM40.795 79.5815C38.2992 79.5815 36.2821 77.5644 36.2821 75.0687C36.2821 72.5729 38.2992 70.5558 40.795 70.5558C43.2907 70.5558 45.3079 72.5729 45.3079 75.0687C45.3079 77.5644 43.2907 79.5815 40.795 79.5815Z" fill="#627377"/>
</svg>
