<svg width="120" height="27" viewBox="0 0 120 27" fill="none" xmlns="http://www.w3.org/2000/svg">
<rect y="12.1371" width="42" height="2" rx="1" fill="#8BC540"/>
<path d="M54.9121 16.309C54.9121 15.6384 55.0618 15.0329 55.3613 14.4926C55.6673 13.9457 56.237 13.3304 57.0703 12.6469C56.7122 12.0804 56.429 11.5466 56.2207 11.0453C56.0124 10.5375 55.9082 10.0134 55.9082 9.47302C55.9082 8.35974 56.2174 7.45805 56.8359 6.76794C57.4544 6.07133 58.2812 5.72302 59.3164 5.72302C60.2474 5.72302 61.0124 6.04529 61.6113 6.68982C62.2168 7.32784 62.5195 8.11235 62.5195 9.04333C62.5195 10.2803 62.002 11.3122 60.9668 12.139L60.1855 12.7738L62.0117 15.3226C62.2396 14.6521 62.3535 13.9294 62.3535 13.1547H64.6875C64.6875 14.9841 64.3294 16.4554 63.6133 17.5687L65.4492 20.1371H62.3145L61.7871 19.3949C60.9473 20.0199 59.9772 20.3324 58.877 20.3324C57.679 20.3324 56.7188 19.9646 55.9961 19.2289C55.2734 18.4932 54.9121 17.5199 54.9121 16.309ZM59.0234 18.0472C59.5378 18.0472 60.0228 17.878 60.4785 17.5394L58.2324 14.3656L58.1738 14.4144C57.8483 14.9157 57.6855 15.4919 57.6855 16.1429C57.6855 16.6898 57.8125 17.1455 58.0664 17.5101C58.3268 17.8682 58.6458 18.0472 59.0234 18.0472ZM58.3691 9.42419C58.3691 9.88643 58.5905 10.4528 59.0332 11.1234L59.4922 10.7719C59.7656 10.5635 59.9609 10.3487 60.0781 10.1273C60.1953 9.89945 60.2539 9.59672 60.2539 9.21912C60.2539 8.88057 60.1595 8.59737 59.9707 8.36951C59.7884 8.13513 59.5671 8.01794 59.3066 8.01794C59.0202 8.01794 58.7923 8.14815 58.623 8.40857C58.4538 8.66248 58.3691 9.00102 58.3691 9.42419Z" fill="#627377"/>
<rect x="78" y="12.1371" width="42" height="2" rx="1" fill="#8BC540"/>
</svg>
