<svg width="100" height="100" viewBox="0 0 100 100" fill="none" xmlns="http://www.w3.org/2000/svg">
<path d="M65.2796 43.5889C62.262 47.6748 57.9062 50.2012 53.2585 51.0074C48.3292 51.8645 43.0691 50.7863 38.7347 47.5869C30.3144 41.3699 28.5198 29.4625 34.7368 21.042C39.1515 15.0617 46.437 12.424 53.3056 13.6234C56.1077 14.1127 58.8415 15.2418 61.2818 17.0439C69.7021 23.2609 71.4966 35.1684 65.2796 43.5889Z" fill="#8BC540"/>
<path d="M65.2788 43.5888C62.2613 47.6748 57.9054 50.2011 53.2577 51.0074C50.4556 50.5181 47.7218 49.389 45.2816 47.5869C36.8613 41.3699 35.0667 29.4625 41.2837 21.042C44.2993 16.956 48.6552 14.4297 53.3048 13.6234C56.107 14.1127 58.8407 15.2418 61.281 17.0439C69.7013 23.2609 71.4958 35.1683 65.2788 43.5888Z" fill="#8BC540"/>
<path d="M61.9774 35.6401C60.7641 40.0098 57.3631 43.1819 53.285 44.2992C51.1932 44.8746 48.925 44.9078 46.6824 44.2856C40.0701 42.45 36.1994 35.601 38.0369 28.9906C39.8666 22.3959 46.6844 18.5293 53.277 20.3315C53.2945 20.3354 53.3141 20.3393 53.3318 20.3451C59.9442 22.1807 63.8149 29.0297 61.9774 35.6401Z" fill="#8BC540"/>
<path d="M61.9777 35.64C60.7644 40.0097 57.3634 43.1818 53.2853 44.2992C53.2677 44.2953 53.2482 44.2914 53.2304 44.2855C46.6181 42.45 42.7474 35.601 44.583 28.9906C45.7982 24.6209 49.2011 21.4488 53.2773 20.3314C53.2949 20.3353 53.3144 20.3392 53.3322 20.3451C59.9445 22.1806 63.8152 29.0297 61.9777 35.64Z" fill="#8BC540"/>
<path d="M74.892 63.2338V81.2076C74.892 83.7203 72.8354 85.775 70.3227 85.775H49.2924C46.7797 85.775 44.7231 83.7203 44.7231 81.2076V77.0433C44.7231 76.6402 44.543 76.2586 44.2319 76.0023L33.61 67.2609C31.4418 65.4744 31.0621 62.1847 32.8762 60.04C34.6451 57.9482 37.8016 57.6586 39.9248 59.4041L42.5354 61.4939C42.7918 61.6994 43.0852 61.7914 43.3709 61.7914C44.0676 61.7914 44.7231 61.2435 44.7231 60.4431C44.7231 60.3375 44.7289 60.2338 44.7348 60.132C44.7289 60.0283 44.7231 59.9246 44.7231 59.8189V36.2525C44.7231 33.3172 47.2436 30.9416 50.2278 31.1822C50.4196 31.1978 50.6075 31.2232 50.7912 31.2625C53.1649 31.7283 54.8987 33.8808 54.8987 36.3562V58.6664H70.3227C72.8354 58.6664 74.892 60.7211 74.892 63.2338Z" fill="white"/>
<path d="M74.892 80.1279V81.2076C74.892 83.7197 72.8368 85.775 70.3246 85.775H49.2924C46.7791 85.775 44.7231 83.7187 44.7231 81.2057V77.0433C44.7231 76.6402 44.543 76.2586 44.2319 76.0023L33.61 67.2609C31.4418 65.4744 31.0621 62.1847 32.8762 60.04C34.6451 57.9482 37.8016 57.6586 39.9248 59.4041L42.5354 61.4939C42.7918 61.6994 43.0852 61.7914 43.3709 61.7914C44.0676 61.7914 44.7231 61.2435 44.7231 60.4431C44.7231 60.3375 44.7289 60.2338 44.7348 60.132C44.7289 60.0283 44.7231 59.9246 44.7231 59.8189V36.2525C44.7231 33.3172 47.2436 30.9416 50.2278 31.1822C50.4196 31.1978 50.6075 31.2232 50.7912 31.2625V75.7578C50.7912 78.1715 52.7479 80.1281 55.1616 80.1281H74.892V80.1279Z" fill="white"/>
<path d="M73.8479 88.6828V95.9976C73.8479 97.3498 72.752 98.4457 71.4018 98.4457H47.5809C46.2307 98.4457 45.1348 97.3498 45.1348 95.9976V88.4695C45.1348 86.8785 46.4361 85.5754 48.0289 85.5754H70.7402C72.4486 85.5754 73.8479 86.9746 73.8479 88.6828Z" fill="white"/>
<path d="M73.8478 88.6828V95.9976C73.8478 97.3498 72.7519 98.4457 71.4017 98.4457H55.7273C54.3771 98.4457 53.2812 97.3498 53.2812 95.9976V88.4695C53.2812 86.8785 54.5846 85.5754 56.1754 85.5754H70.7404C72.4486 85.5754 73.8478 86.9746 73.8478 88.6828Z" fill="white"/>
<path d="M70.5744 57.0902H56.7158V51.8047C66.6668 48.5346 72.6316 38.1898 70.3004 27.8096C70.1125 26.9662 69.275 26.434 68.4316 26.6236C67.5883 26.8115 67.0561 27.649 67.2457 28.4924C69.1481 36.9865 64.5274 45.3787 56.7158 48.476V44.709C60.0719 42.9557 62.6783 39.8658 63.7391 36.0478C66.2268 27.0976 59.4371 18.3107 50.2523 18.3107C42.4072 18.3107 36.041 24.8447 36.2725 32.7094C36.2979 33.5742 37.0238 34.2533 37.883 34.2279C38.7479 34.2025 39.427 33.4824 39.4016 32.6174C39.2561 25.0586 46.3232 19.9439 53.1662 21.8408C61.89 24.2641 63.942 35.6771 56.716 41.0279V36.3451C56.716 32.8443 54.0313 29.8875 50.6047 29.6096C46.7113 29.2998 43.4094 32.3924 43.4094 36.2414V40.7383C42.333 39.8635 41.4252 38.7775 40.7363 37.5213C40.3215 36.7641 39.3705 36.4861 38.6111 36.901C37.8539 37.3178 37.576 38.2687 37.9908 39.0262C39.2727 41.3646 41.1434 43.2432 43.4094 44.5074V48.3135C32.8404 43.8006 29.4207 30.2908 36.76 21.3029C37.3039 20.6316 37.2041 19.6455 36.533 19.0994C35.8617 18.5535 34.8756 18.6553 34.3315 19.3264C25.3914 30.2258 29.9953 46.9357 43.4094 51.6734V59.9752L41.1629 58.1779C36.6947 54.5133 29.9107 57.9865 30.4334 63.8332C30.5959 65.6336 31.4822 67.3184 32.8678 68.4572L43.4094 77.134V81.1965C43.4094 82.8816 44.093 84.41 45.1973 85.5195C44.3549 86.3715 43.8217 87.5584 43.8217 88.8484V96.0059C43.8217 98.208 45.6133 99.9996 47.8154 99.9996H71.6731C73.8754 99.9996 75.6668 98.208 75.6668 96.0059V88.8484C75.6668 87.7119 75.2525 86.6557 74.5781 85.8377C75.8818 84.7121 76.7092 83.0498 76.7092 81.1967V63.2228C76.7092 59.8416 73.9578 57.0902 70.5744 57.0902ZM72.5358 96.0062C72.5358 96.482 72.1486 96.8689 71.6731 96.8689H47.815C47.3391 96.8689 46.9523 96.4818 46.9523 96.0062V88.8488C46.9523 88.068 47.5877 87.3299 48.26 87.3299H71.2285C71.9008 87.3299 72.5361 88.068 72.5361 88.8488V96.0062H72.5358ZM73.5781 81.1969C73.5781 82.8523 72.2299 84.1986 70.5744 84.1986H49.544C47.8885 84.1986 46.5402 82.8523 46.5402 81.1969V77.0326C46.5402 76.1578 46.1547 75.3398 45.4797 74.7842L34.8578 66.0408C34.1162 65.4303 33.6406 64.5242 33.5525 63.5518C33.2742 60.4728 36.8422 58.6779 39.1805 60.6027C39.4092 60.7559 38.4166 59.9902 41.8086 62.7064C42.6912 63.4109 43.8711 63.5459 44.8906 63.0566C45.9082 62.5674 46.5402 61.5615 46.5402 60.4324C46.5402 39.3908 46.5402 59.8844 46.5402 36.2416C46.5402 35.267 46.957 34.3238 47.6811 33.6547C49.9693 31.5437 53.585 33.2283 53.585 36.3453C53.585 41.7514 53.585 53.2494 53.585 58.6555C53.585 59.5184 54.2856 60.2209 55.1504 60.2209H70.5744C72.2299 60.2209 73.5781 61.5672 73.5781 63.2227V81.1969Z" fill="#627377"/>
<path d="M40.7459 17.716C49.1083 12.274 60.3036 14.9674 65.285 23.4986C65.5766 23.9957 66.101 24.2736 66.6391 24.2736C67.838 24.2736 68.601 22.9644 67.9893 21.9195C62.0387 11.7234 48.7924 8.74821 39.0376 15.092C38.3135 15.5636 38.1081 16.5322 38.5797 17.2582C39.0512 17.9824 40.02 18.1877 40.7459 17.716Z" fill="#627377"/>
<path d="M50.2607 9.00156C51.1252 9.00156 51.8262 8.30059 51.8262 7.43613V1.56543C51.8262 0.700977 51.1252 0 50.2607 0C49.3963 0 48.6953 0.700977 48.6953 1.56543V7.43594C48.6953 8.30058 49.3963 9.00156 50.2607 9.00156Z" fill="#627377"/>
<path d="M32.8302 16.0055C34.2118 16.0055 34.9271 14.3229 33.9372 13.333L29.7858 9.18184C29.1743 8.57031 28.1833 8.57051 27.5718 9.18184C26.9604 9.79316 26.9604 10.7844 27.5718 11.3957C31.6439 15.2598 31.7036 16.0055 32.8302 16.0055Z" fill="#627377"/>
<path d="M25.4574 30.152H19.5869C18.7225 30.152 18.0215 30.853 18.0215 31.7174C18.0215 32.5819 18.7225 33.2828 19.5869 33.2828H25.4574C26.3219 33.2828 27.0228 32.5819 27.0228 31.7174C27.023 30.853 26.3221 30.152 25.4574 30.152Z" fill="#627377"/>
<path d="M33.5679 48.041C32.9563 47.4297 31.9653 47.4297 31.3538 48.041L27.2026 52.1922C26.5913 52.8035 26.5913 53.7947 27.2026 54.4061C27.8144 55.0176 28.8052 55.0174 29.4167 54.4061L33.5679 50.2549C34.1792 49.6437 34.1792 48.6525 33.5679 48.041Z" fill="#627377"/>
<path d="M68.2761 48.4102C67.6647 47.7988 66.6737 47.7986 66.062 48.4102C65.4507 49.0215 65.4507 50.0127 66.062 50.624C70.1339 54.4883 70.1935 55.2338 71.32 55.2338C72.7017 55.2338 73.4169 53.5512 72.4271 52.5613L68.2761 48.4102Z" fill="#627377"/>
<path d="M80.4125 30.6738H74.542C73.6775 30.6738 72.9766 31.3748 72.9766 32.2393C72.9766 33.1037 73.6775 33.8047 74.542 33.8047H80.4125C81.277 33.8047 81.9779 33.1037 81.9779 32.2393C81.9779 31.3748 81.2772 30.6738 80.4125 30.6738Z" fill="#627377"/>
<path d="M68.6452 15.9158L72.7966 11.7647C73.4079 11.1533 73.4079 10.1621 72.7966 9.55079C72.1853 8.93947 71.1942 8.93927 70.5825 9.55079L66.4312 13.702C65.8198 14.3133 65.8198 15.3045 66.4312 15.9158C67.0425 16.5272 68.0337 16.5274 68.6452 15.9158Z" fill="#627377"/>
</svg>
