<svg width="48" height="48" viewBox="0 0 48 48" fill="none" xmlns="http://www.w3.org/2000/svg">
<path d="M17.3784 32.0524C17.1561 32.0165 16.932 31.999 16.7078 32L16.5511 32.0021H16.5591H16V33.9917H16.6238C16.932 34.0192 17.2417 33.9783 17.5384 33.871L17.519 33.877C17.6591 33.8095 17.7803 33.6927 17.8681 33.5411L17.8697 33.539C17.9631 33.3609 18.0083 33.1501 17.9987 32.9377C17.9891 32.7252 17.9252 32.5222 17.8164 32.3581L17.818 32.3602C17.708 32.1934 17.5517 32.0842 17.3801 32.0544H17.3768L17.3784 32.0524Z" fill="#8BC540"/>
<path d="M20 36H22L21 34L20 36Z" fill="#8BC540"/>
<path d="M37.1715 6H10.8269C9.26542 6 8 7.19245 8 8.66389V39.3361C8 40.8076 9.26542 42 10.8269 42H37.1731C38.7346 42 40 40.8076 40 39.3361V8.66389C40 7.19245 38.7346 6 37.1731 6H37.1715ZM24.5651 10.0798C24.6797 10.0918 24.8086 10.0918 24.9232 10.1038C25.3084 10.1398 25.6506 10.2838 25.9228 10.5043L25.9196 10.5028C26.5133 10.9963 27.0052 11.5828 27.3729 12.2412L27.3904 12.2742C27.5798 12.5922 27.7692 12.9732 27.93 13.3677L27.9522 13.4307C26.9638 13.5567 25.7907 13.6437 24.6033 13.6707H24.5651V10.0798ZM28.4154 22.6868C27.1503 22.5148 25.8749 22.4186 24.5969 22.3988H24.5651V19.4949H28.8945C28.8452 20.6529 28.6717 21.7493 28.3852 22.8023L28.4107 22.6928L28.4154 22.6868ZM24.5651 23.6858C25.7637 23.704 26.9602 23.7896 28.148 23.9423L27.992 23.9258C27.8164 24.3797 27.6058 24.8208 27.3617 25.2457L27.3904 25.1917C27.0247 25.8615 26.5285 26.4604 25.9276 26.9571L25.9196 26.9631C25.641 27.1884 25.2951 27.3268 24.9296 27.3591H24.9216C24.8039 27.3738 24.6854 27.3818 24.5667 27.3831H24.5635L24.5651 23.6858ZM28.3645 25.6867C28.6303 25.2382 28.885 24.7087 29.0951 24.1597L29.1206 24.0832C29.7095 24.1792 30.3096 24.3007 30.9033 24.4432H30.916C30.7887 24.5887 30.647 24.7207 30.5197 24.8422C29.7294 25.5917 28.7991 26.1974 27.7756 26.6286L27.7183 26.6511C27.9475 26.3722 28.1608 26.0587 28.3438 25.7287L28.3613 25.6942L28.3645 25.6867ZM33.1715 19.4919C33.0434 20.8753 32.5664 22.2098 31.7803 23.3843L31.8026 23.3483L31.6482 23.3123C30.9459 23.1377 30.2377 22.9846 29.5249 22.8533C29.7986 21.8618 29.9801 20.7099 30.0326 19.5264L30.0342 19.4934L33.1715 19.4919ZM24.5651 14.9486C25.8996 14.9232 27.2315 14.8245 28.5539 14.6531L28.3772 14.6726C28.6622 15.6491 28.8516 16.7801 28.9009 17.9455L28.9025 17.9755H24.573L24.5651 14.9486ZM29.4899 14.5031C30.2061 14.3832 30.8906 14.2377 31.575 14.0562L31.7278 14.0202C32.5109 15.1421 33.0267 16.4891 33.1588 17.941L33.1604 17.9725H30.0135C29.9712 16.7648 29.7854 15.5654 29.4596 14.3967L29.4867 14.5091L29.4899 14.5031ZM30.8189 12.9117C30.2427 13.0452 29.6554 13.1652 29.0792 13.2612C28.8767 12.7265 28.6314 12.207 28.3454 11.7073L28.3772 11.7673C28.1755 11.42 27.9512 11.0849 27.7055 10.7638L27.7262 10.7923C28.7695 11.2283 29.719 11.8409 30.5277 12.5997C30.6168 12.7077 30.7203 12.8052 30.8221 12.9132L30.8189 12.9117ZM22.0963 10.5013C22.3653 10.2823 22.7091 10.1383 23.0864 10.1038H23.0943C23.1994 10.0903 23.3235 10.0813 23.4493 10.0798H23.4524V13.6587C22.267 13.6405 21.0838 13.5548 19.9093 13.4022L20.0621 13.4187C20.2515 12.9567 20.4409 12.5757 20.6526 12.2082L20.624 12.2622C21.0044 11.5768 21.4867 10.9948 22.0629 10.5088L22.0692 10.5043L22.0963 10.5013ZM18.5022 22.8548C17.7732 22.9868 17.0569 23.1323 16.3788 23.3138L16.2244 23.3498C15.4434 22.1989 14.974 20.8851 14.8571 19.5234L14.8556 19.4934H18.0024C18.0374 20.7039 18.2157 21.8603 18.5245 22.9673L18.499 22.8608L18.5022 22.8548ZM17.1078 24.4567C17.6963 24.3127 18.2911 24.1926 18.8906 24.0967C19.1293 24.7252 19.384 25.2532 19.6769 25.7602L19.645 25.7002C19.8679 26.0797 20.0828 26.3992 20.3168 26.7036L20.2961 26.6751C19.2528 26.2391 18.3033 25.6265 17.4946 24.8677C17.3673 24.7342 17.24 24.6022 17.1126 24.4567H17.1078ZM20.0239 23.9258C21.0426 23.7863 22.23 23.6993 23.4349 23.6858H23.4509V27.3846C23.1642 27.3692 22.8784 27.3412 22.5945 27.3006C22.4173 27.1989 22.2486 27.0846 22.0899 26.9586L22.0963 26.9631C21.5041 26.4714 21.0117 25.8824 20.6431 25.2247L20.6255 25.1917C20.4044 24.8081 20.2114 24.4107 20.0478 24.0023L20.0223 23.9318L20.0239 23.9258ZM23.4524 22.3943C22.0692 22.4198 20.737 22.5233 19.4318 22.7033L19.6037 22.6838C19.3142 21.6494 19.1471 20.588 19.1055 19.5189L19.1039 19.4904H23.4524V22.3943ZM19.6419 14.6696C20.8985 14.8442 22.1664 14.9369 23.4365 14.9471H23.4524V17.9725H19.1039C19.1628 16.7771 19.3538 15.6491 19.6641 14.5676L19.6371 14.6786L19.6419 14.6696ZM20.2929 10.7893C20.0796 11.0668 19.8631 11.3848 19.6673 11.7163L19.6403 11.7658C19.3731 12.2221 19.1458 12.6981 18.9606 13.1892L18.9383 13.2597C18.3547 13.1604 17.7744 13.0439 17.1986 12.9102H17.1858C17.2854 12.8033 17.3879 12.6988 17.493 12.5967C18.287 11.8573 19.214 11.2565 20.2308 10.8223L20.2897 10.7998L20.2929 10.7893ZM16.4441 14.0547C17.1222 14.2242 17.813 14.3682 18.5292 14.5016C18.2159 15.6264 18.036 16.7804 17.9928 17.9425L17.9912 17.9725H14.8444C14.9727 16.5496 15.4767 15.1796 16.3104 13.9872L16.2897 14.0187L16.4441 14.0547ZM17.8766 34.4838C17.702 34.5982 17.5076 34.683 17.302 34.7343L17.2893 34.7373C16.9544 34.7868 16.6159 34.8114 16.277 34.8108L16.1178 34.8093H16.1257H15.3967V36.7862H14.2714V31.5439H16.0748C16.5322 31.5231 16.9906 31.5533 17.4405 31.6339L17.4039 31.6279C17.7242 31.7123 18.0064 31.893 18.2077 32.1424L18.2109 32.1454C18.4115 32.4349 18.5308 32.7889 18.5308 33.1699C18.5308 33.4639 18.4608 33.7413 18.3335 33.9888L18.3382 33.9768C18.237 34.1831 18.0787 34.3598 17.8798 34.4883L17.875 34.4913L17.8766 34.4838ZM22.6852 36.7847L22.1982 35.5923H19.9698L19.5082 36.7847H18.3191L20.4839 31.5424H21.6729L23.8981 36.7847H22.6852ZM28.4791 36.0977C28.3014 36.3614 28.0411 36.5663 27.7342 36.6842L27.723 36.6872C27.3951 36.8102 27.0163 36.8822 26.6184 36.8822L26.5022 36.8807H26.507C25.9221 36.9149 25.3434 36.7511 24.8754 36.4187L24.8818 36.4232C24.4849 36.0764 24.243 35.6002 24.2053 35.0913V35.0853L25.2925 34.9893C25.3307 35.2893 25.4739 35.5518 25.6888 35.7468C25.9308 35.9012 26.2154 35.9855 26.5076 35.9892C26.7998 35.9929 27.0868 35.916 27.3331 35.7678L27.3267 35.7708C27.4107 35.7117 27.4797 35.6356 27.5284 35.5481C27.5772 35.4607 27.6045 35.364 27.6084 35.2653V35.2638V35.2518C27.6086 35.1415 27.5675 35.0348 27.4922 34.9503V34.9518C27.3783 34.8489 27.2412 34.7715 27.0911 34.7253L27.0832 34.7238C26.9558 34.6758 26.6486 34.6038 26.1918 34.4943C25.7307 34.413 25.2953 34.234 24.9184 33.9708L24.9264 33.9768C24.7669 33.8498 24.6387 33.6915 24.5508 33.513C24.4628 33.3346 24.4172 33.1402 24.417 32.9434V32.9149V32.9059C24.417 32.6299 24.5078 32.3749 24.6637 32.1649L24.6606 32.1694C24.8325 31.9369 25.0665 31.7539 25.3402 31.6429L25.3498 31.6399C25.6538 31.5244 26.0056 31.4584 26.3749 31.4584L26.4528 31.4599H26.4497C27.0151 31.4172 27.5772 31.5738 28.0271 31.8994L28.0207 31.8949C28.1935 32.0353 28.3321 32.2091 28.4272 32.4045C28.5222 32.6 28.5714 32.8124 28.5714 33.0274V33.0529V33.0514L27.4461 33.0994C27.4198 32.8786 27.3109 32.6739 27.1389 32.5219C26.9531 32.4011 26.7326 32.3367 26.507 32.3374L26.4194 32.3404H26.4226C26.1504 32.3227 25.8798 32.3914 25.6538 32.5354L25.6586 32.5324C25.6035 32.5695 25.5585 32.6183 25.5273 32.6748C25.496 32.7314 25.4794 32.7941 25.4787 32.8579V32.8624C25.4787 32.9884 25.544 33.1009 25.6443 33.1714H25.6458C25.9451 33.3379 26.2937 33.4609 26.6645 33.5179L26.6821 33.5194C27.1452 33.6138 27.5511 33.7428 27.9347 33.9078L27.8965 33.8928C28.1496 34.0203 28.3565 34.2003 28.5062 34.4178L28.5094 34.4238C28.6542 34.6556 28.7301 34.9198 28.729 35.1888L28.7274 35.2578V35.2548V35.2953C28.7274 35.5983 28.6319 35.8803 28.4664 36.1142L28.4696 36.1082L28.4791 36.0977ZM33.6586 36.0977C33.4809 36.3614 33.2205 36.5663 32.9137 36.6842L32.9025 36.6872C32.5746 36.8102 32.1958 36.8822 31.7979 36.8822L31.6817 36.8807H31.6864C31.1015 36.9149 30.5229 36.7511 30.0549 36.4187L30.0613 36.4232C29.6644 36.0764 29.4225 35.6002 29.3848 35.0913V35.0853L30.4719 34.9893C30.5101 35.2893 30.6534 35.5518 30.8683 35.7468C31.1102 35.9012 31.3949 35.9855 31.6871 35.9892C31.9793 35.9929 32.2662 35.916 32.5125 35.7678L32.5062 35.7708C32.5902 35.7117 32.6591 35.6356 32.7079 35.5481C32.7566 35.4607 32.784 35.364 32.7879 35.2653V35.2638V35.2518C32.7881 35.1415 32.7469 35.0348 32.6717 34.9503V34.9518C32.5577 34.8489 32.4206 34.7715 32.2706 34.7253L32.2626 34.7238C32.1353 34.6758 31.8281 34.6038 31.3713 34.4943C30.9102 34.413 30.4748 34.234 30.0979 33.9708L30.1059 33.9768C29.9464 33.8498 29.8182 33.6915 29.7302 33.513C29.6423 33.3346 29.5966 33.1402 29.5965 32.9434V32.9149V32.9059C29.5965 32.6299 29.6872 32.3749 29.8432 32.1649L29.84 32.1694C30.0095 31.9372 30.2451 31.7547 30.5197 31.6429L30.5292 31.6399C30.8333 31.5244 31.1866 31.4584 31.5543 31.4584L31.6323 31.4599H31.6291C32.1946 31.4172 32.7567 31.5738 33.2065 31.8994L33.2002 31.8949C33.3729 32.0353 33.5116 32.2091 33.6066 32.4045C33.7017 32.6 33.7509 32.8124 33.7509 33.0274V33.0529V33.0514L32.6255 33.0994C32.5993 32.8786 32.4903 32.6739 32.3183 32.5219C32.1326 32.4011 31.9121 32.3367 31.6864 32.3374L31.5989 32.3404H31.6021C31.3299 32.3227 31.0593 32.3914 30.8333 32.5354L30.838 32.5324C30.783 32.5695 30.738 32.6183 30.7067 32.6748C30.6755 32.7314 30.6588 32.7941 30.6582 32.8579V32.8624C30.6582 32.9884 30.7234 33.1009 30.8237 33.1714H30.8253C31.123 33.3379 31.4715 33.4594 31.8424 33.5179L31.8599 33.5209C32.3231 33.6153 32.729 33.7443 33.1126 33.9093L33.0744 33.8943C33.3275 34.0218 33.5344 34.2018 33.684 34.4193L33.6872 34.4253C33.8321 34.6571 33.908 34.9213 33.9069 35.1903L33.9053 35.2593V35.2563L33.9085 35.3448C33.909 35.6214 33.8171 35.8911 33.6458 36.1157L33.649 36.1112L33.6586 36.0977Z" fill="#8BC540"/>
</svg>
