<svg width="48" height="48" viewBox="0 0 48 48" fill="none" xmlns="http://www.w3.org/2000/svg">
<path d="M6.8647 34.65L6.1567 39.6C6.11294 39.9072 6.14129 40.2205 6.23949 40.5148C6.33769 40.8092 6.50306 41.0767 6.72251 41.2962C6.94195 41.5156 7.20945 41.681 7.50385 41.7792C7.79824 41.8774 8.11145 41.9058 8.4187 41.862L13.3687 41.154C14.1187 41.048 15.9987 36 15.9987 36C15.9987 36 16.9427 36.81 17.3287 36.932C18.1527 37.192 18.9547 36.384 19.2247 35.564L19.9987 32.02C19.9987 32.02 21.1527 32.604 21.5707 32.69C22.1027 32.8 22.6187 32.472 22.9847 32.104C23.2046 31.8848 23.3697 31.6169 23.4667 31.322L23.9987 28.02C23.9987 28.02 25.3487 28.394 25.8107 28.448C26.3367 28.508 26.8487 28.24 27.2247 27.862L29.5007 25.588C31.4273 26.2123 33.4888 26.2928 35.4583 25.8207C37.4277 25.3485 39.2286 24.342 40.6627 22.912C42.7221 20.8473 43.8786 18.0502 43.8786 15.134C43.8786 12.2178 42.7221 9.4207 40.6627 7.356C38.598 5.29663 35.8009 4.14014 32.8847 4.14014C29.9685 4.14014 27.1714 5.29663 25.1067 7.356C23.6763 8.78985 22.6695 10.5908 22.1974 12.5603C21.7252 14.5298 21.8059 16.5914 22.4307 18.518L7.4287 33.518C7.12248 33.8239 6.92446 34.2213 6.8647 34.65ZM37.0067 11.012C38.0978 12.1063 38.7105 13.5886 38.7105 15.134C38.7105 16.6794 38.0978 18.1617 37.0067 19.256L28.7627 11.012C29.857 9.92088 31.3393 9.30817 32.8847 9.30817C34.4301 9.30817 35.9124 9.92088 37.0067 11.012Z" fill="#8BC540"/>
</svg>
