<svg width="48" height="48" viewBox="0 0 48 48" fill="none" xmlns="http://www.w3.org/2000/svg">
<path d="M32 10V8C32 6.93913 31.5786 5.92172 30.8284 5.17157C30.0783 4.42143 29.0609 4 28 4H20C18.9391 4 17.9217 4.42143 17.1716 5.17157C16.4214 5.92172 16 6.93913 16 8V10C13.8783 10 11.8434 10.8429 10.3431 12.3431C8.84285 13.8434 8 15.8783 8 18V40C8 41.0609 8.42143 42.0783 9.17157 42.8284C9.92172 43.5786 10.9391 44 12 44H36C37.0609 44 38.0783 43.5786 38.8284 42.8284C39.5786 42.0783 40 41.0609 40 40V18C40 15.8783 39.1571 13.8434 37.6569 12.3431C36.1566 10.8429 34.1217 10 32 10ZM20 8H28V10H20V8ZM24 18L28 22L24 26L20 22L24 18ZM36 32H18V36H16V32H12V30H36V32Z" fill="#8BC540"/>
</svg>
