<?xml version="1.0" encoding="utf-8"?><svg xmlns="http://www.w3.org/2000/svg" xmlns:xlink="http://www.w3.org/1999/xlink"><symbol viewBox="0 0 48 48" id="arrow-right" xmlns="http://www.w3.org/2000/svg"><path d="M21.007 7.118l1.982-1.982c.84-.84 2.196-.84 3.026 0l17.356 17.346c.839.84.839 2.197 0 3.027L26.015 42.864c-.839.84-2.196.84-3.026 0l-1.982-1.982a2.145 2.145 0 01.036-3.062L31.8 27.57H6.142A2.137 2.137 0 014 25.428v-2.856c0-1.188.955-2.143 2.143-2.143H31.8L21.044 10.18a2.13 2.13 0 01-.036-3.062z"/></symbol><symbol viewBox="0 0 16 16" id="minus" xmlns="http://www.w3.org/2000/svg"><path d="M13.715 6.571H2.286a.952.952 0 00-.952.953v.952c0 .526.426.953.952.953h11.429a.953.953 0 00.952-.953v-.952a.953.953 0 00-.952-.953z"/></symbol><symbol viewBox="0 0 16 16" id="plus" xmlns="http://www.w3.org/2000/svg"><path d="M13.715 6.571H9.429V2.286a.953.953 0 00-.952-.953h-.953a.953.953 0 00-.952.953V6.57H2.286a.953.953 0 00-.952.953v.952c0 .526.426.953.952.953h4.286v4.285c0 .526.427.953.952.953h.953a.953.953 0 00.952-.953V9.43h4.286a.953.953 0 00.952-.953v-.952a.953.953 0 00-.952-.953z"/></symbol></svg>