<?xml version="1.0" encoding="utf-8"?><svg xmlns="http://www.w3.org/2000/svg" xmlns:xlink="http://www.w3.org/1999/xlink"><symbol viewBox="0 0 48 48" id="arrow-left" xmlns="http://www.w3.org/2000/svg"><path d="M26.993 40.882l-1.982 1.982c-.84.84-2.196.84-3.026 0L4.629 25.518a2.134 2.134 0 010-3.027L21.985 5.136a2.132 2.132 0 013.026 0l1.982 1.982c.848.848.83 2.232-.036 3.062L16.2 20.43h25.658c1.188 0 2.143.955 2.143 2.143v2.856a2.137 2.137 0 01-2.143 2.143H16.2L26.956 37.82a2.13 2.13 0 01.036 3.062z"/></symbol><symbol viewBox="0 0 48 48" id="arrow-right" xmlns="http://www.w3.org/2000/svg"><path d="M21.007 7.118l1.982-1.982c.84-.84 2.196-.84 3.026 0l17.356 17.346c.839.84.839 2.197 0 3.027L26.015 42.864c-.839.84-2.196.84-3.026 0l-1.982-1.982a2.145 2.145 0 01.036-3.062L31.8 27.57H6.142A2.137 2.137 0 014 25.428v-2.856c0-1.188.955-2.143 2.143-2.143H31.8L21.044 10.18a2.13 2.13 0 01-.036-3.062z"/></symbol><symbol viewBox="0 0 24 24" id="download" xmlns="http://www.w3.org/2000/svg"><path d="M10.438 2h3.124c.52 0 .938.418.938.938V9.5h3.426a.78.78 0 01.55 1.332l-5.94 5.945a.757.757 0 01-1.067 0l-5.95-5.945A.78.78 0 016.07 9.5H9.5V2.937c0-.519.418-.937.938-.937zM22 16.688v4.375a.935.935 0 01-.938.937H2.938A.935.935 0 012 21.062v-4.375c0-.519.418-.937.938-.937h5.73l1.914 1.914c.785.785 2.05.785 2.836 0l1.914-1.914h5.73c.52 0 .938.418.938.938zm-4.844 3.437a.783.783 0 00-.781-.781.783.783 0 00-.781.781c0 .43.351.781.781.781.43 0 .781-.351.781-.781zm2.5 0a.783.783 0 00-.781-.781.783.783 0 00-.781.781c0 .43.351.781.781.781.43 0 .781-.351.781-.781z"/></symbol><symbol viewBox="0 0 16 16" id="minus" xmlns="http://www.w3.org/2000/svg"><path d="M13.715 6.571H2.286a.952.952 0 00-.952.953v.952c0 .526.426.953.952.953h11.429a.953.953 0 00.952-.953v-.952a.953.953 0 00-.952-.953z"/></symbol><symbol viewBox="0 0 16 16" id="plus" xmlns="http://www.w3.org/2000/svg"><path d="M13.715 6.571H9.429V2.286a.953.953 0 00-.952-.953h-.953a.953.953 0 00-.952.953V6.57H2.286a.953.953 0 00-.952.953v.952c0 .526.426.953.952.953h4.286v4.285c0 .526.427.953.952.953h.953a.953.953 0 00.952-.953V9.43h4.286a.953.953 0 00.952-.953v-.952a.953.953 0 00-.952-.953z"/></symbol></svg>