<svg width="48" height="48" viewBox="0 0 48 48" fill="none" xmlns="http://www.w3.org/2000/svg">
<path d="M21.007 7.11795L22.989 5.13603C23.8281 4.29684 25.1851 4.29684 26.0154 5.13603L43.3706 22.4823C44.2098 23.3215 44.2098 24.6785 43.3706 25.5088L26.0154 42.864C25.1762 43.7032 23.8192 43.7032 22.989 42.864L21.007 40.882C20.1589 40.0339 20.1768 38.6501 21.0427 37.8199L31.8005 27.571H6.14262C4.95525 27.571 4 26.6158 4 25.4284V22.5716C4 21.3842 4.95525 20.429 6.14262 20.429H31.8005L21.0427 10.1801C20.1678 9.34985 20.15 7.96607 21.007 7.11795Z" fill="white"/>
</svg>
