<svg width="48" height="48" viewBox="0 0 48 48" fill="none" xmlns="http://www.w3.org/2000/svg">
<g opacity="0.4">
<path d="M26.993 40.882L25.011 42.864C24.1719 43.7032 22.8149 43.7032 21.9846 42.864L4.62939 25.5177C3.7902 24.6785 3.7902 23.3215 4.62939 22.4912L21.9846 5.13603C22.8238 4.29684 24.1808 4.29684 25.011 5.13603L26.993 7.11795C27.8411 7.96607 27.8232 9.34985 26.9573 10.1801L16.1995 20.429H41.8574C43.0448 20.429 44 21.3842 44 22.5716V25.4284C44 26.6158 43.0448 27.571 41.8574 27.571H16.1995L26.9573 37.8199C27.8322 38.6501 27.85 40.0339 26.993 40.882Z" fill="white"/>
</g>
</svg>
