<svg width="24" height="24" viewBox="0 0 24 24" fill="none" xmlns="http://www.w3.org/2000/svg">
<path d="M10.4375 2H13.5625C14.082 2 14.5 2.41797 14.5 2.9375V9.5H17.9258C18.6211 9.5 18.9688 10.3398 18.4766 10.832L12.5352 16.7773C12.2422 17.0703 11.7617 17.0703 11.4688 16.7773L5.51953 10.832C5.02734 10.3398 5.375 9.5 6.07031 9.5H9.5V2.9375C9.5 2.41797 9.91797 2 10.4375 2ZM22 16.6875V21.0625C22 21.582 21.582 22 21.0625 22H2.9375C2.41797 22 2 21.582 2 21.0625V16.6875C2 16.168 2.41797 15.75 2.9375 15.75H8.66797L10.582 17.6641C11.3672 18.4492 12.6328 18.4492 13.418 17.6641L15.332 15.75H21.0625C21.582 15.75 22 16.168 22 16.6875ZM17.1562 20.125C17.1562 19.6953 16.8047 19.3438 16.375 19.3438C15.9453 19.3438 15.5938 19.6953 15.5938 20.125C15.5938 20.5547 15.9453 20.9062 16.375 20.9062C16.8047 20.9062 17.1562 20.5547 17.1562 20.125ZM19.6562 20.125C19.6562 19.6953 19.3047 19.3438 18.875 19.3438C18.4453 19.3438 18.0938 19.6953 18.0938 20.125C18.0938 20.5547 18.4453 20.9062 18.875 20.9062C19.3047 20.9062 19.6562 20.5547 19.6562 20.125Z" fill="#627377"/>
</svg>
