<svg width="16" height="16" viewBox="0 0 16 16" fill="none" xmlns="http://www.w3.org/2000/svg">
<path d="M13.7149 6.57142H9.42922V2.28571C9.42922 1.75982 9.00273 1.33333 8.47684 1.33333H7.52446C6.99857 1.33333 6.57208 1.75982 6.57208 2.28571V6.57142H2.28637C1.76047 6.57142 1.33398 6.99791 1.33398 7.5238V8.47619C1.33398 9.00208 1.76047 9.42857 2.28637 9.42857H6.57208V13.7143C6.57208 14.2402 6.99857 14.6667 7.52446 14.6667H8.47684C9.00273 14.6667 9.42922 14.2402 9.42922 13.7143V9.42857H13.7149C14.2408 9.42857 14.6673 9.00208 14.6673 8.47619V7.5238C14.6673 6.99791 14.2408 6.57142 13.7149 6.57142Z" fill="#627377"/>
</svg>
